<svg width="113" height="113" viewBox="0 0 113 113" fill="none" xmlns="http://www.w3.org/2000/svg">
<path d="M71.529 65.3139L47.8555 73.7889C46.6114 74.2404 45.565 75.1138 44.8993 76.258C44.2335 77.4015 43.9903 78.7428 44.2122 80.048C44.4342 81.3526 45.1071 82.5379 46.1136 83.3973C47.1204 84.2567 48.3968 84.7352 49.72 84.7499C50.3754 84.7494 51.0252 84.6347 51.641 84.4109L75.371 75.9359C76.0885 75.6992 76.7507 75.3212 77.3197 74.8234C77.8881 74.3262 78.3514 73.72 78.6819 73.0409C79.0119 72.3612 79.2028 71.6227 79.2424 70.8684C79.2825 70.1136 79.1706 69.3593 78.9136 68.6486C78.6565 67.9383 78.2598 67.2869 77.7463 66.7326C77.2332 66.1778 76.614 65.732 75.9258 65.4213C75.2371 65.1105 74.4936 64.9405 73.7382 64.9224C72.9833 64.9037 72.2319 65.0371 71.529 65.3139ZM48.929 48.3639C49.9816 47.3051 50.572 45.8734 50.572 44.3807C50.572 42.888 49.9816 41.456 48.929 40.3975C45.6955 37.3295 41.4083 35.6191 36.951 35.6191C32.4938 35.6191 28.2064 37.3295 24.973 40.3975C24.3816 40.904 23.9012 41.5272 23.5621 42.2282C23.223 42.9292 23.0324 43.6927 23.0023 44.4708C22.9723 45.2491 23.1034 46.0248 23.3874 46.7497C23.6715 47.4746 24.1023 48.1334 24.6529 48.6843C25.2036 49.2346 25.8621 49.6657 26.5871 49.9493C27.3122 50.2335 28.0881 50.3646 28.8662 50.3347C29.6443 50.3047 30.4078 50.1138 31.1087 49.7747C31.8097 49.4357 32.433 48.9555 32.9395 48.3639C33.4648 47.8345 34.0897 47.4142 34.7782 47.1272C35.4667 46.8401 36.2051 46.6927 36.951 46.6927C37.6969 46.6927 38.4354 46.8401 39.1239 47.1272C39.8124 47.4142 40.4373 47.8345 40.9625 48.3639C42.0211 49.4165 43.4531 50.007 44.9458 50.007C46.4385 50.007 47.8702 49.4165 48.929 48.3639ZM88.479 40.3975C85.2455 37.3295 80.9583 35.6191 76.501 35.6191C72.0437 35.6191 67.7565 37.3295 64.523 40.3975C63.5975 41.4783 63.1139 42.8687 63.1687 44.2906C63.2235 45.7124 63.8128 47.0616 64.8191 48.0679C65.8253 49.0742 67.1745 49.6634 68.5966 49.7183C70.0182 49.7731 71.4087 49.2894 72.4895 48.3639C73.0149 47.8345 73.6398 47.4142 74.328 47.1272C75.0167 46.8401 75.7552 46.6927 76.501 46.6927C77.2468 46.6927 77.9853 46.8401 78.674 47.1272C79.3622 47.4142 79.987 47.8345 80.5125 48.3639C81.5713 49.4165 83.003 50.007 84.4958 50.007C85.9885 50.007 87.4202 49.4165 88.479 48.3639C89.0028 47.8227 89.4129 47.1825 89.6858 46.4808C89.9582 45.7785 90.0881 45.0294 90.0667 44.2766C90.0457 43.5239 89.8745 42.783 89.5632 42.0974C89.2514 41.4118 88.8061 40.7954 88.253 40.2845L88.479 40.3975ZM56.5 0C45.3254 0 34.4017 3.31367 25.1103 9.52194C15.8189 15.7303 8.57721 24.5543 4.30084 34.8784C0.0244689 45.2022 -1.0944 56.5627 1.08565 67.5225C3.26571 78.4824 8.64682 88.5495 16.5485 96.4516C24.4501 104.353 34.5175 109.734 45.4774 111.915C56.4373 114.094 67.7977 112.976 78.1214 108.699C88.4457 104.423 97.2698 97.181 103.478 87.8896C109.686 78.5982 113 67.6745 113 56.4999C113 49.0804 111.538 41.7332 108.699 34.8784C105.86 28.0235 101.698 21.795 96.4517 16.5484C91.2051 11.302 84.9766 7.14018 78.1214 4.30078C71.2668 1.46143 63.9196 0 56.5 0ZM56.5 101.7C47.5606 101.7 38.8214 99.0489 31.3882 94.0826C23.9552 89.1157 18.1618 82.0566 14.7407 73.7974C11.3196 65.5382 10.4245 56.4496 12.1685 47.682C13.9126 38.9139 18.2175 30.8601 24.5388 24.5388C30.8601 18.2174 38.914 13.9125 47.682 12.1685C56.4497 10.4245 65.5383 11.3195 73.7975 14.7406C82.0566 18.1617 89.1157 23.9551 94.0827 31.3882C99.049 38.8213 101.7 47.56 101.7 56.4999C101.7 68.4875 96.9382 79.9847 88.4615 88.4614C79.9848 96.9375 68.4876 101.7 56.5 101.7Z" fill="black"/>
</svg>
