<svg width="112" height="110" viewBox="0 0 112 110" fill="none" xmlns="http://www.w3.org/2000/svg">
<path fill-rule="evenodd" clip-rule="evenodd" d="M56 0C25.0712 0 0 25.1104 0 56.0952C0 80.8752 16.044 101.903 38.2984 109.318C41.0984 109.833 42.1176 108.102 42.1176 106.613C42.1176 105.286 42.0728 101.752 42.0448 97.076C26.4656 100.464 23.1784 89.5552 23.1784 89.5552C20.636 83.0704 16.9624 81.3456 16.9624 81.3456C11.8776 77.8736 17.3488 77.9408 17.3488 77.9408C22.9656 78.3328 25.9224 83.72 25.9224 83.72C30.9176 92.288 39.032 89.8128 42.2184 88.3792C42.7336 84.756 44.1784 82.2864 45.78 80.8864C33.348 79.4696 20.272 74.6536 20.272 53.1608C20.272 47.04 22.456 42.028 26.0344 38.108C25.4576 36.6912 23.5368 30.9848 26.5832 23.268C26.5832 23.268 31.2872 21.756 41.9832 29.0136C46.5515 27.7677 51.2647 27.1331 56 27.1264C60.76 27.1488 65.548 27.7704 70.0224 29.0136C80.7128 21.756 85.4056 23.2624 85.4056 23.2624C88.4632 30.9848 86.5368 36.6912 85.9656 38.108C89.5496 42.028 91.7224 47.04 91.7224 53.1608C91.7224 74.7096 78.624 79.4528 66.1528 80.8416C68.1632 82.572 69.9496 85.9936 69.9496 91.2296C69.9496 98.7224 69.8824 104.776 69.8824 106.613C69.8824 108.114 70.8904 109.861 73.7352 109.312C84.8867 105.572 94.5803 98.4219 101.447 88.8725C108.313 79.3226 112.005 67.8571 112 56.0952C112 25.1104 86.9232 0 56 0Z" fill="black"/>
</svg>
