<svg xmlns="http://www.w3.org/2000/svg" xmlns:xlink="http://www.w3.org/1999/xlink" viewBox="0 0 750 500"><defs><style>.cls-1{fill:none;}.cls-2{isolation:isolate;}.cls-3{clip-path:url(#clip-path);}.cls-4{fill:url(#linear-gradient);}.cls-5{fill:url(#linear-gradient-2);}.cls-6{fill:url(#linear-gradient-3);}.cls-7{fill:url(#linear-gradient-4);}.cls-8{fill:url(#linear-gradient-5);}.cls-9{fill:url(#linear-gradient-6);}.cls-10{fill:url(#linear-gradient-7);}.cls-11{fill:url(#linear-gradient-8);}.cls-12{fill:url(#linear-gradient-9);}.cls-13{fill:url(#linear-gradient-10);}.cls-14{fill:url(#linear-gradient-11);}.cls-15{filter:url(#filter);}.cls-16{clip-path:url(#clip-path-2);}.cls-17{fill:url(#radial-gradient);}.cls-18{fill:url(#linear-gradient-12);}.cls-19{fill:url(#linear-gradient-13);}.cls-20{clip-path:url(#clip-path-3);}.cls-21{fill:url(#radial-gradient-2);}.cls-22{fill:url(#linear-gradient-14);}.cls-23{fill:url(#linear-gradient-15);}.cls-24{fill:url(#linear-gradient-16);}.cls-25{fill:url(#linear-gradient-17);}.cls-26{fill:url(#linear-gradient-18);}.cls-27{fill:url(#linear-gradient-19);}.cls-28{fill:url(#linear-gradient-20);}.cls-29{fill:url(#linear-gradient-21);}.cls-30{fill:url(#linear-gradient-22);}.cls-31{fill:url(#linear-gradient-23);}.cls-32{fill:url(#linear-gradient-24);}.cls-33{fill:url(#linear-gradient-25);}.cls-34{fill:url(#linear-gradient-26);}.cls-35{fill:url(#linear-gradient-27);}.cls-36{fill:url(#linear-gradient-28);}.cls-37{fill:url(#linear-gradient-29);}.cls-38{fill:url(#linear-gradient-30);}.cls-39{fill:url(#linear-gradient-31);}.cls-40{fill:url(#linear-gradient-32);}.cls-41{clip-path:url(#clip-path-4);}.cls-42,.cls-53,.cls-54,.cls-57,.cls-58,.cls-61,.cls-62,.cls-65,.cls-66{mix-blend-mode:overlay;opacity:0.6;}.cls-42{fill:url(#radial-gradient-3);}.cls-43{fill:url(#linear-gradient-33);}.cls-44{fill:url(#linear-gradient-34);}.cls-45{fill:url(#linear-gradient-35);}.cls-46{fill:url(#linear-gradient-36);}.cls-47{fill:url(#linear-gradient-37);}.cls-48{fill:url(#linear-gradient-38);}.cls-49{fill:url(#linear-gradient-39);}.cls-50{filter:url(#filter-2);}.cls-51{fill:url(#radial-gradient-4);}.cls-52{clip-path:url(#clip-path-5);}.cls-53{fill:url(#radial-gradient-5);}.cls-54{fill:url(#radial-gradient-6);}.cls-55{fill:url(#radial-gradient-7);}.cls-56{clip-path:url(#clip-path-6);}.cls-57{fill:url(#radial-gradient-8);}.cls-58{fill:url(#radial-gradient-9);}.cls-59{fill:url(#radial-gradient-10);}.cls-60{clip-path:url(#clip-path-7);}.cls-61{fill:url(#radial-gradient-11);}.cls-62{fill:url(#radial-gradient-12);}.cls-63{fill:url(#radial-gradient-13);}.cls-64{clip-path:url(#clip-path-8);}.cls-65{fill:url(#radial-gradient-14);}.cls-66{fill:url(#radial-gradient-15);}.cls-67{fill:url(#radial-gradient-16);}</style><clipPath id="clip-path"><rect class="cls-1" width="750" height="500"/></clipPath><linearGradient id="linear-gradient" x1="152.24" y1="206.62" x2="255.8" y2="271.48" gradientTransform="matrix(0.78, 0.63, -0.63, 0.78, 190.67, -69.26)" gradientUnits="userSpaceOnUse"><stop offset="0.13" stop-color="#276a61"/><stop offset="0.52" stop-color="#164f4e"/><stop offset="1" stop-color="#0f3d3b"/></linearGradient><linearGradient id="linear-gradient-2" x1="151.1" y1="158.86" x2="186.18" y2="264.69" gradientTransform="matrix(0.78, 0.63, -0.63, 0.78, 190.67, -69.26)" gradientUnits="userSpaceOnUse"><stop offset="0.13" stop-color="#7dc6a6"/><stop offset="1" stop-color="#276a61"/></linearGradient><linearGradient id="linear-gradient-3" x1="184.94" y1="158.85" x2="33" y2="338.47" xlink:href="#linear-gradient-2"/><linearGradient id="linear-gradient-4" x1="222.92" y1="130.04" x2="226.1" y2="337.32" gradientTransform="matrix(0.78, 0.63, -0.63, 0.78, 190.67, -69.26)" gradientUnits="userSpaceOnUse"><stop offset="0" stop-color="#18eded"/><stop offset="0.39" stop-color="#6044ea"/><stop offset="0.55" stop-color="#5d3ee4"/><stop offset="0.77" stop-color="#552ed3"/><stop offset="0.92" stop-color="#4d1dc2"/></linearGradient><linearGradient id="linear-gradient-5" x1="319.97" y1="115.86" x2="47.14" y2="495.5" gradientUnits="userSpaceOnUse"><stop offset="0" stop-color="#7dc6a6"/><stop offset="0.07" stop-color="#74bd9f"/><stop offset="0.17" stop-color="#5da48c"/><stop offset="0.31" stop-color="#377b6e"/><stop offset="0.36" stop-color="#276a61"/><stop offset="0.39" stop-color="#23635c"/><stop offset="0.49" stop-color="#1b5854"/><stop offset="0.63" stop-color="#17514f"/><stop offset="1" stop-color="#164f4e"/></linearGradient><linearGradient id="linear-gradient-6" x1="350.94" y1="78.09" x2="378.48" y2="159.44" gradientUnits="userSpaceOnUse"><stop offset="0.05" stop-color="#5d92c5"/><stop offset="1" stop-color="#112d4c"/></linearGradient><linearGradient id="linear-gradient-7" x1="331.09" y1="39.8" x2="161.35" y2="57.78" gradientTransform="translate(131.51 229.35) rotate(-42.96)" gradientUnits="userSpaceOnUse"><stop offset="0" stop-color="#c5e5f5"/><stop offset="0.49" stop-color="#9bbfe0"/><stop offset="1" stop-color="#5d92c5"/></linearGradient><linearGradient id="linear-gradient-8" x1="374.05" y1="50.98" x2="495.69" y2="229.43" gradientUnits="userSpaceOnUse"><stop offset="0" stop-color="#9bbfe0"/><stop offset="0.26" stop-color="#5d92c5"/><stop offset="0.51" stop-color="#375986"/></linearGradient><linearGradient id="linear-gradient-9" x1="443.74" y1="94.79" x2="443.29" y2="121.43" gradientTransform="matrix(-0.96, 0.27, 0.27, 0.96, 812.87, -50.55)" gradientUnits="userSpaceOnUse"><stop offset="0.05" stop-color="#e4c7c5"/><stop offset="1" stop-color="#aa8080"/></linearGradient><linearGradient id="linear-gradient-10" x1="477.23" y1="167.76" x2="431.55" y2="172.6" gradientTransform="matrix(-1, 0, 0, 1, 871.07, 0)" gradientUnits="userSpaceOnUse"><stop offset="0" stop-color="#faf0f1"/><stop offset="0.49" stop-color="#e4c7c5"/><stop offset="1" stop-color="#aa8080"/></linearGradient><linearGradient id="linear-gradient-11" x1="395.15" y1="156.62" x2="411.34" y2="197.3" gradientUnits="userSpaceOnUse"><stop offset="0" stop-color="#faf0f1"/><stop offset="0.47" stop-color="#e4c7c5"/><stop offset="1" stop-color="#aa8080"/></linearGradient><filter id="filter"><feOffset dx="10" dy="18" input="SourceAlpha"/><feGaussianBlur stdDeviation="10" result="blur"/><feFlood/><feComposite operator="in" in2="blur"/><feComposite in="SourceGraphic"/></filter><clipPath id="clip-path-2"><polygon class="cls-1" points="538.61 0 714.01 175.4 630.44 258.97 581.95 207.77 506.25 132.07 455.04 83.57 538.61 0"/></clipPath><radialGradient id="radial-gradient" cx="523.8" cy="532.89" r="111.43" gradientTransform="translate(537.22 917.57) rotate(-135)" gradientUnits="userSpaceOnUse"><stop offset="0.44" stop-color="#aa8080"/><stop offset="0.5" stop-color="#be9897"/><stop offset="0.6" stop-color="#e4c7c5"/><stop offset="0.76" stop-color="#faf0f1"/><stop offset="0.93" stop-color="#d8b3b2"/></radialGradient><linearGradient id="linear-gradient-12" x1="395.12" y1="529.35" x2="509.24" y2="539.67" gradientTransform="translate(68.88 669.56) rotate(-90)" gradientUnits="userSpaceOnUse"><stop offset="0.44" stop-color="#aa8080"/><stop offset="0.53" stop-color="#be9897"/><stop offset="0.66" stop-color="#e4c7c5"/><stop offset="0.83" stop-color="#faf0f1"/><stop offset="1" stop-color="#e4c7c5"/></linearGradient><linearGradient id="linear-gradient-13" x1="535.3" y1="508.03" x2="667.47" y2="555.52" gradientTransform="translate(-47.75 717.87) rotate(-90)" xlink:href="#linear-gradient-12"/><clipPath id="clip-path-3"><polygon class="cls-1" points="329.51 499.62 167.13 451.62 190 374.25 235.77 389.14 305.86 409.86 352.38 422.25 329.51 499.62"/></clipPath><radialGradient id="radial-gradient-2" cx="590.63" cy="-41.38" r="76.06" gradientTransform="matrix(0.96, 0.28, -0.28, 0.96, -307.2, 271.34)" gradientUnits="userSpaceOnUse"><stop offset="0.44" stop-color="#7f4813"/><stop offset="0.49" stop-color="#975f1c"/><stop offset="0.58" stop-color="#d59932"/><stop offset="0.6" stop-color="#e7aa39"/><stop offset="0.76" stop-color="#ffffab"/><stop offset="0.93" stop-color="#e7aa39"/></radialGradient><linearGradient id="linear-gradient-14" x1="502.79" y1="-43.8" x2="580.69" y2="-36.76" gradientTransform="translate(175.88 -150.79) rotate(90)" gradientUnits="userSpaceOnUse"><stop offset="0.44" stop-color="#7f4813"/><stop offset="0.5" stop-color="#975f1c"/><stop offset="0.63" stop-color="#d59932"/><stop offset="0.66" stop-color="#e7aa39"/><stop offset="0.83" stop-color="#ffffab"/><stop offset="1" stop-color="#e7aa39"/></linearGradient><linearGradient id="linear-gradient-15" x1="598.49" y1="-58.36" x2="688.71" y2="-25.94" gradientTransform="translate(283.85 -231.47) rotate(90)" xlink:href="#linear-gradient-14"/><linearGradient id="linear-gradient-16" x1="557.63" y1="246.33" x2="551.28" y2="370.33" gradientTransform="translate(-51.07 501.34) rotate(-42.29)" gradientUnits="userSpaceOnUse"><stop offset="0" stop-color="#7dc6a6"/><stop offset="0.41" stop-color="#5aa889"/><stop offset="1" stop-color="#276a61"/></linearGradient><linearGradient id="linear-gradient-17" x1="487.41" y1="195.99" x2="524.54" y2="350.37" gradientTransform="translate(-51.07 501.34) rotate(-42.29)" gradientUnits="userSpaceOnUse"><stop offset="0" stop-color="#276a61"/><stop offset="0.52" stop-color="#1d5a55"/><stop offset="1" stop-color="#164f4e"/></linearGradient><linearGradient id="linear-gradient-18" x1="641.5" y1="290.5" x2="533.61" y2="401.81" gradientTransform="translate(-51.07 501.34) rotate(-42.29)" gradientUnits="userSpaceOnUse"><stop offset="0" stop-color="#5aa889"/><stop offset="0.4" stop-color="#276a61"/><stop offset="1" stop-color="#276a61"/></linearGradient><linearGradient id="linear-gradient-19" x1="366.15" y1="338.27" x2="430.91" y2="328" gradientTransform="translate(168.32 -171.93) rotate(24.25)" gradientUnits="userSpaceOnUse"><stop offset="0.05" stop-color="#487eaa"/><stop offset="1" stop-color="#112d4c"/></linearGradient><linearGradient id="linear-gradient-20" x1="460.5" y1="241.05" x2="461.43" y2="299.83" xlink:href="#linear-gradient-19"/><linearGradient id="linear-gradient-21" x1="460.89" y1="291.96" x2="461.08" y2="359.51" xlink:href="#linear-gradient-19"/><linearGradient id="linear-gradient-22" x1="386.93" y1="370.64" x2="456.34" y2="357.95" xlink:href="#linear-gradient-19"/><linearGradient id="linear-gradient-23" x1="419.82" y1="332.79" x2="466.85" y2="323.65" xlink:href="#linear-gradient-19"/><linearGradient id="linear-gradient-24" x1="492.15" y1="273.11" x2="492.34" y2="326.11" xlink:href="#linear-gradient-19"/><linearGradient id="linear-gradient-25" x1="415.41" y1="267.98" x2="482.4" y2="374.15" gradientTransform="translate(168.32 -171.93) rotate(24.25)" gradientUnits="userSpaceOnUse"><stop offset="0" stop-color="#9bbfe0"/><stop offset="0.49" stop-color="#5d92c5"/><stop offset="1" stop-color="#375986"/></linearGradient><linearGradient id="linear-gradient-26" x1="496.84" y1="477.23" x2="528.76" y2="472.17" gradientTransform="translate(799.46 59.85) rotate(114.25)" xlink:href="#linear-gradient-9"/><linearGradient id="linear-gradient-27" x1="543.35" y1="429.3" x2="543.81" y2="458.28" gradientTransform="translate(799.46 59.85) rotate(114.25)" xlink:href="#linear-gradient-9"/><linearGradient id="linear-gradient-28" x1="543.55" y1="454.4" x2="543.64" y2="487.71" gradientTransform="translate(799.46 59.85) rotate(114.25)" xlink:href="#linear-gradient-9"/><linearGradient id="linear-gradient-29" x1="507.08" y1="493.19" x2="541.31" y2="486.94" gradientTransform="translate(799.46 59.85) rotate(114.25)" xlink:href="#linear-gradient-9"/><linearGradient id="linear-gradient-30" x1="523.3" y1="474.53" x2="546.48" y2="470.02" gradientTransform="translate(799.46 59.85) rotate(114.25)" xlink:href="#linear-gradient-9"/><linearGradient id="linear-gradient-31" x1="558.96" y1="445.1" x2="559.05" y2="471.23" gradientTransform="translate(799.46 59.85) rotate(114.25)" xlink:href="#linear-gradient-9"/><linearGradient id="linear-gradient-32" x1="521.12" y1="442.57" x2="554.15" y2="494.92" gradientTransform="translate(799.46 59.85) rotate(114.25)" xlink:href="#linear-gradient-10"/><clipPath id="clip-path-4"><polygon class="cls-1" points="139.46 341.31 154.59 348.15 158.94 333.24 170.56 338.5 166.21 353.42 181.34 360.26 178 371.72 162.87 364.88 158.53 379.79 146.91 374.53 151.25 359.62 136.12 352.77 139.46 341.31"/></clipPath><radialGradient id="radial-gradient-3" cx="-781.51" cy="11785.01" r="24.65" gradientTransform="matrix(-0.66, -0.75, -0.75, 0.66, 8526.02, -8003.63)" gradientUnits="userSpaceOnUse"><stop offset="0" stop-color="#fff"/><stop offset="0.12" stop-color="#fff" stop-opacity="0.86"/><stop offset="0.45" stop-color="#fff" stop-opacity="0.49"/><stop offset="0.71" stop-color="#fff" stop-opacity="0.23"/><stop offset="0.9" stop-color="#fff" stop-opacity="0.06"/><stop offset="1" stop-color="#fff" stop-opacity="0"/></radialGradient><linearGradient id="linear-gradient-33" x1="-6.31" y1="-255.2" x2="11.38" y2="-258" gradientTransform="matrix(-0.91, -0.41, 0.41, -0.91, 484.79, 4.98)" gradientUnits="userSpaceOnUse"><stop offset="0.05" stop-color="#5aa889"/><stop offset="1" stop-color="#164f4e"/></linearGradient><linearGradient id="linear-gradient-34" x1="19.47" y1="-281.76" x2="19.72" y2="-265.7" xlink:href="#linear-gradient-33"/><linearGradient id="linear-gradient-35" x1="19.57" y1="-267.85" x2="19.63" y2="-249.39" xlink:href="#linear-gradient-33"/><linearGradient id="linear-gradient-36" x1="-0.64" y1="-246.35" x2="18.33" y2="-249.82" gradientTransform="matrix(-0.91, -0.41, 0.41, -0.91, 484.79, 4.98)" gradientUnits="userSpaceOnUse"><stop offset="0" stop-color="#5aa889"/><stop offset="0.95" stop-color="#7dc6a6"/></linearGradient><linearGradient id="linear-gradient-37" x1="8.35" y1="-256.69" x2="21.2" y2="-259.19" gradientTransform="matrix(-0.91, -0.41, 0.41, -0.91, 484.79, 4.98)" gradientUnits="userSpaceOnUse"><stop offset="0.05" stop-color="#27594b"/><stop offset="1" stop-color="#164f4e"/></linearGradient><linearGradient id="linear-gradient-38" x1="28.12" y1="-273" x2="28.17" y2="-258.52" xlink:href="#linear-gradient-33"/><linearGradient id="linear-gradient-39" x1="358.47" y1="223.25" x2="372.57" y2="259.5" gradientUnits="userSpaceOnUse"><stop offset="0" stop-color="#7dc6a6"/><stop offset="0.49" stop-color="#5aa889"/><stop offset="1" stop-color="#276a61"/></linearGradient><filter id="filter-2"><feOffset dx="10" dy="18" input="SourceAlpha"/><feGaussianBlur stdDeviation="10" result="blur-2"/><feFlood/><feComposite operator="in" in2="blur-2"/><feComposite in="SourceGraphic"/></filter><radialGradient id="radial-gradient-4" cx="258.89" cy="283.35" r="38.78" gradientUnits="userSpaceOnUse"><stop offset="0" stop-color="#ffffab"/><stop offset="0.35" stop-color="#e7aa39"/><stop offset="0.41" stop-color="#d59932"/><stop offset="0.65" stop-color="#975f1c"/><stop offset="0.76" stop-color="#7f4813"/></radialGradient><clipPath id="clip-path-5"><circle class="cls-1" cx="265.08" cy="293.26" r="29.8"/></clipPath><radialGradient id="radial-gradient-5" cx="-739.77" cy="11521.77" r="21.59" gradientTransform="matrix(-0.75, 0.66, 0.66, 0.75, -7895.16, -7898.49)" xlink:href="#radial-gradient-3"/><radialGradient id="radial-gradient-6" cx="-741.66" cy="11566.99" r="21.59" gradientTransform="matrix(-0.75, 0.66, 0.66, 0.75, -7895.16, -7898.49)" xlink:href="#radial-gradient-3"/><radialGradient id="radial-gradient-7" cx="320.87" cy="306.81" r="19.32" gradientUnits="userSpaceOnUse"><stop offset="0" stop-color="#faf0f1"/><stop offset="0.35" stop-color="#e4c7c5"/><stop offset="0.6" stop-color="#be9897"/><stop offset="0.76" stop-color="#aa8080"/></radialGradient><clipPath id="clip-path-6"><circle class="cls-1" cx="323.96" cy="311.75" r="14.85"/></clipPath><radialGradient id="radial-gradient-8" cx="-772.08" cy="11583.08" r="10.75" gradientTransform="matrix(-0.75, 0.66, 0.66, 0.75, -7895.16, -7898.49)" xlink:href="#radial-gradient-3"/><radialGradient id="radial-gradient-9" cx="-773.03" cy="11605.6" r="10.75" gradientTransform="matrix(-0.75, 0.66, 0.66, 0.75, -7895.16, -7898.49)" xlink:href="#radial-gradient-3"/><radialGradient id="radial-gradient-10" cx="281.2" cy="349.33" r="12.5" gradientUnits="userSpaceOnUse"><stop offset="0" stop-color="#c5e5f5"/><stop offset="0.37" stop-color="#5d92c5"/><stop offset="0.76" stop-color="#375986"/></radialGradient><clipPath id="clip-path-7"><circle class="cls-1" cx="283.2" cy="352.52" r="9.61"/></clipPath><radialGradient id="radial-gradient-11" cx="-714.63" cy="11589.9" r="6.96" gradientTransform="matrix(-0.75, 0.66, 0.66, 0.75, -7895.16, -7898.49)" xlink:href="#radial-gradient-3"/><radialGradient id="radial-gradient-12" cx="-715.24" cy="11604.47" r="6.96" gradientTransform="matrix(-0.75, 0.66, 0.66, 0.75, -7895.16, -7898.49)" xlink:href="#radial-gradient-3"/><radialGradient id="radial-gradient-13" cx="609.27" cy="75.08" r="19.32" gradientUnits="userSpaceOnUse"><stop offset="0" stop-color="#7dc6a6"/><stop offset="0.35" stop-color="#5aa889"/><stop offset="0.61" stop-color="#37715e"/><stop offset="0.76" stop-color="#27594b"/></radialGradient><clipPath id="clip-path-8"><circle class="cls-1" cx="612.36" cy="80.01" r="14.85"/></clipPath><radialGradient id="radial-gradient-14" cx="-1141.72" cy="11598.8" r="10.75" gradientTransform="matrix(-0.75, 0.66, 0.66, 0.75, -7895.16, -7898.49)" xlink:href="#radial-gradient-3"/><radialGradient id="radial-gradient-15" cx="-1142.66" cy="11621.33" r="10.75" gradientTransform="matrix(-0.75, 0.66, 0.66, 0.75, -7895.16, -7898.49)" xlink:href="#radial-gradient-3"/><radialGradient id="radial-gradient-16" cx="814.22" cy="397.31" r="45.21" gradientTransform="translate(537.22 917.57) rotate(-135)" gradientUnits="userSpaceOnUse"><stop offset="0.44" stop-color="#605c59"/><stop offset="0.58" stop-color="#757271"/><stop offset="0.6" stop-color="#787675"/><stop offset="0.76" stop-color="#b1b0b5"/><stop offset="0.93" stop-color="#787675"/></radialGradient></defs><g class="cls-2"><g id="Layer_2" data-name="Layer 2"><g id="OBJECT"><g class="cls-3"><polygon class="cls-4" points="262.15 302.66 239.77 308.15 172.65 286.7 195.04 281.21 262.15 302.66"/><polygon class="cls-5" points="195.04 281.21 172.65 286.7 151.07 210.38 173.46 204.9 195.04 281.21"/><polygon class="cls-6" points="173.46 204.9 151.07 210.38 196.6 155.5 218.99 150.02 173.46 204.9"/><polygon class="cls-7" points="218.99 150.02 286.09 171.46 307.68 247.79 262.15 302.66 195.04 281.21 173.46 204.9 218.99 150.02"/><polygon class="cls-8" points="218.99 150.02 286.09 171.46 307.68 247.79 262.15 302.66 195.04 281.21 173.46 204.9 218.99 150.02"/><polygon class="cls-9" points="394.61 135.8 355.16 134.96 328.54 83.23 367.99 84.06 394.61 135.8"/><polygon class="cls-10" points="367.99 84.06 328.54 83.23 372.95 51.75 412.4 52.59 367.99 84.06"/><polygon class="cls-11" points="412.4 52.59 439.01 104.32 394.61 135.8 367.99 84.06 412.4 52.59"/><polygon class="cls-12" points="413.96 186.88 421.58 179.48 417.33 164.41 409.72 171.81 413.96 186.88"/><polygon class="cls-13" points="409.72 171.81 417.33 164.41 402.81 166.35 395.2 173.75 409.72 171.81"/><polygon class="cls-14" points="395.2 173.75 399.44 188.82 413.96 186.88 409.72 171.81 395.2 173.75"/><g class="cls-15"><g class="cls-16"><path class="cls-17" d="M464.86,249.16a111.43,111.43,0,1,0,0-157.58A111.42,111.42,0,0,0,464.86,249.16ZM581.51,132.51a53.55,53.55,0,1,1-75.73,0A53.54,53.54,0,0,1,581.51,132.51Z"/></g><ellipse class="cls-18" cx="602.41" cy="228.23" rx="16.15" ry="28.94" transform="translate(15.06 492.82) rotate(-45)"/><ellipse class="cls-19" cx="485.78" cy="111.6" rx="16.15" ry="28.94" transform="translate(63.37 376.19) rotate(-45)"/><g class="cls-20"><path class="cls-21" d="M292.5,326.14a76.07,76.07,0,1,0,51.38,94.51A76.07,76.07,0,0,0,292.5,326.14Zm-31.93,108A36.56,36.56,0,1,1,306,409.45,36.56,36.56,0,0,1,260.57,434.14Z"/></g><ellipse class="cls-22" cx="216.82" cy="383.54" rx="11.02" ry="19.76" transform="translate(-212.45 482.74) rotate(-73.53)"/><ellipse class="cls-23" cx="324.8" cy="415.46" rx="11.02" ry="19.76" transform="translate(-165.7 609.16) rotate(-73.53)"/></g><polygon class="cls-24" points="491.01 394.62 581.33 370.87 613.5 283.19 491.01 394.62"/><polygon class="cls-25" points="581.33 370.87 648.75 444.99 491.01 394.62 581.33 370.87"/><polygon class="cls-26" points="581.33 370.87 648.75 444.99 613.5 283.19 581.33 370.87"/><g class="cls-2"><polygon class="cls-27" points="426.7 298.44 438.17 313.55 407.92 304.73 396.45 289.63 426.7 298.44"/><polygon class="cls-28" points="474.49 250.97 485.96 266.08 472.08 296.75 460.61 281.64 474.49 250.97"/><polygon class="cls-29" points="449.94 305.22 461.41 320.32 447.52 351 436.06 335.89 449.94 305.22"/><polygon class="cls-30" points="436.06 335.89 447.52 351 424.28 344.23 412.81 329.12 436.06 335.89"/><polygon class="cls-31" points="480.18 314.03 491.65 329.13 461.41 320.32 449.94 305.22 480.18 314.03"/><polygon class="cls-32" points="490.85 290.46 502.32 305.56 491.65 329.13 480.18 314.03 490.85 290.46"/><polygon class="cls-33" points="412.81 329.12 426.7 298.44 396.45 289.63 407.12 266.06 437.37 274.87 451.25 244.2 474.49 250.97 460.61 281.64 490.85 290.46 480.18 314.03 449.94 305.22 436.06 335.89 412.81 329.12"/></g><g class="cls-2"><polygon class="cls-34" points="154.59 348.15 147.14 353.81 151.49 338.9 158.94 333.24 154.59 348.15"/><polygon class="cls-35" points="178 371.72 170.55 377.38 155.43 370.53 162.87 364.88 178 371.72"/><polygon class="cls-36" points="151.25 359.62 143.8 365.27 128.68 358.42 136.12 352.77 151.25 359.62"/><polygon class="cls-37" points="136.12 352.77 128.68 358.42 132.02 346.96 139.46 341.31 136.12 352.77"/><polygon class="cls-38" points="146.91 374.53 139.46 380.18 143.8 365.27 151.25 359.62 146.91 374.53"/><polygon class="cls-39" points="158.53 379.79 151.08 385.44 139.46 380.18 146.91 374.53 158.53 379.79"/><polygon class="cls-40" points="139.46 341.31 154.59 348.15 158.94 333.24 170.56 338.5 166.21 353.42 181.34 360.26 178 371.72 162.87 364.88 158.53 379.79 146.91 374.53 151.25 359.62 136.12 352.77 139.46 341.31"/></g><g class="cls-41"><circle class="cls-42" cx="176.38" cy="349.87" r="24.65"/></g><g class="cls-2"><polygon class="cls-43" points="369.61 237.69 366.46 233.58 374.73 235.95 377.89 240.06 369.61 237.69"/><polygon class="cls-44" points="356.62 250.73 353.46 246.62 357.21 238.22 360.37 242.33 356.62 250.73"/><polygon class="cls-45" points="363.25 235.88 360.1 231.76 363.85 223.36 367 227.47 363.25 235.88"/><polygon class="cls-46" points="367 227.47 363.85 223.36 370.21 225.18 373.36 229.29 367 227.47"/><polygon class="cls-47" points="354.98 233.51 351.82 229.4 360.1 231.76 363.25 235.88 354.98 233.51"/><polygon class="cls-48" points="352.09 239.97 348.94 235.86 351.82 229.4 354.98 233.51 352.09 239.97"/><polygon class="cls-49" points="373.36 229.29 369.61 237.69 377.89 240.06 375.01 246.52 366.73 244.15 362.98 252.55 356.62 250.73 360.37 242.33 352.09 239.97 354.98 233.51 363.25 235.88 367 227.47 373.36 229.29"/></g><g class="cls-50"><circle class="cls-51" cx="265.08" cy="293.26" r="29.8"/><g class="cls-52"><circle class="cls-53" cx="253.48" cy="280.65" r="21.59"/><circle class="cls-54" cx="284.7" cy="313.41" r="21.59"/></g><circle class="cls-55" cx="323.96" cy="311.75" r="14.85"/><g class="cls-56"><circle class="cls-57" cx="318.18" cy="305.47" r="10.75"/><circle class="cls-58" cx="333.73" cy="321.79" r="10.75"/></g><circle class="cls-59" cx="283.2" cy="352.52" r="9.61"/><g class="cls-60"><circle class="cls-61" cx="279.46" cy="348.46" r="6.96"/><circle class="cls-62" cx="289.52" cy="359.02" r="6.96"/></g><circle class="cls-63" cx="612.36" cy="80.01" r="14.85"/><g class="cls-64"><circle class="cls-65" cx="606.58" cy="73.73" r="10.75"/><circle class="cls-66" cx="622.13" cy="90.05" r="10.75"/></g></g><path class="cls-67" d="M210.44,92.85a45.21,45.21,0,1,0,0-63.93A45.21,45.21,0,0,0,210.44,92.85Zm47.33-47.33a21.73,21.73,0,1,1-30.72,0A21.72,21.72,0,0,1,257.77,45.52Z"/></g></g></g></g></svg>