<svg id="visual" viewBox="0 0 900 600" width="900" height="600" xmlns="http://www.w3.org/2000/svg" xmlns:xlink="http://www.w3.org/1999/xlink" version="1.1"><rect x="0" y="0" width="900" height="600" fill="#f3f4f6"></rect><defs><linearGradient id="grad1_0" x1="33.3%" y1="100%" x2="100%" y2="0%"><stop offset="20%" stop-color="#e5e7eb" stop-opacity="1"></stop><stop offset="80%" stop-color="#e5e7eb" stop-opacity="1"></stop></linearGradient></defs><defs><linearGradient id="grad1_1" x1="33.3%" y1="100%" x2="100%" y2="0%"><stop offset="20%" stop-color="#e5e7eb" stop-opacity="1"></stop><stop offset="80%" stop-color="#e8eaed" stop-opacity="1"></stop></linearGradient></defs><defs><linearGradient id="grad1_2" x1="33.3%" y1="100%" x2="100%" y2="0%"><stop offset="20%" stop-color="#ebecef" stop-opacity="1"></stop><stop offset="80%" stop-color="#e8eaed" stop-opacity="1"></stop></linearGradient></defs><defs><linearGradient id="grad1_3" x1="33.3%" y1="100%" x2="100%" y2="0%"><stop offset="20%" stop-color="#ebecef" stop-opacity="1"></stop><stop offset="80%" stop-color="#edeff2" stop-opacity="1"></stop></linearGradient></defs><defs><linearGradient id="grad1_4" x1="33.3%" y1="100%" x2="100%" y2="0%"><stop offset="20%" stop-color="#f0f1f4" stop-opacity="1"></stop><stop offset="80%" stop-color="#edeff2" stop-opacity="1"></stop></linearGradient></defs><defs><linearGradient id="grad1_5" x1="33.3%" y1="100%" x2="100%" y2="0%"><stop offset="20%" stop-color="#f0f1f4" stop-opacity="1"></stop><stop offset="80%" stop-color="#f3f4f6" stop-opacity="1"></stop></linearGradient></defs><defs><linearGradient id="grad2_0" x1="0%" y1="100%" x2="66.7%" y2="0%"><stop offset="20%" stop-color="#e5e7eb" stop-opacity="1"></stop><stop offset="80%" stop-color="#e5e7eb" stop-opacity="1"></stop></linearGradient></defs><defs><linearGradient id="grad2_1" x1="0%" y1="100%" x2="66.7%" y2="0%"><stop offset="20%" stop-color="#e8eaed" stop-opacity="1"></stop><stop offset="80%" stop-color="#e5e7eb" stop-opacity="1"></stop></linearGradient></defs><defs><linearGradient id="grad2_2" x1="0%" y1="100%" x2="66.7%" y2="0%"><stop offset="20%" stop-color="#e8eaed" stop-opacity="1"></stop><stop offset="80%" stop-color="#ebecef" stop-opacity="1"></stop></linearGradient></defs><defs><linearGradient id="grad2_3" x1="0%" y1="100%" x2="66.7%" y2="0%"><stop offset="20%" stop-color="#edeff2" stop-opacity="1"></stop><stop offset="80%" stop-color="#ebecef" stop-opacity="1"></stop></linearGradient></defs><defs><linearGradient id="grad2_4" x1="0%" y1="100%" x2="66.7%" y2="0%"><stop offset="20%" stop-color="#edeff2" stop-opacity="1"></stop><stop offset="80%" stop-color="#f0f1f4" stop-opacity="1"></stop></linearGradient></defs><defs><linearGradient id="grad2_5" x1="0%" y1="100%" x2="66.7%" y2="0%"><stop offset="20%" stop-color="#f3f4f6" stop-opacity="1"></stop><stop offset="80%" stop-color="#f0f1f4" stop-opacity="1"></stop></linearGradient></defs><g transform="translate(900, 600)"><path d="M-540.8 0C-507.9 -60.3 -475 -120.7 -453.6 -187.9C-432.3 -255.1 -422.5 -329.3 -382.4 -382.4C-342.4 -435.6 -272 -467.7 -203.2 -490.6C-134.4 -513.5 -67.2 -527.2 0 -540.8L0 0Z" fill="#f2f3f5"></path><path d="M-450.7 0C-423.3 -50.3 -395.8 -100.5 -378 -156.6C-360.2 -212.6 -352.1 -274.4 -318.7 -318.7C-285.3 -363 -226.7 -389.7 -169.3 -408.8C-112 -427.9 -56 -439.3 0 -450.7L0 0Z" fill="#eff0f3"></path><path d="M-360.6 0C-338.6 -40.2 -316.7 -80.4 -302.4 -125.3C-288.2 -170.1 -281.7 -219.5 -255 -255C-228.2 -290.4 -181.3 -311.8 -135.5 -327.1C-89.6 -342.3 -44.8 -351.4 0 -360.6L0 0Z" fill="#ecedf0"></path><path d="M-270.4 0C-254 -30.2 -237.5 -60.3 -226.8 -93.9C-216.1 -127.6 -211.2 -164.6 -191.2 -191.2C-171.2 -217.8 -136 -233.8 -101.6 -245.3C-67.2 -256.7 -33.6 -263.6 0 -270.4L0 0Z" fill="#e9ebee"></path><path d="M-180.3 0C-169.3 -20.1 -158.3 -40.2 -151.2 -62.6C-144.1 -85 -140.8 -109.8 -127.5 -127.5C-114.1 -145.2 -90.7 -155.9 -67.7 -163.5C-44.8 -171.2 -22.4 -175.7 0 -180.3L0 0Z" fill="#e6e8ec"></path><path d="M-90.1 0C-84.7 -10.1 -79.2 -20.1 -75.6 -31.3C-72 -42.5 -70.4 -54.9 -63.7 -63.7C-57.1 -72.6 -45.3 -77.9 -33.9 -81.8C-22.4 -85.6 -11.2 -87.9 0 -90.1L0 0Z" fill="#e5e7eb"></path></g><g transform="translate(0, 0)"><path d="M540.8 0C524.6 70.5 508.3 141 474.9 196.7C441.5 252.4 390.9 293.3 346.5 346.5C302 399.7 263.7 465.2 207 499.7C150.2 534.1 75.1 537.5 0 540.8L0 0Z" fill="#f2f3f5"></path><path d="M450.7 0C437.1 58.8 423.6 117.5 395.7 163.9C367.9 210.3 325.8 244.4 288.7 288.7C251.7 333.1 219.7 387.7 172.5 416.4C125.2 445.1 62.6 447.9 0 450.7L0 0Z" fill="#eff0f3"></path><path d="M360.6 0C349.7 47 338.9 94 316.6 131.1C294.3 168.3 260.6 195.5 231 231C201.4 266.5 175.8 310.1 138 333.1C100.2 356.1 50.1 358.3 0 360.6L0 0Z" fill="#ecedf0"></path><path d="M270.4 0C262.3 35.3 254.1 70.5 237.4 98.3C220.7 126.2 195.5 146.6 173.2 173.2C151 199.8 131.8 232.6 103.5 249.8C75.1 267.1 37.6 268.7 0 270.4L0 0Z" fill="#e9ebee"></path><path d="M180.3 0C174.9 23.5 169.4 47 158.3 65.6C147.2 84.1 130.3 97.8 115.5 115.5C100.7 133.2 87.9 155.1 69 166.6C50.1 178 25 179.2 0 180.3L0 0Z" fill="#e6e8ec"></path><path d="M90.1 0C87.4 11.8 84.7 23.5 79.1 32.8C73.6 42.1 65.2 48.9 57.7 57.7C50.3 66.6 43.9 77.5 34.5 83.3C25 89 12.5 89.6 0 90.1L0 0Z" fill="#e5e7eb"></path></g></svg>