<svg id="visual" viewBox="0 0 900 600" width="900" height="600" xmlns="http://www.w3.org/2000/svg" xmlns:xlink="http://www.w3.org/1999/xlink" version="1.1"><rect x="0" y="0" width="900" height="600" fill="#4f46e5"></rect><defs><linearGradient id="grad1_0" x1="33.3%" y1="0%" x2="100%" y2="100%"><stop offset="20%" stop-color="#1e1b4b" stop-opacity="1"></stop><stop offset="80%" stop-color="#1e1b4b" stop-opacity="1"></stop></linearGradient></defs><defs><linearGradient id="grad1_1" x1="33.3%" y1="0%" x2="100%" y2="100%"><stop offset="20%" stop-color="#1e1b4b" stop-opacity="1"></stop><stop offset="80%" stop-color="#343095" stop-opacity="1"></stop></linearGradient></defs><defs><linearGradient id="grad1_2" x1="33.3%" y1="0%" x2="100%" y2="100%"><stop offset="20%" stop-color="#4f46e5" stop-opacity="1"></stop><stop offset="80%" stop-color="#343095" stop-opacity="1"></stop></linearGradient></defs><defs><linearGradient id="grad2_0" x1="0%" y1="0%" x2="66.7%" y2="100%"><stop offset="20%" stop-color="#1e1b4b" stop-opacity="1"></stop><stop offset="80%" stop-color="#1e1b4b" stop-opacity="1"></stop></linearGradient></defs><defs><linearGradient id="grad2_1" x1="0%" y1="0%" x2="66.7%" y2="100%"><stop offset="20%" stop-color="#343095" stop-opacity="1"></stop><stop offset="80%" stop-color="#1e1b4b" stop-opacity="1"></stop></linearGradient></defs><defs><linearGradient id="grad2_2" x1="0%" y1="0%" x2="66.7%" y2="100%"><stop offset="20%" stop-color="#343095" stop-opacity="1"></stop><stop offset="80%" stop-color="#4f46e5" stop-opacity="1"></stop></linearGradient></defs><g transform="translate(900, 0)"><path d="M0 486.7C-70.3 449.2 -140.7 411.7 -217 375.9C-293.3 340 -375.6 305.7 -421.5 243.4C-467.5 181 -477.1 90.5 -486.7 0L0 0Z" fill="#413bbc"></path><path d="M0 324.5C-46.9 299.5 -93.8 274.5 -144.7 250.6C-195.5 226.7 -250.4 203.8 -281 162.2C-311.7 120.7 -318.1 60.3 -324.5 0L0 0Z" fill="#29266f"></path><path d="M0 162.2C-23.4 149.7 -46.9 137.2 -72.3 125.3C-97.8 113.3 -125.2 101.9 -140.5 81.1C-155.8 60.3 -159 30.2 -162.2 0L0 0Z" fill="#1e1b4b"></path></g><g transform="translate(0, 600)"><path d="M0 -486.7C89.3 -476.5 178.7 -466.2 243.4 -421.5C308.1 -376.9 348.1 -298 384.5 -222C421 -146 453.9 -73 486.7 0L0 0Z" fill="#413bbc"></path><path d="M0 -324.5C59.6 -317.6 119.1 -310.8 162.2 -281C205.4 -251.3 232 -198.7 256.3 -148C280.6 -97.3 302.6 -48.7 324.5 0L0 0Z" fill="#29266f"></path><path d="M0 -162.2C29.8 -158.8 59.6 -155.4 81.1 -140.5C102.7 -125.6 116 -99.3 128.2 -74C140.3 -48.7 151.3 -24.3 162.2 0L0 0Z" fill="#1e1b4b"></path></g></svg>