<svg width="750" height="548" viewBox="0 0 750 548" fill="none" xmlns="http://www.w3.org/2000/svg">
<path fill-rule="evenodd" clip-rule="evenodd" d="M517.284 2.13011C399.854 -17.1348 411.826 175.707 255.577 149.313C95.7604 122.316 47.9942 312.762 95.7604 417.958C147.351 531.576 477.695 592.654 595.877 508.899C728.891 414.632 737.615 38.2764 517.284 2.13011Z" fill="#33CBFC"/>
<path fill-rule="evenodd" clip-rule="evenodd" d="M256.486 209.158C256.486 209.158 269.97 238.558 281.681 252.187C298.299 271.528 322.03 287.595 330.942 302.679C352.117 338.521 342.725 356.053 342.725 356.053C342.725 356.053 331.538 317.415 315.504 298.544C303.267 284.141 279.23 268.167 271.196 256.338C256.723 235.031 249.246 214.618 249.246 214.618L256.486 209.158Z" fill="white"/>
<path d="M422.955 522.082C367.67 524.664 312.423 528.089 257.242 532.356C250.165 533.054 244.929 533.159 245.209 533.91C240.234 533.594 231.241 530.888 226.013 533.054C229.951 533.968 237.395 537.449 237.837 541.467C185.763 544.471 133.4 542.444 81.7134 535.425C132.321 538.874 183.082 540.058 233.795 538.972C227.26 534.586 218.855 533.093 211.209 534.96C221.065 530.195 232.486 528.742 243.221 530.888C235.03 521.725 229.602 510.124 227.816 497.965C235.998 503.56 242.542 511.522 246.447 520.633C246.073 503.507 258.192 486.867 274.606 481.968C264.124 495.318 258.583 512.46 259.269 529.42C311.672 524.943 364.191 521.812 416.756 520.031C414.161 517.973 412.397 514.897 411.93 511.619C414.5 509.425 418.296 508.78 421.446 510.001C423.759 491.692 436.496 475.065 453.571 468.066C444.061 478.808 437.453 492.096 434.629 506.163C437.563 504.386 441.277 503.955 444.539 505.014C443.61 508.98 441.283 512.605 438.063 515.101C503.148 500.225 571.47 525.569 637.583 516.273C604.209 527.067 568.148 518.699 533.26 515.069C482.189 510.001 433.14 520.031 422.955 522.082Z" fill="white"/>
<path d="M560.672 126.197C561.244 120.749 565.934 116.666 570.744 114.046C579.443 109.306 589.685 107.456 599.493 108.854C603.934 109.487 607.32 105.256 610.493 102.085C618.728 93.8552 631.314 90.8507 642.8 92.7518C654.286 94.6529 664.694 100.998 673.077 109.077C681.46 117.157 688.003 126.933 694.059 136.876C695.329 138.962 698.276 139.018 700.715 138.898C705.979 138.64 711.518 138.785 716.116 141.36C720.714 143.935 723.945 149.65 722.085 154.58C721.213 156.889 719.363 158.729 717.249 160.004C713.033 162.545 707.921 162.983 703.012 163.357C670.277 165.857 637.542 168.357 604.807 170.856C595.851 171.54 586.753 172.216 577.957 170.394C569.161 168.572 560.55 163.884 556.047 156.111C551.544 148.339 552.297 137.267 559.205 131.525C560.664 130.312 560.473 128.084 560.672 126.197" fill="white"/>
<path d="M451.1 176.351C458.245 184.558 495.124 181.684 496.32 196.699C492.095 197.858 487.87 199.017 483.645 200.176C476.776 202.06 469.829 203.976 463.614 207.457C460.698 209.091 457.231 211.11 454.265 209.569C442.797 203.609 429.46 201.757 416.594 202.987C403.728 204.218 391.283 208.41 379.607 213.953C373.512 216.846 366.643 220.188 360.333 217.796C337.299 209.062 311.021 209.215 288.089 218.216C284.024 219.812 279.491 218.041 275.49 216.29C271.162 214.397 266.835 212.503 262.507 210.609C268.088 204.226 291.949 195.345 296.813 189.167C297.668 188.081 329.528 165.987 364.465 175.97C366.031 175.235 420.367 165.987 451.1 176.351Z" fill="white"/>
<path fill-rule="evenodd" clip-rule="evenodd" d="M308.296 280.688C288.038 261.434 264.65 241.943 259.194 214.532C269.207 240.247 291.441 258.759 310.941 278.285C330.441 297.811 348.912 322.167 347.707 349.737C379.591 342.776 412.632 341.145 445.047 344.93C448.37 329.966 458.042 317.368 465.632 304.05C484.446 271.034 490.806 232.599 496.851 195.083C498.38 185.598 486.767 179.976 477.457 177.604C468.159 175.234 458.86 172.865 449.562 170.496C432.087 166.043 413.983 161.559 396.208 164.604C384.189 166.662 372.32 172.139 360.299 170.089C341.165 166.825 320.865 170.958 304.531 181.444C296.319 186.716 289.022 193.549 280.058 197.406C261.193 205.523 244.576 218.795 232.49 235.4C226.176 202.739 236.814 169.314 249.252 138.461C263.155 103.971 280.608 69.0738 310.521 46.9822C354.379 14.5926 411.561 20.8969 457.183 50.7491C502.806 80.6013 530.683 129.828 539.692 183.6C540.74 189.855 541.483 196.624 538.538 202.24C535.594 207.857 534.483 211.106 529.682 206.963C525.59 203.431 521.234 199.768 515.925 198.751C510.615 197.734 504.174 200.493 503.144 205.8C495.605 244.667 487.688 284.521 466.742 318.117C461.288 326.866 454.936 335.22 451.467 344.929C448.813 352.358 447.957 360.289 447.121 368.134C445.378 384.48 443.635 400.826 441.892 417.172C441.158 424.062 440.134 431.565 435.115 436.342C430.322 440.903 423.189 441.723 416.598 442.309C395.195 444.21 373.791 446.111 352.388 448.012C348.56 448.352 344.22 448.525 341.424 445.889C339.27 443.857 338.673 440.711 338.25 437.781C335.243 416.985 335.244 395.757 338.252 374.962C342.568 345.126 329.216 314.6 308.185 293.001C297.225 281.745 284.3 272.543 273.358 261.269C262.416 249.996 253.258 235.827 252.601 220.13C260.047 240.76 273.768 259.079 291.471 272.026C317.928 291.374 336.778 320.852 343.242 352.984C348.324 325.501 328.554 299.943 308.296 280.688Z" fill="white"/>
<path fill-rule="evenodd" clip-rule="evenodd" d="M253.55 343.487C250.34 341.727 249.157 337.78 248.313 334.217C244.172 316.738 241.144 298.995 239.255 281.132C239.135 279.996 239.08 278.684 239.906 277.896C241.677 279.984 241.989 282.9 242.261 285.623C244.214 305.206 247.999 324.606 253.55 343.487Z" fill="#00160A"/>
<path fill-rule="evenodd" clip-rule="evenodd" d="M508.138 283.945C511.048 274.216 513.194 264.258 514.548 254.193C514.731 252.831 515.244 251.116 516.615 251.011C517.415 251.71 517.338 252.956 517.187 254.008C515.897 262.982 514.057 271.877 511.679 280.625C511.196 282.401 509.846 284.631 508.138 283.945H508.138Z" fill="#00160A"/>
<path fill-rule="evenodd" clip-rule="evenodd" d="M433.99 517.839C435.578 513.529 438.485 509.715 442.22 507.043C438.251 507.286 434.39 509.014 431.565 511.814C433.121 499.611 437.024 487.711 442.998 476.957C431.948 486.027 424.815 499.717 423.714 513.971C421.082 512.437 417.798 512.066 414.89 512.975C417.578 516.011 420.267 519.046 422.955 522.082C367.67 524.664 312.423 528.089 257.242 532.356C254.373 517.106 258.103 500.73 267.294 488.228C255.166 496.781 247.679 511.545 247.945 526.384C242.537 519.171 239.843 508.867 231.722 504.745C233.159 511.814 234.819 513.403 244.358 531.663C244.748 532.409 244.929 533.159 245.209 533.91C240.234 533.594 231.241 530.888 226.013 533.054C229.951 533.968 237.395 537.449 237.837 541.467C185.763 544.471 133.4 542.444 81.7134 535.425C132.321 538.874 183.082 540.058 233.795 538.972C227.26 534.586 218.855 533.093 211.209 534.96C221.065 530.195 232.486 528.742 243.221 530.888C235.03 521.725 229.602 510.124 227.816 497.965C235.998 503.56 242.542 511.522 246.447 520.633C246.073 503.507 258.192 486.867 274.606 481.968C264.124 495.318 258.583 512.46 259.269 529.42C311.672 524.943 364.191 521.812 416.756 520.031C414.161 517.973 412.397 514.897 411.93 511.619C414.5 509.425 418.296 508.78 421.446 510.001C423.759 491.692 436.496 475.065 453.571 468.066C444.061 478.808 437.453 492.096 434.629 506.163C437.563 504.386 441.277 503.955 444.539 505.014C443.61 508.98 441.283 512.605 438.063 515.101C503.148 500.225 571.47 525.569 637.583 516.273C604.209 527.067 568.148 518.699 533.26 515.069C500.239 511.633 466.767 512.567 433.99 517.839Z" fill="#00160A"/>
<path fill-rule="evenodd" clip-rule="evenodd" d="M463.296 279.864C464.094 281.038 463.844 282.606 463.522 283.988C461.59 292.287 458.183 300.24 453.51 307.365C452.21 305.744 453.405 303.397 454.499 301.63C457.411 296.93 459.551 291.753 460.807 286.368C461.34 284.083 461.769 281.645 463.296 279.864H463.296Z" fill="#00160A"/>
<path fill-rule="evenodd" clip-rule="evenodd" d="M450.838 294.931C449.635 293.893 450.174 291.962 450.75 290.482C452.6 285.729 453.844 280.74 454.442 275.674C454.64 273.994 454.955 272.017 456.47 271.265C457.183 271.909 457.076 273.038 456.91 273.985C455.655 281.181 454.349 288.526 450.838 294.931Z" fill="#00160A"/>
<path fill-rule="evenodd" clip-rule="evenodd" d="M350.774 321.752C351.126 321.436 351.674 321.76 352.001 322.102C353.465 323.636 354.338 325.72 354.403 327.84C352.444 326.79 351.008 324.814 350.615 322.626C350.56 322.321 350.543 321.958 350.774 321.752L350.774 321.752Z" fill="#00160A"/>
<path fill-rule="evenodd" clip-rule="evenodd" d="M504.944 257.489C504.422 266.729 502.312 275.877 498.735 284.412C498.642 284.633 498.543 284.861 498.361 285.018C497.83 285.476 496.934 284.983 496.744 284.308C496.554 283.632 496.825 282.923 497.082 282.271C499.606 275.883 501.281 269.16 502.048 262.335C502.276 260.306 502.916 257.726 504.944 257.489L504.944 257.489Z" fill="#00160A"/>
<path fill-rule="evenodd" clip-rule="evenodd" d="M347.36 305.817C343.922 301.169 341.157 296.024 339.178 290.592C338.924 289.893 339.079 288.715 339.797 288.909C340.067 288.981 340.227 289.251 340.359 289.498C343.345 295.064 346.33 300.63 349.315 306.196C349.163 307.034 347.866 306.501 347.36 305.817H347.36Z" fill="#00160A"/>
<path fill-rule="evenodd" clip-rule="evenodd" d="M249.472 209.225C247.893 208.405 247.829 206.204 248.019 204.435C251.552 171.464 267.604 139.988 292.217 117.766C292.783 121.95 289.554 125.572 286.691 128.674C266.298 150.765 253.078 179.376 249.472 209.225Z" fill="#00160A"/>
<path fill-rule="evenodd" clip-rule="evenodd" d="M456.38 209.192C456.83 198.367 455.02 186.452 451.1 176.351C458.245 184.558 458.542 196.5 458.466 207.382C469.864 200.603 483.06 196.879 496.32 196.699C492.095 197.858 487.87 199.017 483.645 200.176C476.776 202.06 469.829 203.976 463.614 207.457C460.698 209.091 457.231 211.11 454.265 209.569C442.797 203.609 429.46 201.757 416.594 202.987C403.728 204.218 391.283 209.41 379.607 214.953C373.512 217.846 366.643 221.188 360.333 218.796C337.299 210.062 311.021 209.215 288.089 218.216C284.024 219.812 279.491 218.041 275.49 216.29C271.162 214.397 266.835 212.503 262.507 210.609C267.538 211.665 280.03 216.159 280.03 216.159C280.03 216.159 283.629 216.594 284.762 215.212C285.894 213.83 286.252 211.993 286.66 210.253C288.456 202.598 291.949 195.345 296.813 189.167C297.668 188.081 299.498 187.068 300.179 188.27C293.447 196.073 288.958 205.789 287.381 215.974C311.917 206.719 339.917 207.011 364.255 216.776C366.58 203.31 366.652 189.459 364.465 175.97C366.031 175.235 367.18 177.568 367.334 179.29C368.456 191.835 368.254 204.498 366.734 217.001C380.809 210.201 395.407 204.057 410.841 201.578C426.275 199.098 442.75 201.539 456.38 209.192Z" fill="#00160A"/>
<path fill-rule="evenodd" clip-rule="evenodd" d="M277.478 182.312C284.837 161.254 296.307 141.641 311.053 124.903C312.134 123.676 313.419 122.372 315.054 122.317C316.688 122.261 318.223 124.398 317.069 125.557C300.104 142.614 286.872 163.363 278.563 185.94C277.067 185.979 276.985 183.724 277.478 182.312H277.478Z" fill="#00160A"/>
<path fill-rule="evenodd" clip-rule="evenodd" d="M254.231 277.139C254.446 277.401 254.471 277.766 254.488 278.104C255.194 292.129 258.758 305.833 262.304 319.421C262.455 320.001 261.609 320.42 261.077 320.143C260.545 319.866 260.313 319.242 260.127 318.672C255.992 305.942 253.352 292.727 252.28 279.386C252.227 278.72 252.189 278.003 252.543 277.437C252.898 276.872 253.808 276.623 254.231 277.139H254.231Z" fill="#00160A"/>
<path fill-rule="evenodd" clip-rule="evenodd" d="M365.021 163.253C363.545 163.315 363.063 161.307 363.084 159.83C363.308 144.383 363.532 128.937 363.755 113.491C363.78 111.785 364.242 109.564 365.937 109.376C367.444 111.141 367.412 113.708 367.3 116.027C366.541 131.769 365.781 147.511 365.021 163.253Z" fill="#00160A"/>
<path fill-rule="evenodd" clip-rule="evenodd" d="M507.246 186.893C510.519 181.579 510.298 174.892 509.747 168.675C508.781 157.786 507.123 146.958 504.788 136.279C504.564 135.255 504.43 133.965 505.292 133.369C506.005 132.877 507.046 133.217 507.604 133.879C508.162 134.542 508.357 135.428 508.529 136.276C511.208 149.553 512.427 163.124 512.159 176.665C512.06 181.7 511.235 187.608 506.815 190.022C505.965 189.247 506.643 187.871 507.246 186.893H507.246Z" fill="#00160A"/>
<path fill-rule="evenodd" clip-rule="evenodd" d="M455.403 151.106C456.514 156.044 456.043 161.325 454.075 165.987C452.723 164.535 453.103 162.258 453.337 160.288C454.246 152.637 451.567 145.017 448.272 138.051C444.977 131.086 440.996 124.36 439.016 116.914C438.718 115.794 438.764 114.171 439.906 113.973C440.871 113.806 441.528 114.897 441.888 115.808C445.59 125.188 449.293 134.568 452.995 143.947C453.921 146.292 454.85 148.647 455.403 151.106Z" fill="#00160A"/>
<path fill-rule="evenodd" clip-rule="evenodd" d="M555.672 123.197C556.244 117.749 560.934 113.666 565.744 111.046C574.443 106.306 584.685 104.456 594.493 105.854C598.934 106.487 602.32 102.256 605.493 99.0849C613.728 90.8552 626.314 87.8507 637.8 89.7518C649.286 91.6529 659.694 97.9979 668.077 106.077C676.46 114.157 683.003 123.933 689.059 133.876C690.329 135.962 693.276 136.018 695.715 135.898C700.979 135.64 706.518 135.785 711.116 138.36C715.714 140.935 718.945 146.65 717.085 151.58C716.213 153.889 714.363 155.729 712.249 157.004C708.033 159.545 702.921 159.983 698.012 160.357C665.277 162.857 632.542 165.357 599.807 167.856C590.851 168.54 581.753 169.216 572.957 167.394C564.161 165.572 555.55 160.884 551.047 153.111C546.544 145.339 547.297 134.267 554.205 128.525C555.664 127.312 555.473 125.084 555.672 123.197M568.072 112.735C564.154 114.603 560.242 117.352 558.952 121.497C558.492 122.973 558.397 124.542 557.97 126.028C556.863 129.883 553.674 132.777 551.991 136.417C548.484 144.006 552.481 153.443 559.169 158.46C565.856 163.478 574.517 164.969 582.857 165.556C612.873 167.67 642.719 160.054 672.8 159.297C684.615 158.999 696.807 159.703 707.859 155.517C712.043 153.933 716.64 149.924 714.844 145.827C714.391 144.792 713.574 143.962 712.717 143.225C707.425 138.674 699.847 136.933 693.1 138.718C689.659 139.628 686.785 136.138 684.901 133.118C676.703 119.98 667.422 106.884 654.178 98.8577C640.934 90.8311 622.775 89.0759 610.456 98.4595C604.92 102.676 599.771 109.228 592.851 108.494C584.412 107.599 575.733 109.085 568.072 112.735Z" fill="#00160A"/>
<path fill-rule="evenodd" clip-rule="evenodd" d="M109.654 74.2395C108.549 77.6874 109.942 81.3979 111.451 84.6887C113.205 88.5131 116.089 92.8273 120.288 92.5621C133.256 91.7432 146.223 90.9242 159.191 90.1053C161.069 89.9866 163.654 90.4764 163.665 92.3589C147.404 93.6605 131.143 94.9621 114.882 96.2636C103.943 97.1391 92.5058 98.1765 83.2699 104.102C74.0339 110.027 68.0136 122.521 72.9956 132.298C74.8833 136.003 78.588 139.099 82.7439 138.976C93.9445 138.642 105.145 138.309 116.345 137.975C118.955 137.897 122.526 138.721 122.409 141.329C104.61 140.266 86.7049 140.97 69.0437 143.427C62.7029 144.31 56.1805 145.5 50.8631 149.065C45.5458 152.63 41.7251 159.175 43.214 165.402C44.2416 169.699 47.6079 173.151 51.5007 175.241C55.3935 177.331 59.8 178.237 64.1576 178.969C110.368 186.728 157.775 177.653 204.51 181.042C209.739 181.422 215.4 182.156 219.124 185.846C178.804 178.107 137.224 186.743 96.2137 184.803C87.0856 184.371 77.9913 183.414 68.9031 182.458C61.4644 181.675 53.6707 180.765 47.5341 176.488C44.5815 174.431 42.1065 171.588 40.8713 168.208C37.8115 159.833 43.2112 150.267 50.8199 145.619C58.4286 140.972 67.6615 140.052 76.5405 139.245C69.2837 134.279 67.1261 123.82 70.2658 115.606C73.4054 107.393 80.8731 101.404 89.0577 98.1898C97.2423 94.9756 106.16 94.1992 114.943 93.7856C112.353 90.3929 109.724 86.9304 108.276 82.915C106.828 78.8996 106.721 74.17 109.032 70.5808C110.638 68.0847 113.215 66.3952 115.786 64.9116C140.381 50.7201 170.112 49.0724 198.499 49.7761C206.212 49.9674 214.177 50.3673 221.114 53.7456C231.876 58.9864 238.417 71.104 238.482 83.0736C238.547 95.0433 232.756 106.593 224.243 115.008C222.876 113.114 224.585 110.596 226.083 108.803C233.018 100.502 236.958 89.4336 235.482 78.7178C234.007 68.0021 226.655 57.9791 216.406 54.5207C212.123 53.0756 207.551 52.7703 203.037 52.5403C173.683 51.0447 142.92 52.5809 117.212 66.8269C114.047 68.5806 110.757 70.7939 109.654 74.2395Z" fill="#00160A"/>
<path fill-rule="evenodd" clip-rule="evenodd" d="M308.296 280.688C288.038 261.434 264.65 241.943 259.194 214.532C269.207 240.247 291.441 258.759 310.941 278.285C330.441 297.811 348.912 322.167 347.707 349.737C379.591 342.776 412.632 341.145 445.047 344.93C448.37 329.966 458.042 317.368 465.632 304.05C484.446 271.034 490.806 232.599 496.851 195.083C498.38 185.598 486.767 179.976 477.457 177.604C468.159 175.234 458.86 172.865 449.562 170.496C432.087 166.043 413.983 161.559 396.208 164.604C384.189 166.662 372.32 172.139 360.299 170.089C341.165 166.825 320.865 170.958 304.531 181.444C296.319 186.716 289.097 193.879 280.058 197.406C260.486 205.041 249.246 214.289 232.49 235.4C226.176 202.739 236.814 169.314 249.252 138.461C263.155 103.97 280.608 69.0738 310.521 46.9821C354.379 14.5925 418.561 17.8969 464.183 47.7491C509.806 77.6012 537.683 129.828 546.692 183.6C547.74 189.855 548.483 196.624 545.538 202.24C542.594 207.857 534.483 211.106 529.682 206.963C525.59 203.431 521.234 199.768 515.925 198.751C510.615 197.734 504.174 200.493 503.144 205.8C495.605 244.667 487.688 284.521 466.742 318.117C461.288 326.866 454.936 335.22 451.467 344.929C448.813 352.358 447.957 360.289 447.121 368.134C445.378 384.48 443.635 400.826 441.892 417.172C441.158 424.062 440.134 431.564 435.115 436.342C430.322 440.903 423.189 441.723 416.598 442.309C395.195 444.21 373.791 446.111 352.388 448.012C348.56 448.352 344.22 448.525 341.424 445.889C339.27 443.857 338.673 440.711 338.25 437.781C335.243 416.985 335.244 395.757 338.252 374.962C342.568 345.126 329.216 314.6 308.185 293.001C297.225 281.744 284.3 272.543 273.358 261.269C262.416 249.996 253.258 235.826 252.601 220.13C260.047 240.76 273.768 259.079 291.471 272.026C317.928 291.374 336.778 320.852 343.242 352.984C348.324 325.501 328.554 299.943 308.296 280.688ZM353.734 166.297C362.342 167.137 371.357 169.277 379.39 166.073C401.024 157.445 426.118 157.901 447.424 167.31C456.516 171.326 466.752 171.547 476.543 173.261C486.335 174.974 496.671 178.881 501.657 187.481C507.255 197.138 523.707 194.469 530.082 203.631C532.726 207.431 539.23 205.983 541.733 202.089C544.236 198.195 543.899 193.183 543.339 188.588C538.784 151.185 525.086 114.512 501.447 85.1697C477.808 55.8276 443.897 34.2506 406.693 28.2851C369.488 22.3196 329.344 32.8649 301.808 58.5847C285.141 74.1519 273.582 94.3474 263.424 114.767C245.733 150.33 231.252 189.156 234.109 228.773C245.983 214.406 258.881 199.331 276.689 193.83C280.942 192.516 285.601 191.672 288.829 188.607C305.937 172.362 330.253 164.003 353.734 166.297ZM372.762 411.423C372.697 420.974 374.128 430.534 376.987 439.648C377.231 440.426 377.533 441.263 378.225 441.695C378.897 442.114 379.754 442.034 380.541 441.94C390.112 440.795 399.683 439.651 409.254 438.506C409.605 438.464 409.997 438.4 410.207 438.115C410.425 437.82 410.359 437.411 410.282 437.052C408.56 428.955 406.837 420.859 405.114 412.763C405.017 412.307 404.907 411.826 404.585 411.489C404.19 411.075 403.576 410.978 403.009 410.906C393.607 409.716 384.111 409.273 374.639 409.582C374.085 409.601 373.464 409.651 373.1 410.07C372.788 410.429 372.766 410.947 372.762 411.423ZM403.138 377.674C402.823 377.244 402.226 377.158 401.695 377.111C392.045 376.257 382.308 376.397 372.687 377.528C372.129 377.593 371.539 377.676 371.108 378.035C370.401 378.623 370.395 379.686 370.45 380.604C370.771 386.055 371.092 391.505 371.413 396.955C371.491 398.286 372.009 400.042 373.341 399.976C382.777 399.502 392.254 399.848 401.63 401.008C402.92 401.168 403.418 399.387 403.416 398.087C403.405 391.665 403.394 385.242 403.383 378.819C403.382 378.422 403.372 377.995 403.138 377.674ZM343.319 414.703C342.591 415.034 341.845 415.404 341.352 416.034C340.566 417.035 340.6 418.432 340.67 419.703C340.917 424.164 341.164 428.624 341.411 433.085C341.536 435.343 341.669 437.637 342.434 439.765C343.199 441.892 344.702 443.867 346.821 444.654C348.567 445.303 350.5 445.085 352.349 444.857C355.848 444.428 359.347 443.998 362.846 443.568C364.283 443.392 365.771 443.198 367 442.434C363.721 432.474 361.541 422.152 360.514 411.716C360.443 410.985 359.46 410.814 358.727 410.86C353.415 411.195 348.166 412.504 343.319 414.703ZM437.463 402.758C438.499 396.356 439.535 389.953 440.571 383.55C440.662 382.989 440.739 382.362 440.409 381.899C440.074 381.429 439.444 381.301 438.874 381.209C431.289 379.991 423.684 378.891 416.065 377.911C415.493 377.837 414.799 377.815 414.469 378.288C414.272 378.57 414.279 378.941 414.293 379.285C414.569 385.96 414.844 392.635 415.12 399.31C415.145 399.92 415.202 400.601 415.658 401.006C415.98 401.292 416.43 401.372 416.855 401.441C423.252 402.474 429.648 403.507 436.045 404.54C436.883 404.675 437.327 403.596 437.463 402.758ZM370.967 364.987C370.829 365.725 370.782 366.669 371.439 367.031C371.754 367.205 372.137 367.175 372.495 367.141C382.526 366.177 392.556 365.214 402.587 364.25C403.104 364.201 403.651 364.14 404.068 363.83C404.636 363.408 404.81 362.647 404.944 361.952C405.762 357.722 406.579 353.491 407.397 349.261C407.513 348.659 407.584 347.925 407.106 347.542C406.772 347.275 406.3 347.297 405.873 347.333C396.258 348.138 386.642 348.943 377.026 349.748C376.241 349.813 375.421 349.89 374.757 350.314C373.632 351.031 373.293 352.49 373.049 353.801C372.355 357.53 371.661 361.258 370.967 364.987ZM416.158 351.073C415.783 354.74 415.407 358.408 415.031 362.075C414.969 362.68 414.916 363.327 415.21 363.858C415.645 364.643 416.646 364.871 417.531 365.02C425.579 366.376 433.628 367.731 441.676 369.087C442.01 369.143 442.366 369.197 442.677 369.064C443.27 368.809 443.402 368.042 443.445 367.398C443.765 362.665 443.837 357.915 443.66 353.174C443.63 352.357 443.587 351.519 443.254 350.772C442.245 348.506 439.244 348.13 436.763 348.08C430.953 347.961 425.143 347.843 419.333 347.725C418.731 347.713 418.1 347.707 417.566 347.987C416.52 348.535 416.279 349.898 416.158 351.073ZM501.841 195.065C497.688 200.479 496.549 207.547 495.494 214.289C490.158 248.392 483.24 283.284 464.475 312.255C458.046 322.18 450.034 331.979 449.125 343.769C452.665 331.496 462.468 322.207 469.198 311.349C474.135 303.383 477.43 294.522 480.448 285.649C487.732 264.23 493.597 242.329 497.99 220.136C499.569 212.157 501.127 203.764 506.265 197.458C504.52 197.441 502.81 196.515 501.841 195.065ZM357.845 401.247C358.403 401.102 359.001 400.932 359.364 400.484C359.752 400.003 359.77 399.332 359.769 398.713C359.762 392.828 359.754 386.943 359.747 381.058C359.747 380.634 359.734 380.174 359.465 379.846C359.08 379.375 358.367 379.392 357.762 379.458C353.092 379.969 348.467 380.888 343.957 382.202C343.428 382.356 342.874 382.532 342.498 382.935C342.066 383.398 341.955 384.067 341.869 384.694C340.992 391.048 340.642 397.475 340.823 403.887C340.838 404.41 340.914 405.03 341.379 405.27C341.7 405.437 342.088 405.349 342.438 405.258C347.574 403.921 352.71 402.584 357.845 401.247ZM433.063 432.952C436.464 428.863 436.494 423.029 436.354 417.713C436.327 416.678 435.109 416.165 434.104 415.917C428.73 414.592 423.27 413.613 417.77 412.989C417.289 412.934 416.761 412.893 416.36 413.164C415.747 413.579 415.753 414.467 415.833 415.203C416.578 422.067 418.003 428.857 420.081 435.441C420.322 436.206 420.639 437.047 421.364 437.391C421.754 437.576 422.203 437.582 422.634 437.57C426.551 437.457 430.557 435.964 433.063 432.952ZM350.886 353.788C349.55 354.172 348.187 354.623 347.135 355.532C346.137 356.394 345.501 357.601 345.007 358.825C343.437 362.711 343.08 366.964 342.74 371.142C342.714 371.461 342.697 371.813 342.892 372.067C343.184 372.448 343.763 372.397 344.235 372.309C348.306 371.546 352.376 370.783 356.447 370.019C357.606 369.802 358.889 369.507 359.547 368.528C359.994 367.862 360.05 367.017 360.091 366.216C360.341 361.407 360.59 356.597 360.839 351.788C357.474 352.182 354.142 352.851 350.886 353.788ZM373.738 374.381C382.628 373.419 391.609 373.3 400.521 374.028C401.532 374.111 402.642 374.178 403.461 373.58C404.743 372.642 404.57 370.711 404.264 369.152C404.184 368.745 404.092 368.315 403.807 368.014C403.353 367.533 402.596 367.553 401.937 367.609C393.04 368.355 384.143 369.101 375.247 369.847C374.019 369.95 372.709 370.085 371.756 370.865C370.803 371.646 370.495 373.319 371.476 374.062C372.099 374.534 372.962 374.465 373.738 374.381ZM441.472 373.674C440.403 372.581 438.794 372.261 437.289 371.993C430.631 370.81 423.973 369.627 417.315 368.444C416.446 368.29 415.379 368.209 414.856 368.92C414.628 369.23 414.565 369.627 414.508 370.008C414.225 371.902 414.458 374.54 416.357 374.79C423.925 375.787 431.493 376.784 439.062 377.781C439.812 377.88 440.618 377.97 441.288 377.618C442.642 376.908 442.541 374.767 441.472 373.674ZM364.772 411.236C364.321 412.475 364.547 413.845 364.781 415.142C366.215 423.074 367.774 430.985 369.558 438.846C369.799 439.905 370.065 441.008 370.769 441.835C371.473 442.662 372.757 443.104 373.674 442.523C375.053 441.65 374.544 439.561 373.951 438.04C370.889 430.187 370.019 421.663 369.596 413.244C369.522 411.766 369.237 409.962 367.848 409.452C366.611 408.997 365.223 409.997 364.772 411.236ZM435.699 412.699C437.312 412.084 436.197 409.334 437.35 408.05C430.657 406.381 423.833 405.236 416.962 404.629C415.341 404.486 414.59 406.929 415.555 408.239C416.52 409.548 418.284 409.921 419.887 410.198C421.332 410.448 422.777 410.698 424.222 410.948C427.614 411.535 431.007 412.121 434.399 412.708C434.832 412.783 435.289 412.855 435.699 412.699ZM375.315 406.682C383.622 406.195 391.975 406.507 400.221 407.614C401.868 407.835 404.154 407.641 404.375 405.994C404.603 404.289 402.305 403.54 400.588 403.455C392.242 403.04 383.879 402.981 375.529 403.28C374.05 403.333 372.022 404.083 372.412 405.511C372.711 406.605 374.183 406.749 375.315 406.682ZM407.206 378.681C406.816 379.494 406.806 380.431 406.802 381.332C406.784 386.42 406.766 391.507 406.748 396.594C406.744 397.722 406.749 398.893 407.223 399.917C407.697 400.941 408.783 401.774 409.894 401.578C411.738 401.252 412.079 398.783 411.977 396.914C411.681 391.502 411.385 386.089 411.09 380.677C411.017 379.346 410.669 377.673 409.364 377.401C408.481 377.217 407.596 377.867 407.206 378.681ZM412.882 413.881C412.513 412.816 411.66 411.835 410.543 411.681C409.427 411.527 408.196 412.529 408.41 413.635C409.718 420.372 411.027 427.109 412.335 433.845C412.641 435.423 413.063 437.178 414.424 438.033C415.785 438.888 418.151 437.742 417.642 436.217C415.576 430.033 413.494 423.74 413.275 417.224C413.237 416.098 413.251 414.945 412.882 413.881ZM367.354 399.509C367.961 398.424 367.913 397.106 367.848 395.864C367.622 391.53 367.396 387.197 367.171 382.864C367.1 381.518 366.983 380.054 366.073 379.06C365.162 378.066 363.165 378.058 362.728 379.333C362.611 379.672 362.623 380.039 362.635 380.397C362.842 386.195 363.049 391.992 363.255 397.79C363.291 398.795 363.4 399.946 364.216 400.535C365.223 401.263 366.746 400.594 367.354 399.509ZM364.237 352.087C363.085 353.679 363.033 355.787 363.026 357.751C363.016 360.458 363.006 363.164 362.996 365.871C362.991 367.322 363.522 369.303 364.966 369.162C366.096 369.052 366.547 367.671 366.735 366.552C367.579 361.527 368.423 356.502 369.267 351.477C368.083 349.91 365.388 350.496 364.237 352.087ZM356.314 408.541C357.503 408.435 358.828 408.333 359.63 407.45C360.433 406.567 359.932 404.684 358.749 404.846C355.1 405.346 351.45 405.846 347.8 406.346C345.907 406.606 343.898 406.916 342.456 408.169C341.014 409.422 340.537 411.969 342.013 413.182C346.351 410.589 351.28 408.99 356.314 408.541ZM343.009 375.861C341.918 376.9 341.723 378.989 343.013 379.767C347.191 378.372 351.519 377.425 355.898 376.947C356.977 376.829 358.122 376.716 358.986 376.06C359.851 375.404 360.232 373.986 359.45 373.234C358.833 372.64 357.851 372.727 357.005 372.854C353.73 373.345 350.455 373.836 347.18 374.327C345.691 374.55 344.1 374.821 343.009 375.861ZM411.275 347.895C410.89 348.306 410.773 348.893 410.672 349.448C409.903 353.678 409.134 357.908 408.365 362.138C408.226 362.903 408.14 363.827 408.736 364.325C409.345 364.833 410.339 364.521 410.82 363.889C411.301 363.257 411.406 362.426 411.494 361.637C411.971 357.397 412.448 353.156 412.924 348.916C412.967 348.535 412.998 348.109 412.761 347.808C412.412 347.366 411.66 347.484 411.275 347.895ZM409.837 403.919C408.237 403.724 406.685 405.768 407.683 407.034C408.381 407.92 409.2 408.824 410.302 409.065C411.403 409.306 412.773 408.504 412.667 407.381C412.516 405.776 411.437 404.115 409.837 403.919ZM410.47 371.446C411.01 370.15 411.139 368.077 409.745 367.915C409.2 367.851 408.684 368.186 408.31 368.588C406.573 370.453 407.471 374.014 409.884 374.834C410.658 373.941 410.931 372.64 410.58 371.512C410.196 370.277 409.974 372.64 410.47 371.446ZM367.266 373.82C366.941 372.626 365.95 371.503 364.712 371.491C363.109 371.475 362.059 373.752 363.113 374.961C364.167 376.17 366.566 375.442 366.769 373.851C366.949 372.441 367.639 375.191 367.266 373.82ZM368.244 406.637C368.625 406.313 368.898 405.865 369.012 405.378C367.956 404.198 366.106 403.816 364.669 404.481C364.351 404.629 364.043 404.832 363.862 405.132C363.345 405.992 364.203 407.148 365.193 407.312C366.183 407.476 367.153 406.993 368.041 406.525L368.244 406.637Z" fill="#00160A"/>
</svg>
