<svg width="750" height="516" viewBox="0 0 750 516" fill="none" xmlns="http://www.w3.org/2000/svg">
<path fill-rule="evenodd" clip-rule="evenodd" d="M404.97 515.853C539.568 515.853 558.648 455.973 579.057 444.969C599.465 433.966 586.777 411.883 600.162 395.228C621.542 368.623 634.5 382.334 641.576 347.82C648.652 313.307 635.788 303.543 635.788 272.729C635.788 210.993 665.362 181.769 627.595 149.467C589.828 117.166 526.76 120.977 464.384 120.977C348.608 120.977 279.249 -37.7336 124.831 9.88143C71.6159 26.2906 77.4973 48.6525 89.1903 127.679C94.268 161.995 55.9298 205.626 62.5816 244.624C74.7304 315.849 106.816 306.187 167.354 354.276C177.51 362.344 192.323 362.26 203.395 370.535C221.958 384.407 223.151 405.977 257.854 420.526C313.811 443.986 309.064 515.853 404.97 515.853Z" fill="#20E595"/>
<ellipse cx="147.657" cy="332" rx="34.0298" ry="32" fill="white"/>
<path fill-rule="evenodd" clip-rule="evenodd" d="M134.311 217.906C128.51 203.418 133.578 194.738 136.826 183.406C139.539 173.941 160.758 158.565 170.523 174.597C173.396 179.314 172.243 183.772 178.522 187.917C193.722 197.952 185.43 177.134 185.995 171.871C186.271 169.304 184.102 163.383 184.909 160.906C185.757 158.306 190.273 154.613 190.273 149.224C190.273 143.836 181.087 141.76 178.522 140.436C155.734 128.671 141.242 109.019 148.464 99.0456C158.527 85.15 197.962 107.013 209.812 109.019C209.965 109.045 212.081 97.9976 213.81 95.468C217.268 90.4069 221.09 85.494 225.65 81.3971C227.692 79.5619 230.46 78.4291 233.182 78.0619C241.325 76.9631 249.656 76.0621 257.813 77.0573C260.695 77.4089 277.86 57.5431 284.553 51.1351C335.903 1.97022 438.84 61.8826 382.73 143.295C372.417 158.258 359.23 163.016 357.526 168.305C353.743 180.052 377.559 178.507 387.647 179.762C404.881 181.905 413.376 190.759 402.677 205.933C396.012 215.386 356.912 214.904 339.785 208.068C333.428 205.531 325.572 194.437 319.564 203.538C315.424 209.808 299.283 223.11 281.969 230.635C274.154 234.032 265.252 231.985 258.583 235.018C249.196 239.288 221.483 257.215 209.812 257.21C198.057 257.206 182.846 243.06 181.087 242.132C178.404 240.718 157.655 236.664 147.404 220.846C144.305 216.063 136.435 223.21 134.311 217.906Z" fill="white"/>
<ellipse cx="333.893" cy="133.917" rx="3.60483" ry="3.55329" fill="#FFB61D"/>
<circle cx="307.5" cy="126.5" r="3.5" fill="#FFB61D"/>
<circle cx="562.5" cy="123.5" r="47.5" fill="white"/>
<ellipse cx="413.975" cy="392.971" rx="138.025" ry="117.971" fill="white"/>
<path fill-rule="evenodd" clip-rule="evenodd" d="M296.962 457.295L298.511 458.417C295.014 461.554 289.755 457.653 286.806 453.997C282.064 448.117 277.252 441.869 275.809 434.455C274.988 430.236 275.316 425.889 275.648 421.604L276.986 404.326C277.578 396.669 278.173 388.999 279.498 381.435C283.085 360.964 292.115 341.471 305.41 325.497L305.543 325.337C307.891 322.517 310.455 319.438 310.41 315.782C310.314 308.048 314.768 300.82 320.617 295.757C326.465 290.694 333.626 287.445 340.677 284.265C343.871 282.824 348.042 281.533 350.518 284.013C355.61 289.114 364.108 285.865 370.834 283.274C379.092 280.093 387.913 278.379 396.761 278.236C397.018 278.232 397.278 278.229 397.539 278.225L397.539 278.225C402.852 278.149 408.831 278.064 412.072 273.948C414.136 271.327 418.082 271.479 421.394 271.875L444.173 274.6C445.914 274.808 448 275.283 448.549 276.948C450.02 281.413 455.211 283.234 459.711 284.591C475.711 289.415 491.35 295.965 504.933 305.699C518.516 315.433 529.996 328.528 536.088 344.089C526.184 330.551 516.023 316.759 502.277 307.145C498.344 304.394 494.16 302.018 489.913 299.78C479.89 294.496 469.459 289.942 458.622 286.634C408.316 271.279 350.124 285.52 312.594 322.371C307.153 327.714 302.051 333.599 298.964 340.573L303.041 341.838C296.58 344.726 291.78 351.053 290.742 358.054C293.342 353.601 297.048 349.798 301.434 347.084C300.179 351.277 296.914 354.647 293.714 357.95C289.635 362.159 285.661 366.26 286.082 371.823C288.019 366.741 292.897 362.904 298.293 362.221C289.735 370.582 280.551 380.396 280.824 392.358C283.946 385.45 289.246 379.547 295.779 375.703L286.374 388.341C282.818 393.121 279.072 398.582 279.885 404.484C282.979 398.931 287.403 394.125 292.681 390.583C290.14 396.363 286.511 401.663 282.041 406.123C286.291 405.61 290.384 403.849 293.68 401.116C292.298 403.045 291.053 405.221 291.007 407.594C290.96 409.966 292.497 412.511 294.845 412.853C295.556 411.263 297.785 410.592 299.255 411.525C294.799 415.86 294.753 423.893 299.159 428.279C299.551 426.218 301.29 424.48 303.351 424.09C300.065 429.836 299.474 437.052 301.782 443.256C302.48 439.741 304.431 436.488 307.202 434.216C305.604 442.554 302.072 450.515 296.962 457.295ZM295.015 454.639C297.797 454.61 299.528 451.498 299.818 448.731C300.165 445.42 299.343 442.111 298.527 438.884L293.687 419.742C292.776 420.03 292.67 421.021 292.56 422.059C292.465 422.945 292.367 423.865 291.761 424.412C290.536 422.888 290.397 420.582 291.43 418.922C292.473 417.246 291.79 414.9 290.311 413.594C288.831 412.288 286.773 411.844 284.8 411.779C283.734 411.744 282.6 411.826 281.728 412.44C280.855 413.054 280.396 414.359 281.016 415.227C282.861 417.811 284.248 420.721 285.096 423.781C285.159 424.01 285.22 424.241 285.282 424.474C285.703 426.063 286.137 427.696 287.299 428.829C288.197 429.704 288.426 431.04 288.609 432.281L290.088 442.34C290.357 444.171 290.626 446.038 290.318 447.863C290.01 449.687 289.024 451.496 287.369 452.325L292.654 454.122C293.42 454.383 294.205 454.647 295.015 454.639ZM352.62 289.771C351.578 289.991 350.705 289.076 349.959 288.295L349.874 288.205C349.109 287.406 347.796 286.71 346.991 287.467C337.611 296.292 326.937 303.738 315.417 309.494C313.326 310.538 313.045 313.355 313.044 315.693C313.043 316.473 313.791 317.569 314.278 316.959C316.653 313.983 319.742 311.672 322.795 309.396C331.386 302.991 340.079 296.527 349.927 292.304C351.122 291.791 352.521 291.067 352.62 289.771ZM446.893 279.846C446.361 278.599 444.85 278.149 443.517 277.898C439.887 277.214 436.192 276.904 432.5 276.595C427.43 276.169 422.367 275.745 417.488 274.353C415.925 273.907 414.589 275.49 413.732 276.872C416.303 276.604 418.89 276.493 421.475 276.541C425.973 276.624 430.448 277.184 434.912 277.744C437.181 278.028 439.465 278.316 441.641 279.02C441.894 279.102 442.149 279.189 442.406 279.277L442.406 279.277C443.892 279.787 445.427 280.315 446.893 279.846ZM398.871 299.02C399.899 299.255 400.878 300.023 401.032 301.066C401.185 302.107 400.474 303.121 399.565 303.651C398.657 304.181 397.583 304.33 396.54 304.468L393.401 304.883C393.086 304.925 392.762 304.97 392.489 305.132C391.7 305.599 391.754 306.865 392.399 307.517C393.045 308.168 394.034 308.33 394.951 308.328C399.221 308.32 403.264 305.247 404.568 301.181C404.878 300.216 405.042 299.142 404.658 298.203C404.463 297.727 404.138 297.314 403.777 296.948C402.097 295.246 399.595 294.496 397.21 294.664C394.825 294.833 392.556 295.849 390.615 297.245C389.685 297.915 388.799 298.698 388.27 299.715C387.742 300.732 387.628 302.024 388.22 303.005C388.445 303.38 388.794 303.711 389.225 303.782C389.656 303.852 390.154 303.574 390.208 303.14C390.357 301.934 391.237 300.915 392.286 300.302C393.335 299.689 394.544 299.42 395.736 299.181C396.77 298.974 397.843 298.785 398.871 299.02ZM314.717 358.668C315.89 351.728 321.496 346.086 328.031 343.471C331.632 342.03 335.753 341.399 339.375 342.787C340.269 343.129 341.134 343.602 341.778 344.31C342.383 344.976 342.764 345.815 343.051 346.667C344.891 352.125 343.024 358.436 339.071 362.624C335.118 366.813 329.362 369.01 323.618 369.422C321.777 369.554 319.801 369.48 318.281 368.434C316.761 367.388 316.007 365.064 317.177 363.638C317.73 363.664 318.029 364.158 318.334 364.663C318.485 364.914 318.638 365.167 318.825 365.368C319.463 366.055 320.518 366.104 321.454 366.065C325.528 365.893 329.663 364.884 332.978 362.511C336.293 360.139 338.676 356.264 338.606 352.187C338.583 350.874 338.298 349.53 337.554 348.448C336.332 346.671 334.023 345.869 331.871 346.011C329.72 346.153 327.703 347.107 325.871 348.244C323.46 349.74 321.232 351.621 319.721 354.022C318.21 356.424 317.471 359.392 318.11 362.157C317.545 363.175 315.867 362.972 315.173 362.036C314.479 361.1 314.523 359.817 314.717 358.668ZM352.23 415.869C349.25 417.787 346.779 420.788 346.319 424.301C345.947 427.144 346.9 429.975 347.839 432.684C348.572 434.799 349.329 436.958 350.725 438.707C353.246 441.866 357.42 443.173 361.41 443.814C362.497 443.989 364.145 443.498 363.758 442.468C359.545 442.391 355.402 440.438 352.66 437.239C349.919 434.04 348.624 429.646 349.193 425.471C349.312 424.593 349.513 423.719 349.881 422.913C350.628 421.282 352.019 420.028 353.525 419.055C356.767 416.96 360.714 415.979 364.56 416.311C368.267 416.631 371.971 418.256 374.235 421.21C376.498 424.164 377.038 428.522 375.04 431.663C374.716 432.173 374.479 433.076 375.074 433.182C378.289 431.45 380.074 427.63 379.894 423.982C379.714 420.334 377.787 416.92 375.141 414.403C373.677 413.011 371.943 411.835 369.979 411.362C367.39 410.738 364.681 411.382 362.106 412.059C358.678 412.961 355.21 413.952 352.23 415.869ZM498.589 420.4C487.812 416.377 476.102 414.877 464.66 416.055C459.862 416.549 455.048 417.528 450.735 419.687C442.596 423.76 436.777 432.145 435.809 441.195C434.841 450.244 438.754 459.671 445.847 465.374C448.537 467.536 451.59 469.155 454.647 470.777C456.734 471.884 458.823 472.992 460.799 474.274C461.364 474.814 460.093 475.352 459.35 475.112C452.438 472.881 445.726 469.488 440.796 464.154C434.798 457.666 431.872 448.452 433.029 439.692C434.186 430.932 439.403 422.794 446.88 418.085C452.794 414.361 459.865 412.792 466.849 412.54C473.834 412.288 480.798 413.286 487.704 414.356C492.018 415.024 497.076 416.306 498.589 420.4ZM385.198 433.903C384.709 432.782 382.742 432.489 382.382 433.659C380.096 441.098 372.837 446.723 365.063 447.079C363.306 447.16 361.547 446.996 359.796 446.827C356.025 446.462 352.136 446.031 348.834 444.174C344.085 441.504 341.227 436.022 341.194 430.574C341.16 425.126 343.744 419.832 347.668 416.052C347.123 414.527 344.785 415.264 343.624 416.392C337.188 422.647 336.084 433.444 340.6 441.199C345.115 448.955 354.578 453.302 363.498 452.316C372.418 451.33 380.471 445.358 384.618 437.399C385.183 436.314 385.688 435.024 385.198 433.903ZM329.34 471.573C327.887 477.145 327.749 483.056 328.94 488.69C329.475 491.217 329.533 492.609 329.544 492.87C329.545 492.9 329.546 492.915 329.547 492.915C329.547 492.915 329.548 492.9 329.549 492.87C329.561 492.609 329.624 491.211 330.171 488.68C331.39 483.036 331.1 477.073 329.34 471.573ZM337.06 474.943C334.995 479.27 335.251 484.624 337.719 488.735C338.273 489.658 338.694 490.409 339.004 490.963C339.421 491.708 339.639 492.096 339.715 492.07C339.797 492.042 339.709 491.52 339.526 490.428C339.453 489.99 339.364 489.46 339.264 488.833L337.06 474.943ZM342.872 480.469C341.996 483.231 342.641 486.426 344.52 488.632C346.438 490.886 347.065 491.608 346.48 488.707C345.884 485.746 344.644 482.915 342.872 480.469ZM511.079 449.044C508.444 459.625 500.025 467.642 491.862 474.871C492.235 475.675 493.441 475.387 494.213 474.952C502.482 470.299 509.172 462.714 512.225 453.731C515.277 444.748 514.518 434.426 509.7 426.253C509.295 425.567 508.78 424.837 507.998 424.684C507.217 424.531 506.316 425.437 506.776 426.088C511.407 432.647 513.02 441.252 511.079 449.044ZM392.206 353.509C392.186 351.835 392.209 350.023 393.22 348.689C394.612 346.852 397.252 346.659 399.557 346.627C400.585 346.612 401.626 346.599 402.627 346.837C404.758 347.344 406.455 348.917 407.967 350.501C408.302 350.852 408.659 351.284 408.576 351.762C408.473 352.355 407.731 352.627 407.141 352.506C406.749 352.425 406.398 352.23 406.046 352.035L406.045 352.035L406.045 352.035L406.045 352.035L406.045 352.035L406.045 352.035C405.868 351.937 405.69 351.838 405.507 351.754C403.388 350.782 400.898 351.848 398.995 353.194C398.696 353.406 398.373 353.678 398.365 354.044C398.358 354.412 398.673 354.697 398.97 354.915C401.542 356.799 404.835 357.671 408.002 357.308C408.76 357.221 409.649 356.943 409.846 356.206C409.922 355.919 409.893 355.58 409.864 355.253C409.816 354.706 409.77 354.191 410.23 354.001C410.47 353.902 410.742 353.973 410.99 354.046C412.705 354.544 414.709 355.346 415.041 357.1C415.137 357.607 415.069 358.135 414.907 358.625C414.435 360.059 413.119 361.179 411.628 361.416C410.966 361.521 410.291 361.464 409.623 361.407C407.878 361.257 406.132 361.107 404.403 360.828C401.228 360.317 398.124 359.371 395.204 358.026C394.191 357.559 393.138 356.984 392.624 355.994C392.234 355.241 392.215 354.357 392.206 353.509ZM457.404 312.233C456.384 309.476 453.919 307.3 451.056 306.629C450.17 306.422 449.17 306.371 448.419 306.884C447.667 307.398 447.409 308.649 448.125 309.21C448.82 309.754 448.4 311.034 447.552 311.275C446.703 311.517 445.79 310.941 445.366 310.167C444.943 309.394 444.897 308.474 444.892 307.592C444.886 306.415 444.993 305.101 445.863 304.308C446.194 304.005 446.607 303.81 447.017 303.627C448.711 302.869 450.585 302.227 452.396 302.634C454.121 303.022 455.497 304.296 456.7 305.592C457.687 306.654 458.62 307.767 459.495 308.923C460.266 309.942 461.007 311.029 461.297 312.274C461.586 313.519 461.337 314.963 460.375 315.805C459.434 316.628 457.986 316.699 456.844 316.19C455.834 315.74 454.973 314.751 455.048 313.649C455.123 312.546 456.477 311.632 457.404 312.233ZM466.509 389.763C469.04 389.69 471.398 387.741 471.944 385.269C472.277 383.766 471.867 381.978 470.557 381.17C469.6 380.579 468.396 380.622 467.274 380.694C465.72 380.794 464.107 380.93 462.757 381.705C461.407 382.481 460.403 384.089 460.826 385.588C461.514 388.024 463.979 389.835 466.509 389.763ZM466.834 386.111C466.345 386.243 465.648 386.117 465.603 385.612C465.585 385.402 465.698 385.204 465.827 385.037C466.546 384.106 467.916 383.744 469.001 384.199C468.624 385.123 467.798 385.852 466.834 386.111ZM468.142 348.665C467.729 347.714 468.528 346.605 469.498 346.241C470.275 345.949 471.119 345.979 471.957 346.01L471.957 346.01C472.166 346.017 472.373 346.025 472.579 346.027C473.616 346.04 474.761 345.867 475.434 345.078C475.671 344.8 475.832 344.391 475.651 344.073C475.462 343.741 475.016 343.684 474.635 343.664C471.993 343.527 468.873 343.608 467.35 345.771C467.023 346.237 466.221 346.079 465.915 345.6C465.609 345.121 465.679 344.492 465.854 343.951C466.477 342.012 468.268 340.602 470.224 340.037C472.181 339.472 474.281 339.65 476.267 340.1C476.937 340.251 477.632 340.451 478.121 340.933C478.509 341.315 478.726 341.839 478.868 342.365C479.544 344.879 478.545 347.76 476.457 349.316C474.369 350.873 471.323 351.007 469.106 349.64C468.711 349.396 468.326 349.091 468.142 348.665ZM459.086 393.104C460.313 394.574 461.766 395.911 463.528 396.659C467.091 398.172 471.646 396.775 473.747 393.524C474.513 392.341 474.855 390.535 473.723 389.695C471.91 393.505 466.652 395.187 462.965 393.137C462.258 392.744 461.616 392.242 461.032 391.683C458.38 389.144 456.996 384.997 458.552 381.671C459.059 380.587 459.838 379.651 460.69 378.81C462.548 376.976 465.206 375.475 467.686 376.29C467.789 376.324 467.892 376.362 467.995 376.4C468.342 376.527 468.691 376.656 469.056 376.635C469.529 376.607 470.024 376.184 469.902 375.725C469.866 375.59 469.782 375.472 469.695 375.362C468.162 373.409 465.154 372.806 462.986 374.017C460.407 375.458 457.786 377.155 456.414 379.772C454.181 384.031 456.004 389.412 459.086 393.104ZM500.169 327.403C500.056 327.566 500.085 327.792 500.112 328.009C500.144 328.266 500.174 328.509 499.963 328.613C499.191 328.994 498.267 328.955 497.444 328.703C495.198 328.013 493.691 325.951 492.42 323.975C491.677 322.819 490.937 321.592 490.817 320.222C490.697 318.853 491.397 317.312 492.716 316.925C494.186 316.494 495.627 317.587 496.772 318.606C498.063 319.755 499.382 320.94 500.181 322.472C500.98 324.005 501.157 325.985 500.169 327.403ZM495.285 322.274C495.602 322.582 495.775 322.996 495.949 323.41C496.119 323.818 496.291 324.226 496.599 324.533C496.989 324.922 497.582 325.097 498.121 324.981C497.111 323.418 495.941 321.958 494.634 320.633C494.285 320.738 494.256 321.256 494.466 321.554C494.594 321.735 494.772 321.868 494.951 322.002C495.066 322.088 495.182 322.175 495.285 322.274ZM302.975 463.508C302.85 465.559 303.007 467.936 304.649 469.172C305.196 468.867 305.159 468.085 305.09 467.462C304.666 463.627 305.856 459.931 307.054 456.211C307.911 453.548 308.772 450.872 309.048 448.124C309.129 447.327 308.916 446.236 308.115 446.205C307.515 446.182 307.128 446.815 306.886 447.364C304.644 452.458 303.312 457.952 302.975 463.508ZM462.242 389.52C464.094 390.339 466.148 391.175 468.087 390.586C468.858 390.352 469.544 389.907 470.219 389.467C470.216 390.6 469.242 391.552 468.156 391.875C467.07 392.199 465.902 392.026 464.795 391.786C463.565 391.52 462.061 390.765 462.242 389.52ZM315.704 484.086C316.176 483.244 316.257 482.245 316.327 481.282L316.886 473.613C317.16 469.848 317.435 466.07 317.189 462.304C317.158 461.829 317.11 461.329 316.833 460.942C316.556 460.555 315.97 460.348 315.59 460.635C315.311 460.847 315.241 461.229 315.192 461.576C314.585 465.931 314.261 470.325 314.222 474.722C314.193 477.91 314.339 481.204 315.704 484.086ZM307.32 477.494C306.829 477.909 306.011 477.544 305.74 476.961C305.47 476.377 305.579 475.696 305.695 475.064C306.909 468.444 308.286 461.855 309.824 455.303C309.862 455.139 309.904 454.969 310.01 454.838C310.415 454.337 311.234 454.841 311.521 455.417C312.226 456.83 311.888 458.517 311.536 460.056L307.744 476.592C307.669 476.922 307.579 477.276 307.32 477.494ZM320.452 477.788C320.24 480.271 320.613 482.762 320.984 485.226C321.116 486.103 321.748 487.269 322.54 486.87L324.085 470.351C324.148 469.679 324.19 468.934 323.774 468.403C323.357 467.872 322.302 467.894 322.169 468.555L321.03 474.22C320.792 475.402 320.554 476.587 320.452 477.788ZM479.968 427.16C475.57 424.896 470.218 424.003 465.649 425.9C462.237 427.317 452.593 433.437 451.309 441.281C450.45 446.532 450.459 451.898 452.297 456.968L452.593 457.763C453.14 459.199 454.884 460.849 455.859 459.662C453.012 454.515 452.48 448.143 454.434 442.596C456.388 437.049 460.797 432.417 466.24 430.191C467.386 429.722 468.582 429.354 469.814 429.237C472.306 429.001 474.793 429.809 477.021 430.95C481.816 433.407 487.758 437.493 490.04 442.374C492.241 447.08 493.861 452.692 491.87 457.49C489.879 462.288 476.796 465.759 476.796 465.759L478.244 468.401C478.244 468.401 485.567 466.956 490.04 463.699C508.816 450.023 484.175 429.326 479.968 427.16Z" fill="#00160A"/>
<path fill-rule="evenodd" clip-rule="evenodd" d="M148.051 359.637C141.41 360.349 134.377 358.813 129.192 354.603C125.52 351.622 122.94 347.474 121.129 343.104C119.163 338.36 118.033 333.271 117.806 328.14C117.72 326.209 117.766 324.242 118.334 322.393C119.268 319.352 121.518 316.911 123.814 314.708C128.7 310.023 134.443 305.747 141.14 304.762C145.704 304.091 150.346 305.006 154.813 306.155C158.322 307.058 161.826 308.123 164.981 309.902C171.955 313.834 176.787 321.333 177.486 329.307C178.185 337.282 177.325 342.566 166.563 352.474C160.971 356.125 154.692 358.924 148.051 359.637ZM159.762 334.604C158.685 334.943 157.611 335.544 156.499 335.348C154.228 334.948 153.821 331.832 154.325 329.582C155.769 323.139 160.26 317.449 166.191 314.548C164.848 312.113 161.282 311.934 158.759 313.104C156.237 314.275 154.265 316.384 151.826 317.719C150.612 318.383 149.173 318.854 147.853 318.44C145.679 317.759 144.85 314.913 145.561 312.75C146.273 310.587 148.048 308.973 149.753 307.463C143.576 307.68 137.463 309.534 132.206 312.785C128.09 315.331 124.186 319.505 124.733 324.313C128.135 321.574 132.13 319.575 136.362 318.494C137.26 318.264 138.387 318.149 138.949 318.886C139.374 319.444 139.252 320.247 138.979 320.893C137.626 324.102 133.648 325.178 131.181 327.634C130.857 327.957 130.546 328.329 130.468 328.78C130.314 329.662 131.155 330.467 132.039 330.615C132.923 330.762 133.81 330.44 134.648 330.124C136.389 329.467 138.13 328.81 139.871 328.154C141.132 327.678 142.628 327.224 143.749 327.971C144.908 328.744 145.017 330.503 144.362 331.732C143.707 332.962 142.504 333.787 141.346 334.563C138.556 336.433 135.766 338.303 132.976 340.173C130.64 341.739 128.023 343.85 128.245 346.653C128.454 349.292 131.357 351.085 133.998 350.916C136.64 350.746 138.965 349.131 140.915 347.34C142.864 345.55 144.624 343.505 146.888 342.134C148.366 341.239 150.474 340.742 151.674 341.984C152.601 342.944 152.512 344.487 152.164 345.776C151.161 349.489 148.449 352.703 144.957 354.317C147.798 354.973 150.761 355.096 153.646 354.68C155.292 354.442 156.995 353.986 158.185 352.825C159.375 351.664 159.836 349.62 158.804 348.317C157.264 346.373 157.325 343.528 158.309 341.251C159.293 338.975 161.05 337.136 162.771 335.351C162.278 334.335 160.839 334.266 159.762 334.604ZM172.913 339.017C174.46 335.442 174.516 331.398 174.124 327.522C173.691 323.235 172.197 318.333 168.158 316.831C162.24 319.287 157.673 324.767 156.324 331.031C156.211 331.557 156.122 332.123 156.329 332.62C156.536 333.117 157.151 333.48 157.628 333.23C159.264 332.373 161.277 331.886 162.94 332.689C164.603 333.493 165.413 336 164.066 337.264C162.578 338.661 161.05 340.113 160.247 341.99C159.444 343.866 159.56 346.295 161.072 347.666C162.207 348.697 162.21 350.72 161.077 351.754C164.298 350.813 166.594 348.043 168.682 345.417C170.279 343.409 171.894 341.371 172.913 339.017ZM135.832 320.526C132.482 321.916 129.229 323.542 126.108 325.39C125.365 325.829 124.615 326.294 124.072 326.964C123.339 327.87 123.06 329.051 122.834 330.194C122.102 333.885 121.725 337.859 123.275 341.289C123.77 342.383 124.446 343.384 125.119 344.379C125.318 344.673 125.543 344.987 125.884 345.086C126.224 345.185 126.674 344.91 126.594 344.565C126.348 343.5 127.154 342.499 127.949 341.75C132.609 337.364 138.886 334.846 143.077 330.01C142.441 329.257 141.235 329.611 140.329 329.998C138.17 330.919 135.944 331.684 133.675 332.282C132.504 332.591 131.199 332.842 130.131 332.273C128.567 331.439 128.313 329.158 129.139 327.591C129.965 326.023 131.535 325.011 133.049 324.09C134.563 323.17 136.152 322.209 137.061 320.688C136.895 320.255 136.261 320.349 135.832 320.526ZM147.3 349.908C148.78 348.718 150.38 347.315 150.542 345.422C150.626 344.433 149.992 343.222 149.003 343.317C148.699 343.346 148.421 343.496 148.159 343.653C143.853 346.225 141.02 351.255 136.162 352.506C137.535 353.12 138.966 353.603 140.43 353.947C140.866 354.049 141.32 354.14 141.758 354.049C142.269 353.943 142.696 353.607 143.102 353.281C144.501 352.156 145.9 351.032 147.3 349.908ZM151.304 308.787C150.346 309.846 149.388 310.906 148.43 311.966C147.671 312.805 146.856 313.913 147.279 314.963C147.59 315.736 148.509 316.127 149.34 316.062C150.172 315.998 150.929 315.573 151.626 315.115C154.11 313.486 156.346 311.266 159.245 310.614C157.235 309.882 155.225 309.149 153.215 308.417C152.797 308.264 152.33 308.112 151.918 308.282C151.671 308.384 151.483 308.588 151.304 308.787Z" fill="#00160A"/>
<path fill-rule="evenodd" clip-rule="evenodd" d="M188.707 182.198C188.456 187.219 184.582 192.657 179.589 192.063C177.335 189.457 175.572 186.222 173.829 183.025C170.481 176.885 167.21 170.885 160.692 169.746C154.29 168.627 148.328 173.336 144.341 178.468C138.567 185.9 134.835 194.904 133.659 204.242C132.967 209.733 135.219 217.346 140.719 216.742C147.002 216.052 151.47 220.994 156.015 226.021C160.221 230.673 164.492 235.397 170.329 235.796C177.278 236.271 182.954 240.434 188.7 244.648C192.538 247.463 196.407 250.3 200.707 252.077C208.795 255.419 218.123 254.772 226.379 251.87C234.636 248.968 241.984 243.969 248.938 238.656L249.303 238.377C253.099 235.474 257.073 232.435 261.793 231.795C285.931 228.525 308.382 214.367 321.735 193.995C340.666 209.128 367.134 214.3 390.369 207.406C394.311 206.237 398.279 204.669 401.202 201.777C404.126 198.885 405.784 194.395 404.347 190.542C402.775 186.328 398.079 184.072 393.615 183.53C391.168 183.232 388.702 183.32 386.234 183.408H386.234H386.233H386.233H386.233C384.199 183.481 382.163 183.553 380.136 183.41C367.863 182.542 357.643 174.077 348.35 166.013C361.815 161.883 372.732 151.509 379.941 139.41C387.149 127.31 391.012 113.527 393.947 99.7522C395.492 92.5033 396.639 84.3373 392.498 78.1907C390.644 75.4396 387.926 73.4282 385.218 71.4239C382.168 69.1669 379.13 66.9188 377.353 63.6336C373.933 57.3143 367.267 53.567 360.944 50.1534C344.398 41.2201 325.393 32.0259 307.561 37.9918C300.615 40.3157 294.615 44.7687 288.765 49.1759C279.05 56.4944 268.643 65.0792 266.793 77.1007C250.898 69.9891 230.333 75.6687 220.34 89.93C218.054 93.1921 216.3 96.7893 214.547 100.383C212.483 104.614 210.422 108.839 207.5 112.507C195.762 107.159 183.803 102.298 171.664 97.9406C166.282 96.0087 159.852 94.3014 155.214 97.6459C151.495 100.328 150.354 105.591 151.446 110.044C152.537 114.498 155.452 118.273 158.577 121.628C165.357 128.906 173.502 134.909 182.461 139.231C182.75 139.371 183.041 139.51 183.333 139.649C186.138 140.985 189.022 142.359 190.89 144.812C192.952 147.52 193.08 152.052 190.189 153.849C185.919 156.503 185.132 162.459 186.008 167.41C186.307 169.102 186.746 170.778 187.184 172.451L187.184 172.451C188.029 175.676 188.872 178.892 188.707 182.198ZM304.645 208.674C293.884 219.973 278.742 226.583 263.259 228.516C247.776 230.448 231.966 227.936 217.176 222.965C221.155 222.963 224.031 217.754 221.915 214.385C213.764 223.887 201.337 228.338 189.496 232.401C178.798 236.073 166.011 233.406 158.153 225.272C150.295 217.137 148.169 203.79 153.695 193.921C156.097 189.632 160.171 185.898 165.069 185.477C169.967 185.056 175.242 189.118 174.787 194.013C172.062 193.539 169.193 195.854 169.081 198.618C179.626 197.482 189.539 191.44 195.38 182.589C197.396 179.533 198.929 176.206 200.462 172.875C201.492 170.639 202.522 168.401 203.7 166.244C206.632 160.874 210.841 155.755 216.675 153.909C221.357 152.428 226.418 153.25 231.257 154.085L252.754 157.791C254.363 156.402 251.757 154.176 249.677 153.742C242.958 152.338 236.145 151.473 229.332 150.607C223.015 149.805 216.696 149.003 210.452 147.771C197.473 145.21 184.428 140.526 174.982 131.266C181.39 127.579 186.265 121.315 188.265 114.199C188.67 112.759 187.706 110.394 186.536 111.326C185.201 115.946 183.753 120.765 180.406 124.218C177.059 127.672 171.184 129.189 167.396 126.226C162.478 122.38 157.308 118.184 155.363 112.252C153.418 106.319 156.495 98.3516 162.695 97.6243C165.479 97.2978 168.199 98.4478 170.766 99.5729L196.659 110.923C204.365 114.301 212.187 117.713 220.511 118.939C226.356 119.799 232.301 119.558 238.204 119.314L254.938 118.624C255.622 118.596 256.324 118.564 256.954 118.295C258.635 117.578 259.205 115.524 259.576 113.735C264.067 92.0648 270.1 69.1966 286.423 54.253C293.727 47.5663 302.826 42.8583 312.503 40.758C322.042 38.6877 332.567 39.2964 340.779 44.5722C327.003 45.5862 313.625 51.3956 303.48 60.7705C299.217 56.2201 291.283 59.9396 287.883 65.1662C282.613 73.2684 282.708 84.5234 288.116 92.5347C292.668 99.2781 294.356 107.324 296.048 115.389C297.603 122.801 299.161 130.229 302.948 136.676C308.94 146.874 320.098 153.421 331.751 155.451C343.405 157.48 355.486 155.36 366.561 151.207C354.165 163.571 334.363 167.848 317.97 161.701C316.775 161.253 315.586 160.752 314.397 160.252L314.396 160.251L314.396 160.251L314.396 160.251L314.396 160.251C310.629 158.665 306.849 157.073 302.809 157.121C305.176 159.627 308.199 161.509 311.493 162.526C307.695 168.906 303.71 175.174 299.545 181.321C299.012 182.107 298.405 182.945 297.493 183.211C296.477 183.507 295.417 183.001 294.49 182.489C286.833 178.257 279.969 172.593 274.36 165.879L263.138 179.529C268.897 186.569 275.629 192.81 283.084 198.02C273.162 210.277 258.13 218.261 242.418 219.618C258.682 220.446 275.146 212.818 285.03 199.875C291.287 203.388 297.86 206.337 304.645 208.674ZM356.078 88.6447C359.671 84.7261 361.003 79.1289 360.696 73.8207C360.389 68.5125 358.604 63.4075 356.628 58.4713C361.775 57.8611 367.005 59.8032 371.106 62.9746C375.207 66.146 378.287 70.4613 380.813 74.9878C383.876 80.475 386.224 86.4083 387.242 92.6091C389.641 107.21 384.52 122.096 377.229 134.972C375.813 137.472 374.29 139.954 372.223 141.95C370.142 143.96 367.582 145.405 364.959 146.624C354.132 151.654 341.679 153.106 329.986 150.7C337.45 144.486 342.722 135.924 346.079 126.81C349.436 117.696 350.973 108.009 351.858 98.3366L351.863 98.2823C352.086 95.8433 352.32 93.28 353.71 91.2659C354.171 90.5991 354.74 90.021 355.31 89.4426C355.569 89.1795 355.829 88.9163 356.078 88.6447ZM342.57 128.931C339.349 136.465 334.359 143.383 327.594 148.006C326.802 148.548 325.951 149.07 324.998 149.181C324.157 149.28 323.314 149.048 322.506 148.793C316.755 146.978 311.32 143.76 307.631 138.989C306.292 137.258 305.199 135.348 304.224 133.389C297.122 119.118 296.426 101.805 302.36 87.0113C302.644 86.3047 303.049 85.5112 303.796 85.363C304.762 85.1714 305.503 86.1595 306.046 86.9813C310.478 93.6983 318.767 97.0989 326.807 97.451C334.847 97.8031 342.756 95.5181 350.38 92.9411C348.991 96.3388 348.637 100.04 348.286 103.707L348.286 103.712C348.242 104.172 348.198 104.632 348.152 105.09C347.335 113.243 345.791 121.397 342.57 128.931ZM340.933 58.9385C345.047 58.0033 349.847 57.7459 352.991 60.56C354.006 61.4689 354.76 62.6347 355.381 63.8479C359.275 71.4568 357.75 81.4782 351.769 87.5845C344.855 94.6437 333.912 95.8074 324.067 94.9695C320.534 94.6688 316.901 94.1253 313.885 92.261C309.983 89.8489 307.672 85.5985 305.535 81.5392C315.022 70.9386 327.061 62.0919 340.933 58.9385ZM374.207 186.906C372.916 190.165 371.613 193.468 371.19 196.948C370.768 200.428 371.318 204.162 373.434 206.957C355.871 207.928 338.024 202.513 323.963 191.945C328.497 185.528 332.078 178.439 334.551 170.981C335.529 168.035 339.258 166.807 342.286 167.489C345.074 168.117 347.414 169.905 349.697 171.649L349.977 171.863C350.08 171.941 350.183 172.02 350.286 172.098C357.762 177.774 366 182.35 374.207 186.906ZM251.482 231.412C248.712 234.531 245.402 237.119 242.02 239.561C234.962 244.657 227.265 249.289 218.686 250.77C206.114 252.939 192.531 247.517 184.909 237.285L212.332 227.056C212.988 226.811 213.668 226.562 214.368 226.602C214.763 226.624 215.143 226.737 215.524 226.851C215.778 226.927 216.032 227.002 216.291 227.051C217.171 227.218 218.059 227.072 218.951 226.925C219.506 226.834 220.063 226.742 220.62 226.725C222.673 226.664 224.559 227.602 226.426 228.53C226.899 228.765 227.372 229 227.846 229.218C235.117 232.562 243.501 232.021 251.482 231.412ZM211.887 114.083C211.694 113.651 211.898 113.154 212.102 112.727C217.718 100.965 225.147 90.0715 234.046 80.5492C240.306 89.2408 244.472 99.4292 246.095 110.016C246.42 112.133 246.069 115.06 243.944 115.324C233.761 116.594 223.399 116.421 213.263 114.814C212.727 114.729 212.109 114.579 211.887 114.083ZM250.242 113.358C248.145 101.83 243.792 90.7176 237.502 80.8328C242.826 78.0296 249.121 77.9838 255.138 78.0026C258.938 78.0145 263.086 78.1484 265.982 80.609L258.47 102.774C257.195 106.537 255.903 110.406 256.064 114.376L251.316 114.452C251.146 114.455 250.972 114.456 250.816 114.391C250.436 114.232 250.316 113.763 250.242 113.358ZM311.341 170.082C312.602 167.936 313.804 165.644 313.932 163.158C319.613 165.713 325.87 166.979 332.097 166.834C333.075 166.811 333.04 168.318 332.639 169.21C331.427 171.909 330.213 174.611 328.809 177.216C327.369 179.89 325.734 182.453 324.1 185.013L320.185 191.15C319.649 191.99 319.096 192.849 318.3 193.448C316.162 195.054 313.112 194.282 310.673 193.186C306.628 191.369 302.904 188.837 299.726 185.744C304.14 180.956 308.041 175.696 311.341 170.082ZM164.425 175.384C166.307 177.282 167.538 179.715 168.737 182.104L163.09 182.909C161.208 183.177 159.279 183.461 157.616 184.381C155.998 185.276 154.75 186.711 153.652 188.199C149.059 194.421 146.513 202.129 146.497 209.863C146.492 212.656 143.19 214.649 140.488 213.941C137.786 213.233 135.95 210.549 135.483 207.795C135.016 205.041 135.674 202.225 136.499 199.556C139.402 190.165 144.596 181.295 152.279 175.164C153.748 173.993 155.37 172.896 157.224 172.6C159.864 172.178 162.543 173.486 164.425 175.384ZM401.568 191.105C402.221 191.944 402.705 192.966 402.676 194.03C402.638 195.403 401.767 196.608 400.829 197.613C395.378 203.455 387 205.444 379.065 206.381C378.542 206.443 377.994 206.499 377.503 206.307C377.1 206.149 376.776 205.839 376.489 205.515C374.574 203.362 373.816 200.352 373.971 197.476C374.126 194.599 375.119 191.828 376.355 189.226C376.616 188.678 376.917 188.102 377.448 187.808C377.872 187.574 378.377 187.555 378.861 187.543L388.464 187.291C390.829 187.229 393.219 187.169 395.534 187.657C397.848 188.144 400.115 189.239 401.568 191.105ZM294.541 100.366C290.627 93.1159 287.7 85.3345 285.864 77.3028L287.444 73.0802C289.4 69.2939 291.866 65.7712 294.753 62.637C295.93 61.3605 297.968 61.2194 299.591 61.8344C301.214 62.4494 302.52 63.6724 303.78 64.8662L309.45 70.2378C309.618 70.3975 309.794 70.5699 309.851 70.7952C309.956 71.2193 309.606 71.6078 309.289 71.909C306.634 74.4333 304.275 77.2795 302.383 80.417C299.524 85.1592 297.778 90.4736 296.056 95.7363L294.541 100.366ZM309.031 59.6449C320.575 53.4622 333.202 47.6441 346.224 49.0355C353.031 49.7628 359.543 52.4712 365.214 56.3077C348.97 52.1321 330.863 55.9836 317.725 66.4091C315.694 68.0205 312.647 69.7707 310.839 67.9129C310.375 67.4359 310.072 66.7676 309.776 66.1164C309.302 65.0735 308.848 64.0746 307.787 63.9769C306.775 63.8838 306.324 62.5102 306.754 61.5887C307.183 60.6672 308.135 60.1249 309.031 59.6449ZM277.318 172.731C279.597 174.92 282.106 176.853 284.609 178.781L294.723 186.571C291.609 189.316 288.561 192.137 285.585 195.031C278.499 190.831 272.174 185.351 267.008 178.936C269.836 175.99 272.551 172.936 275.144 169.782C275.552 170.946 276.429 171.877 277.318 172.731ZM212.29 151.661C206.964 155.822 201.458 160.201 198.529 166.291C197.957 167.481 197.484 168.734 197.012 169.984L197.012 169.984C196.008 172.642 195.008 175.291 193.063 177.314C192.2 177.061 191.861 176.044 191.651 175.17L189.624 166.741C189.351 165.604 189.076 164.435 189.231 163.276C189.386 162.122 189.955 161.071 190.513 160.049L196.459 149.184C196.592 148.941 196.729 148.693 196.942 148.517C197.468 148.08 198.246 148.219 198.91 148.382L212.29 151.661ZM298.803 188.987C302.434 192.721 306.948 195.591 311.869 197.297C312.79 196.431 314.568 196.908 314.931 198.119C313.238 200.316 311.379 202.386 309.374 204.304C308.48 205.161 307.046 204.98 305.838 204.703C299.94 203.349 294.259 201.055 289.074 197.934C288.728 197.725 288.337 197.428 288.372 197.024C288.395 196.753 288.608 196.542 288.809 196.358L296.088 189.654C296.851 188.951 298.079 188.243 298.803 188.987ZM391.736 95.3368C391.669 96.1583 391.553 97.0751 390.911 97.5918C390.906 91.139 389.305 84.6935 386.292 78.9874C385.746 77.9525 385.153 76.9409 384.494 75.9738C384.409 75.8494 384.323 75.7249 384.237 75.6001C383.572 74.6404 382.892 73.6582 382.73 72.5123L390.53 80.6602C391.247 81.4099 391.985 82.1921 392.325 83.1728C392.652 84.1186 392.574 85.1502 392.492 86.1476L391.736 95.3368ZM382.774 84.9823L381.008 82.7559C379.065 80.3064 376.681 77.6318 373.554 77.6284C371.739 77.6264 370.071 78.5556 368.496 79.4583L366.051 80.8608C365.383 81.244 364.697 81.6424 364.226 82.2517C362.867 84.009 363.858 86.5765 365.142 88.3889C366.031 89.643 367.096 90.8473 368.509 91.4508C370.337 92.2316 372.44 91.8863 374.357 91.3577C376.981 90.634 379.517 89.5898 381.89 88.2558C382.649 87.8292 383.487 87.2043 383.449 86.3347C383.426 85.8225 383.093 85.3838 382.774 84.9823ZM367.343 86.7006C367.039 86.2168 366.725 85.6998 366.72 85.1284C366.711 84.011 367.826 83.2611 368.807 82.7261L372.293 80.8246C372.82 80.537 373.368 80.243 373.968 80.2026C374.567 80.1622 375.233 80.4507 375.434 81.0164C376.029 82.6858 377.494 84.0174 379.212 84.4504C379.768 84.5906 379.947 85.3607 379.684 85.8706C379.421 86.3805 378.883 86.6785 378.369 86.9335C376.532 87.8453 374.611 88.5888 372.638 89.1516C371.847 89.3773 371.01 89.5747 370.21 89.3845C368.902 89.0734 368.059 87.8393 367.343 86.7006ZM342.544 103.912C339.086 104.314 338.428 110.548 340.034 113.873C340.364 114.557 340.881 115.262 341.635 115.357C342.923 115.521 343.635 113.931 343.92 112.664L343.927 112.634C344.303 110.964 345.98 103.511 342.544 103.912ZM324.712 112.089C325.403 110.477 325.634 108.669 325.37 106.935C325.247 106.129 325.004 105.31 324.466 104.698C323.927 104.086 323.037 103.73 322.27 104.006C321.576 104.256 321.139 104.935 320.811 105.596C319.65 107.928 319.188 110.602 319.498 113.188C319.642 114.391 321.158 115.049 322.308 114.668C323.459 114.288 324.235 113.203 324.712 112.089ZM334.905 108.398C335.441 107.954 336.118 108.761 336.336 109.424C337.052 111.6 337.645 113.817 338.11 116.06C338.405 117.477 338.648 118.95 338.334 120.363C337.892 122.356 336.377 123.977 334.62 125.015C332.862 126.053 330.862 126.591 328.89 127.117C328.369 127.256 327.714 127.355 327.377 126.933C327.092 126.576 327.233 126.016 327.558 125.693C327.877 125.378 328.321 125.232 328.748 125.091L328.773 125.083C331.848 124.073 335.133 122.25 335.849 119.094C336.243 117.359 335.764 115.616 335.283 113.865L335.283 113.865C334.845 112.27 334.405 110.67 334.622 109.064C334.655 108.819 334.714 108.556 334.905 108.398ZM313.433 101.3C312.623 100.178 313.272 98.474 314.446 97.7426C315.62 97.0112 317.104 97.0212 318.476 97.1983C320.113 97.4097 321.724 97.8263 323.259 98.4351C323.586 98.5647 323.938 98.7297 324.082 99.0505C324.348 99.6445 323.659 100.295 323.008 100.294C322.484 100.294 322.009 100.042 321.539 99.7923C321.425 99.7319 321.312 99.6717 321.198 99.6152C318.636 98.3438 315.238 99.0808 313.433 101.3ZM342.965 100.913C344.183 100.711 345.474 100.992 346.497 101.682C346.925 101.971 347.537 101.486 347.54 100.97C347.542 100.454 347.157 100.02 346.752 99.7007C345.878 99.0135 344.791 98.6022 343.681 98.5395C342.965 98.4991 342.173 98.6375 341.711 99.1868C341.25 99.7361 341.389 100.767 342.081 100.958C342.327 101.026 342.586 100.98 342.841 100.935C342.882 100.928 342.924 100.92 342.965 100.913ZM327.853 132.551C328.195 132.357 328.648 132.695 328.699 133.085C328.75 133.475 328.527 133.849 328.273 134.149C326.996 135.656 324.796 136.12 322.853 135.766C320.91 135.413 319.168 134.369 317.529 133.267C316.759 132.749 315.999 132.213 315.252 131.662C314.478 131.09 313.653 130.39 313.56 129.432C313.468 128.474 314.695 127.508 315.396 128.168C317.118 129.79 318.88 131.439 321.022 132.442C323.165 133.446 325.792 133.713 327.853 132.551ZM290.969 140.233C283.793 124.633 280.799 107.132 282.381 90.034C282.408 89.7418 282.445 89.429 282.638 89.208C282.911 88.8963 283.469 88.9093 283.727 89.2334C283.635 98.639 283.547 108.101 285.083 117.381C286.618 126.661 289.878 135.842 295.831 143.125C296.009 143.343 296.189 143.559 296.37 143.776C297.394 145.004 298.427 146.242 299.007 147.723C295.136 147.648 292.587 143.75 290.969 140.233ZM298.008 69.7898C297.876 69.6463 297.721 69.5196 297.542 69.4422C297.024 69.2188 296.418 69.4479 295.964 69.7833C294.158 71.1204 294.151 74.2472 295.951 75.5925C296.83 74.8442 297.731 74.0668 298.246 73.0342C298.76 72.0016 298.792 70.6371 298.008 69.7898ZM313.584 86.2633C315.531 87.8437 317.749 89.0885 320.113 89.9265C327.74 92.6309 336.31 90.933 343.67 87.569C344.794 87.055 346.229 87.326 347.089 88.2146C342.363 91.5821 336.574 93.4331 330.771 93.4317C329.492 93.4315 328.214 93.3438 326.939 93.2324C324.33 93.0045 321.702 92.6703 319.249 91.7568C316.795 90.8432 314.504 89.2979 313.115 87.0785L313.584 86.2633ZM396.635 189.051C396.559 189.311 396.768 189.559 396.96 189.75L399.858 192.626C400.174 191.798 399.819 190.836 399.211 190.192C398.604 189.548 397.783 189.157 396.982 188.779C396.825 188.786 396.679 188.901 396.635 189.051Z" fill="#00160A"/>
<path fill-rule="evenodd" clip-rule="evenodd" d="M586.948 77.1916C590.498 78.4219 593.842 75.2204 596.901 73.0392C601.635 69.6642 607.81 68.388 613.494 69.6102C614.437 69.813 615.425 70.1173 616.046 70.8552C616.613 71.53 616.775 72.4504 616.866 73.3275C617.426 78.6967 616.083 84.2449 613.131 88.7642C611.694 90.9628 609.895 92.9203 608.61 95.211C607.326 97.5016 606.592 100.3 607.507 102.762C612.948 117.397 610.684 134.659 601.652 147.395C592.621 160.132 577.081 167.98 561.47 167.689C553.486 167.539 545.664 165.408 538.142 162.729C534.86 161.559 531.252 160.277 527.995 161.511C522.05 163.764 515.792 165.187 509.457 165.725C507.885 165.858 506.243 165.927 504.793 165.307C502.622 164.378 501.311 162.023 501.062 159.675C500.813 157.327 501.462 154.976 502.282 152.762C504.755 146.082 512.434 135.647 517.083 133.243C516.707 125.131 516.748 116.924 518.502 108.995C520.255 101.067 523.835 93.3729 529.706 87.7628C532.131 85.4455 534.906 83.5169 537.813 81.8432C552.515 73.3784 570.918 71.6361 586.948 77.1916ZM564.558 76.533C553.316 76.7961 542.372 81.3123 533.583 88.3285C531.003 90.3885 528.578 92.6772 526.641 95.3513C525.114 97.4593 523.907 99.7853 522.898 102.185C516.912 116.422 518.278 133.528 526.449 146.634C526.627 146.92 526.831 147.223 527.149 147.334C527.541 147.471 527.964 147.271 528.33 147.076C553.992 133.4 576.833 114.46 595.023 91.774C595.456 91.2338 595.912 90.6062 595.818 89.9201C595.748 89.4053 595.381 88.9873 595.022 88.6114C587.26 80.4735 575.801 76.2698 564.558 76.533ZM580.276 161.525C592.465 155.802 601.722 144.495 605.681 131.625C606.578 128.711 607.222 125.698 607.285 122.65C607.339 120.086 606.981 117.534 606.624 114.995C606.107 111.314 605.59 107.632 605.072 103.951C604.935 102.975 603.995 101.687 603.308 102.394C584.237 122.02 563.413 139.941 541.164 155.874C540.424 156.404 539.609 157.06 539.569 157.969C539.523 159.022 540.528 159.786 541.441 160.313C553.105 167.039 568.088 167.247 580.276 161.525ZM505.094 160.026C505.981 161.448 507.903 161.74 509.578 161.786C518.368 162.029 527.063 159.454 534.927 155.52C542.791 151.586 549.909 146.325 556.825 140.896C566.051 133.656 575.001 126.067 583.723 118.228C594.525 108.519 605.14 98.2207 612.232 85.5458C613.604 83.0941 614.87 80.4057 614.655 77.6044C614.441 74.8031 612.206 71.975 609.399 72.0845C603.441 72.3169 597.584 74.6075 593.049 78.4779C592.147 79.2476 592.785 80.8862 593.895 81.3028C595.005 81.7195 596.242 81.3055 597.327 80.8267C598.411 80.3479 599.541 79.788 600.719 79.919C602.519 80.1192 603.798 81.9622 603.905 83.7703C604.012 85.5785 603.213 87.3163 602.271 88.8633C600.527 91.7264 598.25 94.2219 595.949 96.6597C575.496 118.329 551.901 137.028 526.134 151.992C523.813 153.339 521.465 154.661 518.968 155.643C517.658 156.158 516.156 156.572 514.878 155.983C512.781 155.017 512.613 152.074 513.242 149.853C514.187 146.519 516.227 143.505 518.972 141.39C518.452 139.925 517.932 138.46 517.412 136.996C510.637 141.323 505.882 148.684 504.723 156.64C504.556 157.788 504.48 159.042 505.094 160.026ZM524.359 149.975C524.407 149.824 524.319 149.666 524.234 149.532C523.359 148.141 522.484 146.751 521.609 145.36C521.213 144.731 520.447 144.018 519.853 144.465C517.713 146.077 516.182 148.477 515.621 151.096C515.511 151.613 515.446 152.19 515.728 152.637C516.251 153.469 517.502 153.284 518.428 152.952C520.401 152.245 522.302 151.336 524.091 150.243C524.202 150.176 524.32 150.098 524.359 149.975ZM600.5 83.7745C600.412 83.4133 599.982 83.2563 599.61 83.2401C598.483 83.191 597.304 84.1181 597.376 85.2446C597.447 86.3712 599.122 87.0805 599.821 86.1948C600.033 85.9273 600.122 85.5864 600.206 85.2562C600.289 84.929 600.373 84.6018 600.456 84.2747C600.498 84.1108 600.54 83.9389 600.5 83.7745Z" fill="#00160A"/>
</svg>
