<svg width="750" height="486" viewBox="0 0 750 486" fill="none" xmlns="http://www.w3.org/2000/svg">
<path fill-rule="evenodd" clip-rule="evenodd" d="M426.089 485.784C498.518 485.784 562.079 431.907 526.383 358.729C490.687 285.551 623.319 287.914 662.28 237.338C709.794 175.659 696.034 -86.1615 391.013 73.4569C342.153 99.0259 216.668 47.1524 175.044 72.8911C126.048 103.188 57.1144 165.227 126.048 228.776C160.004 260.079 38.2654 341.328 91.5844 414.106C143.61 485.119 180.08 417.423 259.288 431.907C338.497 446.392 372.297 485.784 426.089 485.784Z" fill="#FDE255"/>
<path d="M342.022 358.475C342.022 358.475 358.699 350.63 364.925 345.173C371.151 339.715 378.891 326.155 378.891 326.155C378.891 326.155 463.914 387.559 519.352 378.8C532.125 376.782 557.014 368.291 558.601 353.332C562.935 312.483 502.971 302.044 516.07 281.329C524.065 268.685 548.902 287.504 548.902 287.504L651.92 338.176C651.92 338.176 616.33 425.905 529.962 429.421C423.718 433.746 342.022 358.475 342.022 358.475Z" fill="white"/>
<path fill-rule="evenodd" clip-rule="evenodd" d="M260.345 14.9051C259.378 14.5255 254.186 8.16742 247.593 7.01021C244.598 6.48435 247.317 10.2988 244.02 10.3331C234.201 10.4353 218.244 8.59061 215.288 10.3331C213.091 11.624 217.929 16.1339 215.288 16.3409C190.366 18.2944 152.347 43.1777 144.098 55.2498C141.473 59.0917 162.704 52.5734 159.321 54.4728C155.525 56.6045 151.314 70.563 148.796 81.3438C147.053 88.7676 145.956 98.3218 145.568 108.715C145.246 117.688 145.375 119.173 146.666 124.079C148.15 129.566 149.312 131.18 151.314 130.406C152.024 130.147 152.347 129.179 152.347 127.372C152.347 125.951 153.121 121.691 154.09 117.882L155.768 111.039L156.478 113.88C157.382 117.172 162.675 127.372 167.452 134.795C167.71 135.189 168.819 134.688 169.818 132.272C170.729 130.07 170.359 126.553 171.907 122.784C175.432 114.197 182.352 103.032 190.366 94.0957C202.21 80.888 206.139 65.6028 217.242 53.3328C237.961 30.4347 263.965 16.3261 260.345 14.9051Z" fill="white"/>
<path fill-rule="evenodd" clip-rule="evenodd" d="M159.616 57.5884C156.292 60.261 151.359 81.9393 151.274 82.3016C149.531 89.7255 147.851 115.506 149.568 120.387C151.286 125.268 156.095 107.673 156.095 107.673C156.095 107.673 163.363 126.547 169.786 131.722C170.06 131.943 162.152 108.371 159.616 94.6094C156.268 76.4438 161.507 56.0673 159.616 57.5884Z" fill="#E7EAEE"/>
<path fill-rule="evenodd" clip-rule="evenodd" d="M283.496 437.251C289.693 435.896 300.15 431.175 304.154 429.561C308.157 427.946 320.357 410.719 324.747 391.288C327.91 376.957 329.524 356.558 327.716 353.136C327.449 352.651 326.473 343.374 329.072 346.403C334.85 353.136 341.709 363.706 363.35 344.766C369.244 339.607 377.057 332.949 375 327.064C369.244 310.596 344.295 277.435 340.492 274.924C335.944 271.92 312.959 274.472 278.752 264.376C239.958 252.926 223.805 219.209 208.624 223.598C196.347 227.148 166.932 248.96 159.55 262.773C124.698 327.984 166.932 373.679 176.55 386.803L185.889 390.836L186.211 399.164L186.663 404.393C187.503 414.399 187.825 415.303 192.344 418.66C203.641 427.245 225.913 435.25 246.054 438.091C255.415 439.382 275.749 438.93 283.496 437.251Z" fill="white"/>
<path fill-rule="evenodd" clip-rule="evenodd" d="M189.562 396.116L190.013 401.344C190.853 411.351 191.175 412.254 195.694 415.611C202.359 420.676 212.843 425.539 224.455 429.259C232.527 431.844 241.145 433.877 249.404 435.042C258.765 436.333 279.1 435.881 286.846 434.203C290.675 433.373 259.179 408.629 240.624 415.611C226.375 420.973 192.791 380.074 206.446 369.389C221.764 357.402 193.695 310.126 192.791 299.862C191.887 289.598 188.328 287.146 188.224 287.506C188.12 287.866 188.12 289.094 188.4 292.053C189.604 304.806 189.562 396.116 189.562 396.116Z" fill="#E7EAEE"/>
<path fill-rule="evenodd" clip-rule="evenodd" d="M186.199 296.932C187.554 296.668 188.867 297.553 189.13 298.908C194.002 323.939 214.611 340.885 251.463 349.746C288.533 358.66 313.784 358.179 327.088 348.665C328.211 347.861 327.374 354.74 326.552 355.267C317.874 360.832 288.371 369.135 253.163 361.63C208.146 352.035 187.01 314.183 184.222 299.864C183.959 298.508 184.843 297.196 186.199 296.932Z" fill="#FFB61D"/>
<path fill-rule="evenodd" clip-rule="evenodd" d="M167.426 251.77C168.625 251.085 213.336 302.328 274.696 313.927C336.056 325.526 350.912 318.149 353.3 302.328C353.506 300.963 354.78 300.023 356.145 300.229C357.51 300.435 358.45 301.709 358.244 303.074C355.217 323.126 326.825 327.895 273.855 318.856C221.55 309.93 185.69 288.724 166.498 255.182C165.812 253.984 166.228 252.456 167.426 251.77Z" fill="#FFB61D"/>
<path fill-rule="evenodd" clip-rule="evenodd" d="M424.963 248.929C423.284 248.348 421.477 247.057 420.315 245.572L418.378 243.183L425.221 236.405C435.744 226.076 443.813 215.489 450.785 202.901C453.109 198.705 458.983 184.697 458.983 183.341C458.983 182.889 459.694 181.081 460.533 179.209C461.824 176.498 462.792 175.465 465.568 173.916C468.86 171.979 472.605 171.334 474.218 172.431C477.317 174.497 477.317 181.017 474.218 192.249C470.797 204.579 466.214 213.424 456.724 226.141C455.239 228.078 452.463 231.886 450.462 234.533C445.104 241.634 441.618 245.056 436.906 247.702C432.258 250.285 429.546 250.607 424.963 248.929ZM471.313 243.119L475.961 245.185C476.925 245.63 487.558 250.738 500.329 256.875C520.92 266.769 547.071 279.334 547.23 279.334C547.489 279.334 548.7 276.533 548.973 273.266C549.619 266.23 552.007 256.675 554.783 250.026C556.074 247.057 557.107 243.345 557.107 243.023C557.107 242.875 556.058 242.452 554.34 241.759C552.294 240.934 549.302 239.727 546.004 238.148C529.736 230.337 497.91 214.392 493.972 212.003C490.099 209.744 489.324 209.55 489.324 211.035C489.324 212.972 485.386 221.945 482.352 226.786C480.739 229.433 477.575 234.21 475.316 237.374L471.313 243.119ZM546.133 267.714C547.984 268.787 544.777 270.361 544.003 270.619C539.441 271.007 534.071 270.149 529.671 267.585C527.371 265.954 509.256 255.89 497.24 249.215C491.747 246.163 487.528 243.819 486.678 243.313C483.966 241.699 481.384 239.956 480.932 239.439C479.577 237.696 480.868 236.922 484.676 237.244C486.966 237.438 542.134 265.397 546.133 267.714ZM283.716 436.72C288.696 435.63 296.426 432.368 301.348 430.291C302.552 429.783 303.587 429.346 304.374 429.029C308.378 427.414 320.577 410.188 324.967 390.756C328.13 376.425 329.744 356.026 327.937 352.604C326.847 350.623 333.321 357.27 338.143 362.221C339.605 363.721 340.915 365.066 341.816 365.967C369.962 393.92 411.858 416.385 455.368 426.907C477.059 432.201 492.488 434.073 513.21 434.073C548.005 434.073 575.441 427.23 600.359 412.189C601.543 411.474 602.652 410.818 603.709 410.192C612.395 405.049 617.57 401.986 631.733 386.044C647.619 368.162 661.751 326.653 666.464 312.322C668.529 305.866 673.565 280.19 673.565 273.783C673.565 266.197 670.918 262.615 667.303 258.935C660.912 252.673 652.261 250.414 645.096 253.125L641.739 254.416L640.706 250.995C639.221 245.83 636.123 241.699 631.346 238.6C624.245 233.888 623.212 233.565 616.821 233.565C611.85 233.565 610.494 233.823 607.331 235.308L603.651 236.986L602.877 234.662C601.392 229.885 596.412 223.226 592.548 221.299C589.121 219.591 583.189 219.434 579.056 220.202C570.018 221.88 563.563 226.076 560.916 231.951C560.141 233.758 559.173 235.179 558.786 235.179C558.463 235.179 545.746 231.627 530.575 224.913C528.016 223.777 525.612 222.711 523.355 221.711C496.113 209.636 490.208 207.019 490.745 203.74C491.196 200.964 491.067 199.415 490.293 197.027C488.937 193.024 487.388 191.927 482.998 191.927C479.512 191.927 479.512 191.927 479.899 190.184C481.965 180.307 481.901 174.626 479.706 171.011C478.221 168.622 476.478 167.654 472.475 167.073C470.151 166.75 469.054 166.944 466.472 168.364C464.729 169.268 463.244 169.913 463.115 169.784C462.986 169.655 463.438 166.105 464.148 161.909C469.441 130.858 465.352 104.104 451.86 75.6997C451.731 75.428 451.581 75.1066 451.41 74.7387C447.308 65.9328 430.815 30.5239 383.648 12.6571C381.513 11.8484 379.493 11.0665 377.551 10.3151L377.551 10.3149C361.484 4.09579 350.803 -0.0386061 325.032 0.00429806C296.146 0.0523869 286.363 4.13583 267.319 12.8508C264.673 14.0773 262.349 14.7874 262.155 14.5292C261.961 14.2064 260.735 13.4318 259.508 12.7862C258.282 12.1407 255.635 10.5268 253.698 9.23568C248.146 5.49148 244.725 3.94216 242.982 4.32949C240.981 4.84593 240.981 6.52437 242.982 7.29903C243.821 7.6218 244.79 8.71924 245.177 9.81668C246.016 12.1407 246.984 12.3989 247.565 10.4622C247.824 9.75212 248.211 9.23568 248.405 9.36479C248.478 9.40151 248.724 9.51657 249.099 9.69214L249.099 9.69222C250.043 10.1339 251.804 10.9586 253.698 11.8824C256.345 13.1735 259.25 14.5292 260.025 14.852C261.445 15.3684 260.993 15.7557 254.86 19.3708C230.91 33.4439 211.415 55.328 200.505 80.2463C198.826 83.9905 197.342 86.3145 195.792 87.6056C191.854 90.8979 184.108 100.258 182.3 103.938C181.332 105.939 179.266 109.038 177.652 110.845C176.103 112.653 174.424 114.977 173.843 115.945C173.327 116.978 172.811 117.688 172.617 117.559C172.488 117.366 172.681 114.202 173.133 110.523C174.102 101.937 174.102 99.6774 173.327 99.4837C172.165 99.161 170.487 103.68 169.776 109.296C169.26 112.718 169.131 117.882 169.454 123.175L169.841 131.568L165.258 124.144C163.682 121.662 162.13 119.179 161.027 117.416L161.027 117.415L161.026 117.415L161.026 117.414L161.024 117.41L161.022 117.409L161.022 117.408L161.022 117.407L161.021 117.406L161.019 117.403C160.32 116.284 159.802 115.457 159.577 115.106C157.898 112.653 156.93 108.973 157.64 107.747C158.027 107.037 157.963 106.714 157.317 106.714C155.962 106.714 153.315 111.039 151.572 116.01C150.733 118.334 149.893 120.27 149.635 120.27C148.667 120.27 149.119 97.1598 150.152 89.7359C152.282 75.0819 157.898 57.0065 160.416 57.0065C160.932 57.0065 161.384 56.7483 161.384 56.3609C161.384 55.1989 159.706 55.6508 158.35 57.1356C155.316 60.4279 151.314 70.563 148.796 81.3438C147.053 88.7676 145.956 98.3218 145.568 108.715C145.246 117.688 145.375 119.173 146.666 124.079C148.151 129.566 149.313 131.18 151.314 130.406C152.024 130.147 152.347 129.179 152.347 127.372C152.347 125.951 153.121 121.691 154.09 117.882L155.768 111.039L156.478 113.88C157.382 117.172 162.675 127.372 167.452 134.795C170.745 139.831 170.809 140.153 171.907 148.029C172.488 152.484 174.295 163.318 178.491 179.984C182.199 194.71 203.041 209.317 208.246 212.965L208.246 212.965L208.249 212.967C208.933 213.446 209.346 213.736 209.413 213.811C210.059 214.521 210.963 214.908 211.479 214.715C212.06 214.521 212.383 214.779 212.383 215.489C212.383 216.135 212.835 216.974 213.351 217.361C213.997 217.813 214.449 219.556 214.578 222.59C214.901 228.659 219.419 240.278 222.905 244.087C225.165 246.54 229.877 247.573 235.106 246.669C238.528 246.153 239.496 245.766 239.173 244.991C238.98 244.475 240.206 245.12 241.885 246.411C261.509 261.388 281.392 270.361 303.728 274.234C312.379 275.719 326.71 276.558 334.521 275.977C341.429 275.526 341.429 275.526 341.106 276.881C340.654 278.689 341.235 279.786 350.724 295.86C358.277 308.578 358.923 309.417 367.315 318.003C385.132 336.401 404.563 350.668 426.577 361.707C447.299 372.035 480.383 380.621 510.628 383.333C540.872 386.044 562.594 358.285 562.53 351.184C562.401 341.436 561.045 335.045 557.753 328.848C554.525 322.844 552.395 320.779 542.711 314.323C531.931 307.158 525.282 301.283 520.892 295.021C518.116 291.083 517.083 286.629 517.083 284.241C517.083 282.691 519.084 279.205 522.054 278.495C524.765 277.785 525.282 277.85 528.316 279.334C530.123 280.174 534.836 282.368 538.709 284.241C542.647 286.048 546.456 287.856 547.23 288.243C549.514 288.877 550.48 293.348 551.003 295.771C551.12 296.312 551.215 296.751 551.297 297.022C552.201 300.379 556.478 304.714 559.238 306.189C564.083 308.781 576.023 309.127 579.315 305.577C580.155 304.673 582.937 303.562 583.51 303.898C584.084 304.235 586.157 307.028 586.157 309.288C586.222 313.161 588.223 316.712 592.483 320.262C600.553 326.976 606.815 328.59 613.141 325.62C616.433 324.071 619.132 323.466 619.132 323.466C619.132 323.466 621.823 326.9 621.985 328.073C623.253 337.246 636.832 341.091 640.448 341.478C641.276 341.561 642.889 341.206 644.526 340.846C646.716 340.365 648.951 339.874 649.421 340.403C650.343 341.444 633.992 368.485 631.733 371.906C610.236 404.184 568.404 423.938 517.212 426.004C483.966 427.359 443.103 418.063 407.662 401.15C385.003 390.24 364.927 376.877 343.43 358.156C339.686 354.928 335.36 351.249 333.811 349.958C332.262 348.731 328.582 344.535 325.742 340.662C320.965 334.206 318.253 331.882 318.253 334.077C318.253 335.045 321.352 340.984 324.902 346.859C326.323 349.183 327.226 350.797 326.904 350.539C326.581 350.28 325.548 354.928 324.58 360.867C321.416 379.911 316.187 398.697 310.894 410.381C307.989 416.708 302.419 421.432 300.74 422.723C294.543 427.436 285.266 429.554 272.419 430.845C256.151 432.459 232.201 428.844 213.932 422.001C209.091 420.194 196.631 414.965 195.792 414.384C195.742 414.333 195.456 412.476 195.057 409.884C194.944 409.153 194.823 408.364 194.695 407.541C192.371 391.596 189.143 330.204 189.143 301.799C189.143 290.05 189.014 287.468 188.239 287.468C186.625 287.468 185.98 289.018 185.27 294.569C183.656 307.222 183.979 373.262 185.722 387.141L186.109 390.305L183.914 389.078C180.557 387.141 167.775 374.166 163.321 368.162C159.55 363.03 157.309 356.456 155.632 351.538C155.242 350.394 154.883 349.34 154.541 348.414C145.181 322.463 148.473 293.343 161.384 267.133C172.359 244.797 185.851 232.403 205.605 226.399C208.832 225.431 211.673 224.398 211.996 224.14C213.222 222.978 205.346 223.559 201.021 224.914C186.948 229.24 172.23 241.053 162.224 256.159C148.151 277.333 141.824 308.578 146.278 335.239C147.311 341.565 151.507 355.251 152.669 356.219C152.772 356.322 153.303 357.436 154.106 359.121C156.327 363.779 160.627 372.8 163.708 376.877C167.452 381.977 178.75 393.08 183.462 396.502L186.432 398.632L186.884 403.861C187.723 413.867 188.046 414.771 192.564 418.128C203.862 426.714 226.133 434.719 246.274 437.559C255.635 438.85 275.97 438.398 283.716 436.72ZM501.913 376.102C464.406 372.81 419.088 354.927 386.294 327.298C372.48 315.613 354.533 292.891 347.432 280.303C345.947 277.72 344.85 276.494 343.559 276.171C342.203 275.784 343.365 275.396 348.917 274.493C372.35 270.49 395.138 260.742 413.537 246.863L416.248 244.862L417.023 246.734C418.766 250.93 425.479 255.191 430.45 255.191C432.451 255.191 439.165 252.157 443.232 249.381L446.008 247.509L448.267 249.768C450.333 251.834 450.72 251.963 454.594 251.963C459.048 251.963 464.406 249.962 467.376 247.121L468.989 245.637L473.573 248.671C476.026 250.414 482.869 254.222 488.743 257.256C497.523 261.775 506.819 267.004 515.663 272.427L517.083 273.331L515.727 275.138C514.307 277.075 511.662 280.755 511.662 286.371C511.662 292.697 518.24 304.064 530.833 311.87C540.727 318.003 557.753 330.066 557.107 347.698C557.029 349.828 554.654 355.122 551.491 359.899C549.425 362.933 543.68 367.452 538.451 370.099C529.542 374.553 513.855 377.135 501.913 376.102ZM157.705 86.3145C159.448 86.7018 160.61 87.2828 160.351 87.5411C159.512 88.3803 155.058 87.9929 154.025 86.9601C152.411 85.4107 152.798 84.3133 155.058 83.8614C156.22 83.6677 157.963 82.6994 158.931 81.7311C159.9 80.7628 160.739 80.3109 160.739 80.6337C160.739 81.4729 157.511 84.4424 155.897 85.088C154.864 85.5398 155.187 85.7335 157.705 86.3145ZM183.398 87.3474C185.27 86.3145 184.882 85.6044 182.687 85.9272C180.493 86.2499 180.364 85.9917 181.784 83.7969C182.365 82.9576 182.687 81.7311 182.558 81.0855C182.365 80.2463 181.913 80.6337 180.88 82.6994C180.105 84.1842 179.008 85.4107 178.491 85.4107C176.878 85.4107 176.748 86.7018 178.298 87.2828C180.299 88.122 181.848 88.122 183.398 87.3474ZM161.062 52.1003C159.512 52.3585 154.671 54.2952 150.41 56.4255C146.085 58.4912 142.405 60.2342 142.147 60.1697C135.562 59.4596 144.729 48.4852 161.384 37.2526C177.329 26.4719 188.11 20.791 198.116 17.8861C204.378 16.0785 211.415 15.8203 213.416 17.3051C214.513 18.1443 214.126 18.2088 209.349 18.2734C199.02 18.2734 187.077 23.5669 167.646 36.5425C157.576 43.2562 145.891 52.8749 145.891 54.4243C145.891 54.747 147.763 54.1015 150.087 53.0686C155.058 50.8092 160.158 49.6472 162.417 50.1636C164.806 50.8092 164.289 51.6484 161.062 52.1003ZM186.044 57.652C192.113 56.4255 192.371 56.3609 192.371 55.7154C192.371 55.3926 190.047 55.0698 187.142 54.9407L181.913 54.747L186.754 49.2599C189.401 46.2258 192.5 43.1917 193.597 42.4816C195.986 40.9322 196.115 39.8348 194.178 39.1893L192.694 38.7374L194.307 38.1564C195.211 37.8336 196.89 37.7045 198.052 37.8982C199.795 38.1564 200.182 38.0273 199.988 37.1235C199.795 36.2197 199.085 36.0261 195.921 36.0906C186.69 36.2197 182.752 38.6728 189.982 39.8348C191.983 40.1576 193.662 40.674 193.662 40.9968C193.662 41.255 193.339 41.5132 192.952 41.5132C191.725 41.5132 181.332 52.0357 180.041 54.6179C178.04 58.4267 179.137 59.0077 186.044 57.652ZM228.651 32.6046C226.779 32.7337 226.327 33.0565 226.456 33.9603L226.476 34.0918C226.548 34.5693 226.59 34.8436 226.483 34.9269C226.338 35.0394 225.923 34.8037 224.947 34.25L224.777 34.154C223.551 33.5084 223.422 33.1856 224.132 32.6692C224.584 32.2819 225.81 31.7009 226.779 31.5072L228.586 31.0553L227.231 29.6351C226.52 28.7959 226.133 28.0212 226.327 27.763C226.843 27.2466 233.17 27.9567 234.073 28.6668C234.461 28.9895 235.042 28.925 235.429 28.5377C236.333 27.6339 237.559 28.344 237.559 29.7642C237.559 30.5389 237.366 30.6034 236.785 30.0224C236.268 29.506 235.816 29.506 235.235 29.9579C234.719 30.4098 234.332 30.4098 234.009 29.8933C233.815 29.5705 232.589 29.2478 231.298 29.2478C230.106 29.2478 229.543 29.2478 229.428 29.4748C229.325 29.6784 229.583 30.0645 230.071 30.7971C231.101 32.406 231.04 32.411 228.673 32.6029L228.651 32.6046ZM218.838 15.433C218.838 14.5938 218.064 13.109 217.095 12.1407L215.288 10.3331L224.971 10.7204C230.329 10.9787 236.397 11.5597 238.528 12.1407C240.658 12.6571 243.111 13.0444 244.015 13.0444C245.371 13.0444 245.112 12.7862 242.595 11.4306C238.205 9.17113 232.589 8.07369 221.808 7.29903C208.897 6.39526 202.377 7.6218 203.603 10.8496C203.797 11.4951 204.83 11.8179 206.379 11.8179C209.542 11.8179 214.707 13.69 216.45 15.433C218.322 17.3051 218.838 17.3051 218.838 15.433ZM187.335 186.375C192.564 193.089 199.472 200.706 202.7 203.288C204.636 204.838 206.315 206.129 206.444 206.129C206.508 206.129 205.088 203.159 203.281 199.544C195.986 185.019 191.725 170.559 189.724 153.904C189.272 150.224 188.562 147.125 187.787 145.834C186.238 143.252 186.238 139.895 187.852 136.732C188.691 135.054 189.143 132.923 189.143 130.599V127.049L186.044 130.277C183.01 133.44 180.105 134.731 180.105 132.794C180.105 131.374 184.882 124.531 187.4 122.401C189.401 120.722 189.659 120.141 190.305 115.106C190.757 112.072 191.79 106.714 192.629 103.163C193.533 99.6129 194.049 96.5788 193.92 96.4497C193.468 95.9978 178.298 113.421 176.232 118.979C175.778 120.2 174.554 122.336 173.585 123.627L171.907 125.782C171.907 125.782 172.428 128.8 173.004 132.593C173.586 136.424 173.859 139.058 174.103 141.404C174.428 144.543 174.7 147.166 175.586 151.451C176.619 156.744 177.652 161.328 177.91 161.65C178.104 162.038 178.943 165.007 179.783 168.299C181.59 175.594 184.624 182.824 187.335 186.375ZM449.3 247.444L447.945 246.088C447.945 246.088 470.445 217.501 474.477 206.968C477.553 198.93 479.364 196.65 481.807 196.65C483.174 196.65 484.289 196.962 484.805 197.737C485.709 199.092 486.58 200.771 485.418 206.516C483.482 215.812 480.512 221.945 471.603 235.179C469.538 238.213 466.891 241.57 465.729 242.732C463.018 245.249 456.918 247.831 453.367 248.412C451.108 248.735 450.462 248.606 449.3 247.444Z" fill="#00160A"/>
<path d="M628.053 310.596C636.085 288.713 634.869 284.051 633.476 283.595C633.476 283.595 630.409 285.338 629.053 289.018C626.536 295.925 617.918 314 614.69 317.228C610.882 321.037 610.882 321.037 607.008 321.037C603.135 321.037 591.964 315.204 590.443 309.454C588.01 300.255 598.487 268.295 598.745 266.488L597.002 265.261C595.84 266.359 580.726 312.193 560.851 300.25C558.576 298.883 553.75 292.439 553.363 289.018C551.212 279.076 561.082 244.313 562.76 237.173C564.263 230.782 572.084 224.85 581.703 224.85C596.486 224.85 594.5 237.772 601.122 242.326C604.056 244.343 608.878 240.685 610.365 240.408C618.693 238.858 621.884 240.662 627.989 245.507C632.701 249.247 636.188 256.65 640.026 259.258C642.158 260.706 644.42 258.726 645.16 258.354C648.198 256.829 654.715 257.967 656.522 259.258C659.172 260.413 665.665 266.655 666.691 270.285C671.341 286.739 656.659 323.217 651.117 330.06C641.942 341.387 620.022 332.478 628.053 310.596Z" fill="white"/>
<path fill-rule="evenodd" clip-rule="evenodd" d="M256.926 250.637C274.614 261.805 292.853 269.099 313.639 271.101C330.036 272.65 352.145 270.52 368.025 265.355C381.388 261.03 399.464 249.048 411.535 238.913C434.969 219.288 449.752 188.634 456.208 156.099C457.111 151.515 458.49 139.994 458.425 128.568C458.425 115.269 452.573 78.9287 434.84 57.9748C398.266 14.7575 338.146 -4.71064 287.62 11.9236C269.394 17.9242 249.988 28.7959 235.334 42.998C216.871 61.0089 203.25 85.5398 197.827 110.587C192.147 137.055 199.536 168.687 212.383 194.638C222.647 215.296 239.561 239.598 256.926 250.637ZM429.288 172.625C417.152 209.098 385.52 236.341 345.754 244.604C339.686 245.83 335.489 246.282 326.968 246.411C320.965 246.605 314.961 246.54 313.734 246.411C285.911 243.054 264.737 232.79 245.241 213.294C236.72 204.709 233.105 200.061 227.812 190.894C219.484 176.369 215.03 161.521 213.674 143.639C209.026 82.3766 252.859 31.3135 314.574 26.02C338.782 23.9543 365.637 31.3781 386.036 45.8384C393.589 51.1965 407.275 64.7531 411.535 71.0795C413.278 73.5971 430.192 98.3218 433.161 112.524C436.97 130.987 435.485 154.097 429.288 172.625Z" fill="white"/>
<path fill-rule="evenodd" clip-rule="evenodd" d="M458.448 128.568C458.448 171.898 437.952 219.269 411.5 239.5C398.88 249.152 382.387 260.84 368.025 265.355C346.978 271.972 313.639 271.101 313.639 271.101C313.639 271.101 347.651 266.554 360.255 261.481C396.399 246.936 416.129 224.608 428.312 203.184C452.361 160.895 458.448 127.515 458.448 128.568Z" fill="#E7EAEE"/>
<path fill-rule="evenodd" clip-rule="evenodd" d="M314.38 238.665C297.144 236.47 280.037 230.337 266.222 221.235C258.023 215.877 245.629 203.288 239.625 194.315C231.039 181.404 225.358 167.589 222.583 152.742C220.581 141.961 220.646 125.37 222.647 115.752C224.713 105.939 227.36 98.4509 232.072 88.9613C237.559 77.9869 243.369 69.9175 252.084 61.2026C266.932 46.3549 284.168 36.9298 304.697 32.411C311.346 30.9908 335.425 29.8288 336.264 30.9262C336.458 31.249 337.749 32.0882 339.105 32.7983C340.46 33.573 344.075 36.2843 347.045 38.931C351.499 42.8043 353.5 45.2574 357.374 51.3256C360.02 55.4572 362.151 59.2013 362.151 59.5241C362.151 60.2342 364.216 61.5253 365.378 61.5253C366.992 61.5253 368.09 56.6837 368.413 48.1624C368.606 43.4499 368.994 39.5766 369.252 39.5766C370.156 39.5766 380.097 45.0638 384.745 48.1624C393.847 54.2306 402.95 62.7519 409.663 71.6605C412.697 75.6629 413.149 76.6958 413.149 79.1489C413.149 81.4083 413.795 83.1513 415.796 86.6373C420.831 95.4168 424.769 106.456 427.158 118.657C428.707 126.855 428.707 142.348 427.093 150.934C422.703 174.561 409.663 198.059 392.685 212.972C378.29 225.56 362.99 233.307 344.915 237.115C338.717 238.471 320.125 239.375 314.38 238.665ZM268.223 194.509C268.804 193.863 269.191 192.895 268.998 192.443C268.94 192.307 268.131 191.927 266.948 191.371C264.19 190.075 259.395 187.82 257.317 185.471C249.054 176.046 246.02 169.01 244.148 154.485C242.34 140.347 243.859 130.79 247.117 115.429C248.707 107.936 252.932 101.746 255.56 97.8953C257.348 95.277 258.397 93.7399 257.378 93.6092C254.86 93.2219 254.473 93.4156 251.826 95.9332C246.145 101.356 243.563 105.681 240.852 114.009C236.656 127.049 235.845 162.29 244.148 178.176C252.45 194.063 266.738 196.187 268.223 194.509ZM360.02 140.283C358.924 150.311 354.275 164.814 348.852 171.14C346.335 174.109 337.093 179.209 329.292 178.176C321.757 177.179 315.865 173.658 310.829 166.105C306.504 159.585 304.27 151.67 302.76 141.703C300.152 124.491 311.54 104.454 316.446 99.4837C321.416 94.3839 324.967 92.5764 329.486 92.5118C333.876 92.5118 336.716 93.4801 341.17 96.6433C349.304 102.324 362.151 120.795 360.02 140.283ZM273 86.8955C274.291 85.4107 274.485 84.7006 274.098 81.9248C273.839 79.3425 273.323 78.3097 271.967 77.2122C269.579 75.2756 266.609 75.2756 264.414 77.3413C262.865 78.8261 262.671 79.3425 262.865 82.8931C263.059 86.7018 263.188 86.9601 265.318 88.122C268.158 89.6714 270.934 89.2195 273 86.8955ZM313.283 47.065C301.663 55.3926 296.627 58.814 291.398 62.0418C287.267 64.624 285.976 64.6885 285.976 62.3645C285.976 61.138 286.879 59.7823 289.203 57.652L292.431 54.6825L286.169 53.8433C279.133 52.9395 272.29 51.0028 270.805 49.5181C268.352 47.0004 270.482 46.4194 277.454 47.7105C280.553 48.227 286.557 48.8725 290.817 49.0016L298.564 49.3244L304.18 45.2574C316.51 36.3488 329.292 31.3135 335.425 32.8629C339.234 33.7666 338.782 34.7995 334.457 35.316C329.486 35.8969 326.452 37.5754 313.283 47.065Z" fill="white"/>
<path d="M329.873 169.332C329.873 169.01 330.26 168.687 330.777 168.687C331.293 168.687 331.939 169.01 332.133 169.332C332.326 169.72 331.939 169.978 331.229 169.978C330.454 169.978 329.873 169.72 329.873 169.332Z" fill="white"/>
<path d="M333.746 168.751C333.746 168.041 335.36 167.396 337.168 167.396C338.588 167.46 338.588 167.46 337.362 168.364C335.941 169.462 333.746 169.655 333.746 168.751Z" fill="white"/>
<path d="M323.74 167.073C323.547 166.557 323.289 165.653 323.095 165.136C322.901 164.491 323.224 164.168 324.063 164.168C324.773 164.168 325.354 164.555 325.354 165.072C325.354 165.588 325.548 166.427 325.742 167.008C326 167.719 325.806 168.041 325.096 168.041C324.515 168.041 323.87 167.589 323.74 167.073Z" fill="white"/>
<path d="M327.162 165.459C326.839 163.522 327.549 162.877 329.873 162.877C330.583 162.877 331.164 163.522 331.422 164.62C331.939 166.492 331.1 167.396 328.84 167.396C327.807 167.396 327.355 166.944 327.162 165.459Z" fill="white"/>
<path d="M320.577 165.782C319.351 164.814 319.351 164.814 320.706 164.814C321.546 164.814 322.127 165.201 322.127 165.782C322.127 166.944 322.127 166.944 320.577 165.782Z" fill="white"/>
<path d="M333.553 165.717C332.714 164.878 333.101 162.36 334.134 161.973C336.006 161.263 336.845 161.586 337.232 163.264C337.491 164.233 337.62 165.072 337.491 165.136C336.974 165.717 333.94 166.105 333.553 165.717Z" fill="white"/>
<path d="M339.298 164.362C339.105 164.168 338.911 163.329 338.911 162.554C338.911 161.457 339.427 161.005 340.977 160.682C342.332 160.424 343.172 160.553 343.559 161.069C344.204 162.102 344.204 163.393 343.623 163.716C342.461 164.362 339.75 164.749 339.298 164.362Z" fill="white"/>
<path d="M317.608 162.36C317.608 161.586 318.189 160.94 319.028 160.747C320.706 160.295 320.642 160.23 320.965 161.909C321.094 162.877 320.771 163.264 319.415 163.393C317.995 163.587 317.608 163.329 317.608 162.36Z" fill="white"/>
<path d="M322.514 162.425C321.61 161.457 322.191 159.649 323.418 159.649C324.257 159.649 324.709 160.101 324.709 160.876C324.709 162.102 323.224 163.135 322.514 162.425Z" fill="white"/>
<path d="M326.387 160.488C325.871 159.262 326.968 158.358 329.098 158.358C330.067 158.358 330.519 158.745 330.519 159.585C330.519 160.295 329.938 160.94 329.098 161.198C326.968 161.715 326.839 161.715 326.387 160.488Z" fill="white"/>
<path d="M345.044 160.295C345.237 159.972 345.56 159.649 345.754 159.649C345.947 159.649 345.883 159.972 345.689 160.295C345.496 160.682 345.173 160.94 344.979 160.94C344.785 160.94 344.85 160.682 345.044 160.295Z" fill="white"/>
<path d="M332.197 159.197C331.681 157.906 332.326 157.261 334.392 156.938C335.554 156.809 336.07 157.067 336.2 157.971C336.651 160.101 332.972 161.263 332.197 159.197Z" fill="white"/>
<path d="M316.704 158.1C316.123 155.969 316.252 155.776 317.931 155.776C318.834 155.776 319.544 156.034 319.544 156.357C319.544 156.68 319.738 157.39 319.932 157.906C320.125 158.552 319.738 158.939 318.641 159.133C317.414 159.391 316.962 159.133 316.704 158.1Z" fill="white"/>
<path d="M338.265 157.39C338.265 156.228 338.717 155.711 339.944 155.388C341.751 154.937 342.784 155.84 342.784 157.906C342.784 158.745 342.268 159.004 340.525 159.004C338.524 159.004 338.265 158.81 338.265 157.39Z" fill="white"/>
<path d="M314.767 157.39C314.574 156.873 314.703 156.421 315.025 156.421C315.413 156.421 315.671 156.873 315.671 157.39C315.671 157.906 315.542 158.358 315.413 158.358C315.284 158.358 315.025 157.906 314.767 157.39Z" fill="white"/>
<path d="M321.287 157.906C320.384 157.067 320.9 155.259 322.062 154.937C322.772 154.743 323.482 154.808 323.676 155.001C324.451 155.711 323.999 157.583 323.03 157.971C321.804 158.423 321.804 158.423 321.287 157.906Z" fill="white"/>
<path d="M344.334 157.454C343.623 155.582 344.398 154.162 346.206 153.968C347.561 153.775 347.949 154.033 347.949 155.066C347.949 157.196 347.239 158.358 345.947 158.358C345.237 158.358 344.527 157.971 344.334 157.454Z" fill="white"/>
<path d="M325.806 156.615C325.031 155.905 325.29 154.614 326.387 154.226C327.614 153.775 330.196 155.066 329.486 155.776C328.582 156.55 326.258 157.131 325.806 156.615Z" fill="white"/>
<path d="M331.422 155.001C330.841 154.097 332.907 152.548 334.586 152.548C335.36 152.548 335.683 152.935 335.554 153.646C335.296 154.937 332.003 155.97 331.422 155.001Z" fill="white"/>
<path d="M313.734 154.549C313.734 154.227 313.541 153.516 313.347 152.935C313.153 152.354 313.218 151.903 313.605 151.903C314.445 151.903 315.09 154.356 314.315 154.872C313.993 155.066 313.734 154.937 313.734 154.549Z" fill="white"/>
<path d="M315.477 153.064C315.09 151.644 315.865 150.611 317.35 150.611C318.189 150.611 319.028 153.129 318.512 153.968C317.801 155.066 315.8 154.42 315.477 153.064Z" fill="white"/>
<path d="M319.996 153.387C319.028 152.419 319.609 150.095 320.9 149.772C321.868 149.514 322.385 149.837 322.901 150.999C323.289 151.838 323.482 152.677 323.353 152.806C322.708 153.387 320.384 153.839 319.996 153.387Z" fill="white"/>
<path d="M337.426 153.387C336.587 152.548 336.974 152.032 338.911 151.322C340.525 150.805 340.977 150.87 341.299 151.644C341.88 153.194 338.653 154.678 337.426 153.387Z" fill="white"/>
<path d="M343.107 151.903C342.462 150.87 343.365 149.966 345.044 149.966C347.045 149.966 347.626 151.644 345.818 152.161C343.882 152.677 343.559 152.613 343.107 151.903Z" fill="white"/>
<path d="M348.594 150.353C348.594 149.385 349.756 148.352 350.273 148.868C350.725 149.32 349.821 151.257 349.175 151.257C348.852 151.257 348.594 150.87 348.594 150.353Z" fill="white"/>
<path d="M312.895 149.514C312.637 149.32 312.443 148.481 312.508 147.771C312.508 146.544 312.572 146.544 313.153 147.965C313.799 149.514 313.67 150.289 312.895 149.514Z" fill="white"/>
<path d="M314.122 148.546C313.541 146.286 313.605 146.093 315.284 146.093C317.156 146.093 318.318 148.481 316.898 149.385C315.413 150.289 314.574 150.03 314.122 148.546Z" fill="white"/>
<path d="M336.329 149.837C336.329 149.643 336.652 148.61 337.039 147.448C337.943 144.866 339.944 144.737 340.396 147.255C340.589 148.223 340.654 149.062 340.589 149.127C340.267 149.514 336.329 150.095 336.329 149.837Z" fill="white"/>
<path d="M318.705 148.223C318.447 148.029 318.253 147.255 318.253 146.544C318.253 145.512 318.447 145.447 319.222 146.093C319.738 146.544 320.19 147.319 320.19 147.771C320.19 148.739 319.415 148.998 318.705 148.223Z" fill="white"/>
<path d="M341.945 146.932C341.558 144.931 342.397 144.027 344.398 144.285C345.366 144.414 345.689 144.995 345.689 146.415C345.689 148.029 345.431 148.417 344.011 148.546C342.591 148.739 342.268 148.417 341.945 146.932Z" fill="white"/>
<path d="M348.271 147.19C347.432 144.608 347.69 143.833 349.433 143.639C350.983 143.446 351.176 143.639 351.176 145.318C351.176 146.738 350.789 147.319 349.821 147.577C349.111 147.771 348.401 147.577 348.271 147.19Z" fill="white"/>
<path d="M311.927 143.51C311.927 142.284 312.056 141.767 312.25 142.413C312.379 142.994 312.379 144.027 312.25 144.672C312.056 145.253 311.927 144.737 311.927 143.51Z" fill="white"/>
<path d="M313.541 144.35C312.702 143.575 313.089 141.057 314.122 140.67C315.607 140.089 316.317 140.799 316.317 142.929C316.317 144.285 315.994 144.801 315.155 144.801C314.509 144.801 313.734 144.608 313.541 144.35Z" fill="white"/>
<path d="M317.414 142.607C317.156 141.638 317.027 140.605 317.285 140.412C317.93 139.766 318.318 140.799 318.124 142.671L317.93 144.479L317.414 142.607Z" fill="white"/>
<path d="M338.265 142.155C338.265 141.445 338.588 141.057 338.911 141.251C339.298 141.445 339.556 142.09 339.556 142.607C339.556 143.123 339.298 143.51 338.911 143.51C338.588 143.51 338.265 142.929 338.265 142.155Z" fill="white"/>
<path d="M341.17 142.994C340.267 142.026 340.977 140.283 342.461 139.895C344.334 139.443 344.398 139.443 344.979 141.315C345.366 142.477 345.108 142.736 343.43 142.994C342.397 143.188 341.364 143.123 341.17 142.994Z" fill="white"/>
<path d="M347.109 141.767C346.399 141.122 346.593 138.991 347.303 138.991C347.69 138.991 347.949 138.733 347.949 138.346C347.949 138.023 347.561 137.7 347.045 137.7C345.947 137.7 345.044 134.537 345.947 133.633C347.109 132.471 348.4 133.698 349.175 136.861C349.627 138.54 350.079 140.476 350.273 141.122C350.531 141.961 350.273 142.219 349.046 142.219C348.207 142.219 347.303 142.026 347.109 141.767Z" fill="white"/>
<path d="M350.595 138.346C350.144 136.409 348.982 132.536 348.142 129.696C346.851 125.564 346.722 124.531 347.432 124.079C347.884 123.756 348.465 123.498 348.659 123.498C349.369 123.498 351.951 136.732 351.693 139.314L351.499 141.896L350.595 138.346Z" fill="white"/>
<path d="M311.281 138.023C311.281 136.99 311.41 136.603 311.604 137.248C311.733 137.829 311.733 138.733 311.604 139.185C311.41 139.572 311.281 139.121 311.281 138.023Z" fill="white"/>
<path d="M312.572 137.894C312.831 135.635 314.703 135.118 315.219 137.184C315.671 138.862 315.8 138.669 313.863 139.314C312.508 139.702 312.379 139.573 312.572 137.894Z" fill="white"/>
<path d="M339.815 137.313C339.298 135.441 340.396 134.344 342.461 134.602C344.011 134.795 344.592 137.571 343.301 138.41C341.687 139.443 340.202 138.991 339.815 137.313Z" fill="white"/>
<path d="M316.317 136.797C316.317 135.699 316.639 135.118 317.35 135.118C317.995 135.118 318.253 135.57 318.124 136.538C317.801 138.604 316.317 138.798 316.317 136.797Z" fill="white"/>
<path d="M310.571 134.085C310.571 133.375 310.765 133.182 310.959 133.698C311.152 134.15 311.088 134.731 310.894 134.925C310.7 135.183 310.507 134.795 310.571 134.085Z" fill="white"/>
<path d="M311.798 133.892C311.798 132.923 312.185 132.536 313.153 132.536C314.057 132.536 314.38 132.859 314.251 133.633C313.928 135.312 311.798 135.506 311.798 133.892Z" fill="white"/>
<path d="M315.348 133.311C314.896 132.149 314.896 132.149 316.833 131.632C317.995 131.245 318.253 131.439 318.253 132.407C318.253 133.956 315.929 134.731 315.348 133.311Z" fill="white"/>
<path d="M338.717 132.407C338.265 130.793 339.105 129.954 341.364 129.954C342.461 129.954 342.784 130.341 342.784 131.568C342.784 132.536 342.397 133.181 341.881 133.181C341.364 133.181 340.525 133.375 340.008 133.569C339.427 133.762 338.976 133.375 338.717 132.407Z" fill="white"/>
<path d="M344.334 130.922C343.817 129.631 344.592 128.663 346.076 128.663C346.98 128.663 347.303 129.115 347.303 130.277C347.303 131.439 346.98 131.89 346.012 131.89C345.302 131.89 344.527 131.439 344.334 130.922Z" fill="white"/>
<path d="M311.152 130.018C311.152 128.663 312.637 127.113 313.283 127.823C313.541 128.017 313.734 128.921 313.734 129.76C313.734 130.793 313.347 131.245 312.443 131.245C311.604 131.245 311.152 130.793 311.152 130.018Z" fill="white"/>
<path d="M314.703 129.244C314.186 127.63 314.767 126.92 316.962 126.597C318.963 126.339 319.609 128.469 317.866 129.76C316.188 130.987 315.155 130.793 314.703 129.244Z" fill="white"/>
<path d="M338.072 128.856C337.62 128.469 337.426 126.08 337.814 126.08C337.878 126.08 338.846 125.822 340.008 125.499C341.945 124.918 342.074 124.983 342.01 126.726C341.945 128.017 341.558 128.663 340.589 128.921C338.846 129.373 338.588 129.373 338.072 128.856Z" fill="white"/>
<path d="M335.683 127.372C335.683 126.92 335.877 126.726 336.135 126.92C336.329 127.178 336.329 127.565 336.135 127.823C335.877 128.017 335.683 127.823 335.683 127.372Z" fill="white"/>
<path d="M342.913 126.339C343.107 125.241 345.108 123.627 345.56 124.144C345.754 124.337 346.077 125.112 346.27 125.951C346.722 127.242 346.528 127.372 344.721 127.372C343.172 127.372 342.72 127.113 342.913 126.339Z" fill="white"/>
<path d="M311.798 126.274C311.798 125.951 312.121 125.306 312.443 124.789C312.96 124.015 313.089 124.079 313.089 125.306C313.089 126.08 312.831 126.726 312.443 126.726C312.121 126.726 311.798 126.532 311.798 126.274Z" fill="white"/>
<path d="M313.734 124.854C313.734 123.046 315.09 122.465 316.123 123.821C316.768 124.789 316.768 125.112 316.123 125.564C314.767 126.403 313.734 126.145 313.734 124.854Z" fill="white"/>
<path d="M333.359 124.015C332.197 122.724 332.197 122.659 333.295 123.046C333.94 123.305 334.779 123.498 335.102 123.498C335.425 123.498 335.683 123.95 335.683 124.467C335.683 125.822 334.779 125.693 333.359 124.015Z" fill="white"/>
<path d="M319.48 123.95C316.704 121.82 316.317 117.043 318.899 117.043C320.642 117.043 322.256 119.754 321.997 122.272C321.804 124.596 321.029 125.112 319.48 123.95Z" fill="white"/>
<path d="M337.168 124.337C337.426 124.144 337.813 124.144 338.072 124.337C338.265 124.596 338.072 124.789 337.62 124.789C337.168 124.789 336.974 124.596 337.168 124.337Z" fill="white"/>
<path d="M346.916 121.82C347.109 121.239 347.303 120.658 347.303 120.529C347.303 120.4 347.626 120.271 347.949 120.271C348.336 120.271 348.594 120.852 348.594 121.562C348.594 122.336 348.142 122.853 347.561 122.853C346.851 122.853 346.658 122.53 346.916 121.82Z" fill="white"/>
<path d="M313.089 121.626C313.089 120.141 314.445 117.688 315.219 117.688C316.575 117.688 315.607 121.82 314.186 122.078C313.605 122.207 313.089 122.013 313.089 121.626Z" fill="white"/>
<path d="M327.614 120.916L325.677 120.464L327.42 120.012C329.228 119.496 330.519 119.883 330.519 120.981C330.519 121.626 330.454 121.626 327.614 120.916Z" fill="white"/>
<path d="M325.354 117.817C325.354 115.171 326.839 114.783 328.195 117.107C329.099 118.657 329.163 118.979 328.324 118.979C327.807 118.979 326.968 119.173 326.387 119.367C325.613 119.69 325.354 119.302 325.354 117.817Z" fill="white"/>
<path d="M336.587 118.721C333.682 117.43 331.81 114.009 331.81 109.942C331.81 107.037 332.068 106.327 333.811 104.713C334.908 103.68 336.006 102.841 336.329 102.841C337.749 102.841 342.978 107.811 344.721 110.91L346.722 114.46L344.592 116.72C342.139 119.302 339.427 120.012 336.587 118.721Z" fill="white"/>
<path d="M323.095 117.043C322.901 116.72 323.03 116.397 323.353 116.397C323.74 116.397 324.063 116.72 324.063 117.043C324.063 117.43 323.934 117.688 323.805 117.688C323.611 117.688 323.289 117.43 323.095 117.043Z" fill="white"/>
<path d="M314.638 116.01C314.832 115.429 315.026 114.848 315.026 114.719C315.026 114.59 315.607 114.461 316.317 114.461C317.931 114.461 317.995 115.493 316.381 116.397C314.638 117.301 314.186 117.236 314.638 116.01Z" fill="white"/>
<path d="M319.738 115.235C318.253 115.042 317.801 114.202 318.77 113.621C319.028 113.428 320.19 113.105 321.352 112.847C323.095 112.459 323.418 112.588 323.418 113.686C323.418 115.042 322.062 115.623 319.738 115.235Z" fill="white"/>
<path d="M324.709 113.04C324.709 112.266 324.773 111.814 324.902 111.943C324.967 112.072 325.483 112.718 325.935 113.363C326.71 114.267 326.645 114.461 325.742 114.461C325.096 114.461 324.709 113.944 324.709 113.04Z" fill="white"/>
<path d="M315.671 112.588C315.671 112.201 315.994 111.749 316.317 111.556C316.704 111.362 316.962 111.62 316.962 112.137C316.962 112.718 316.704 113.169 316.317 113.169C315.994 113.169 315.671 112.911 315.671 112.588Z" fill="white"/>
<path d="M318.06 111.62C317.543 110.329 322.127 108.909 322.901 110.135C323.482 111.168 322.901 111.62 320.448 112.137C318.963 112.459 318.318 112.33 318.06 111.62Z" fill="white"/>
<path d="M324.128 109.554C324.128 108.844 324.321 108.651 324.515 109.167C324.709 109.619 324.644 110.2 324.451 110.394C324.257 110.652 324.063 110.264 324.128 109.554Z" fill="white"/>
<path d="M318.641 108.521C319.415 107.101 321.675 104.777 322.256 104.777C322.901 104.777 322.966 107.811 322.32 108.199C321.997 108.328 320.965 108.651 319.996 108.909C318.576 109.232 318.253 109.167 318.641 108.521Z" fill="white"/>
<path d="M323.805 107.037C323.095 105.1 323.418 104.261 324.967 104.003C326.581 103.68 326.581 103.68 325.548 105.681C324.257 108.263 324.321 108.263 323.805 107.037Z" fill="white"/>
<path d="M323.418 103.163C323.418 103.034 324.709 102.131 326.323 101.227C328.259 100.065 329.615 99.6774 330.583 99.9357C331.745 100.323 331.423 100.581 328.582 101.937C325.419 103.357 323.418 103.874 323.418 103.163Z" fill="white"/>
<path d="M359.246 45.9675C357.503 43.4499 353.823 39.3829 351.176 36.9298C348.53 34.4767 346.787 32.4755 347.303 32.4755C348.723 32.4755 359.569 35.4451 362.28 36.6071C364.539 37.5754 364.604 37.7045 364.023 39.7057C363.7 40.8677 363.442 43.7727 363.442 46.1612C363.442 48.6143 363.248 50.551 362.99 50.551C362.667 50.551 361.053 48.4852 359.246 45.9675Z" fill="white"/>
<path d="M227.876 241.505C225.229 240.149 224.648 239.375 221.292 232.726C216.45 223.3 216.321 221.106 220.904 226.464C222.712 228.594 226.908 232.984 230.2 236.211C235.816 241.634 236.075 242.021 234.203 241.763C232.847 241.57 232.33 241.699 232.653 242.215C233.428 243.377 230.975 243.054 227.876 241.505Z" fill="white"/>
<path fill-rule="evenodd" clip-rule="evenodd" d="M336.063 359.119C335.527 357.846 336.125 356.38 337.397 355.845L338.788 355.255C352.31 349.469 360.072 345.993 365.346 340.474C370.62 334.955 371.251 326.849 372.242 321.916C372.513 320.563 375.579 322.94 376.932 323.212C378.286 323.484 379.163 324.802 378.891 326.155C377.7 332.086 374.492 337.74 369.327 343.107C364.18 348.456 354.214 354.19 339.337 360.453C338.065 360.989 336.599 360.391 336.063 359.119Z" fill="#00160A"/>
<path fill-rule="evenodd" clip-rule="evenodd" d="M397.213 101.544C398.4 100.838 399.934 101.227 400.64 102.413C407.712 114.292 411.5 127.872 411.5 142C411.5 184.802 376.802 219.5 334 219.5C322.626 219.5 311.595 217.047 301.494 212.373C300.241 211.793 295.507 207.177 300.274 209.055C305.042 210.932 323.488 215.146 334.133 215.146C374.173 215.146 402.5 182.041 402.5 142C402.5 128.778 397.213 117.043 396.344 104.971C396.243 103.571 396.027 102.25 397.213 101.544Z" fill="#00160A"/>
<path fill-rule="evenodd" clip-rule="evenodd" d="M149.619 290.755C150.502 289.695 152.079 287.551 153.14 288.435C157.492 292.06 162.136 296.26 167.104 297.07C172.274 297.914 178.407 297.914 185.495 297.056C186.866 296.89 188.111 297.867 188.277 299.237C188.443 300.608 187.467 301.854 186.096 302.02C178.568 302.931 171.972 302.931 166.299 302.005C160.424 301.046 154.96 298.458 149.94 294.276C148.879 293.393 148.735 291.816 149.619 290.755Z" fill="#00160A"/>
<path d="M202.7 203.288C199.472 200.706 192.564 193.089 187.335 186.375C184.624 182.824 181.59 175.594 179.782 168.3C178.943 165.007 178.104 162.038 177.91 161.65C177.652 161.328 176.619 156.744 175.586 151.451C174.037 143.962 174.365 141.55 173.004 132.593C172.428 128.8 171.907 125.782 171.907 125.782L173.585 123.627C174.553 122.336 175.778 120.2 176.232 118.979C178.298 113.421 193.468 95.9978 193.92 96.4497C194.049 96.5788 193.533 99.6129 192.629 103.163C191.79 106.714 190.757 112.072 190.305 115.106C189.659 120.141 189.401 120.722 187.4 122.401C184.882 124.531 180.105 131.374 180.105 132.794C180.105 134.731 183.01 133.44 186.044 130.277L189.143 127.049V130.599C189.143 132.923 188.691 135.054 187.852 136.732C186.238 139.895 186.238 143.252 187.787 145.834C188.562 147.125 189.272 150.224 189.724 153.904C191.725 170.559 195.986 185.019 203.281 199.544C205.088 203.159 206.508 206.129 206.444 206.129C206.315 206.129 204.636 204.838 202.7 203.288Z" fill="white"/>
<path fill-rule="evenodd" clip-rule="evenodd" d="M471.313 243.119L475.961 245.185C476.925 245.63 487.558 250.738 500.329 256.875C520.92 266.769 547.071 279.334 547.23 279.334C547.489 279.334 548.7 276.533 548.973 273.266C549.619 266.23 552.007 256.675 554.783 250.026C556.074 247.057 557.107 243.345 557.107 243.023C557.107 242.875 556.058 242.452 554.34 241.759C552.294 240.934 549.302 239.727 546.004 238.148C529.736 230.337 497.91 214.392 493.972 212.003C490.099 209.744 489.324 209.55 489.324 211.035C489.324 212.972 485.386 221.945 482.352 226.786C480.739 229.433 477.575 234.21 475.316 237.374L471.313 243.119ZM546.133 267.714C547.984 268.787 544.777 270.361 544.003 270.619C539.441 271.007 534.071 270.149 529.671 267.585C527.371 265.954 509.256 255.89 497.24 249.215C491.747 246.163 487.528 243.819 486.678 243.313C483.966 241.699 481.384 239.956 480.932 239.439C479.577 237.696 480.868 236.922 484.676 237.244C486.966 237.438 542.134 265.397 546.133 267.714Z" fill="white"/>
<path d="M424.963 248.929C423.284 248.348 421.477 247.057 420.315 245.572L418.378 243.183L425.221 236.405C435.744 226.076 443.49 214.788 450.462 202.2C452.786 198.004 459.693 181.081 460.533 179.209C461.824 176.498 462.792 175.465 465.568 173.916C468.86 171.979 472.604 171.334 474.218 172.431C477.317 174.497 477.317 181.017 474.218 192.249C470.797 204.579 466.214 213.424 456.724 226.141C455.239 228.078 452.463 231.886 450.462 234.533C445.104 241.634 441.618 245.056 436.905 247.702C432.258 250.285 429.546 250.607 424.963 248.929Z" fill="white"/>
<path d="M449.3 247.444L447.944 246.088C447.944 246.088 470.445 217.501 474.477 206.968C477.553 198.93 479.364 196.65 481.807 196.65C483.174 196.65 484.289 196.962 484.805 197.737C485.709 199.092 486.58 200.771 485.418 206.516C483.481 215.812 480.512 221.945 471.603 235.179C469.538 238.213 466.891 241.57 465.729 242.732C463.017 245.249 456.918 247.831 453.367 248.412C451.108 248.735 450.462 248.606 449.3 247.444Z" fill="white"/>
<path fill-rule="evenodd" clip-rule="evenodd" d="M487.095 217.551C488.397 214.573 489.324 211.975 489.324 211.035C489.324 209.55 490.099 209.744 493.972 212.003C497.91 214.392 529.736 230.337 546.004 238.148C552.072 241.053 557.107 242.7 557.107 243.023C557.107 243.345 485.714 220.709 487.095 217.551Z" fill="#E7EAEE"/>
<path fill-rule="evenodd" clip-rule="evenodd" d="M266.222 221.235C258.023 215.877 245.629 203.288 239.625 194.315C231.039 181.404 225.358 167.589 222.583 152.742C220.581 141.961 220.646 125.37 222.647 115.752C224.713 105.939 227.36 98.4509 232.072 88.9613C237.559 77.9869 243.369 69.9175 252.084 61.2026C260.63 52.6564 222.647 87.9984 232.072 151.233C239.625 204.223 272.085 225.098 266.222 221.235Z" fill="#E7EAEE"/>
</svg>
