<svg width="750" height="440" viewBox="0 0 750 440" fill="none" xmlns="http://www.w3.org/2000/svg">
<path fill-rule="evenodd" clip-rule="evenodd" d="M140.262 391.938C185.532 441.215 360.593 412.909 475.863 412.909C525.591 412.909 692.471 437.832 623.559 266.668C397.609 -294.553 -3.17657 235.8 140.262 391.938Z" fill="#963EFF"/>
<path fill-rule="evenodd" clip-rule="evenodd" d="M340.561 395.902C340.781 395.733 341.012 395.55 341.108 395.289C341.415 394.455 340.21 393.9 339.321 393.92C338.03 393.949 336.376 394.818 336.77 396.047C336.999 396.758 337.875 397.088 338.61 396.957C339.345 396.826 339.969 396.357 340.561 395.902H340.561ZM344.397 381.269C345.372 381.574 346.334 381.952 347.183 382.52C348.776 383.587 349.86 385.244 350.9 386.854C351.646 388.009 352.403 389.186 352.775 390.51C353.178 391.943 353.106 393.473 352.836 394.937C351.995 399.499 349.18 403.661 345.26 406.139C341.34 408.618 336.373 409.376 331.891 408.181C331.019 407.948 330.141 407.631 329.47 407.027C328.906 406.519 328.526 405.843 328.178 405.169C326.353 401.63 325.122 397.698 325.263 393.719C325.403 389.739 327.039 385.712 330.138 383.211C334.026 380.072 339.629 379.772 344.397 381.269" fill="white"/>
<path fill-rule="evenodd" clip-rule="evenodd" d="M550.197 164.779C548.06 164.752 546.056 166.544 545.845 168.67C545.758 169.539 546.127 170.619 546.992 170.739C547.64 170.829 548.209 170.328 548.644 169.84C549.566 168.807 550.357 167.658 550.994 166.429C551.208 166.017 551.397 165.488 551.116 165.118C550.911 164.848 550.535 164.783 550.197 164.779ZM549.272 155.245C552.306 156.303 555.056 158.165 557.165 160.589C558.978 162.673 560.359 165.377 559.978 168.113C559.838 169.117 559.468 170.074 559.045 170.996C557.445 174.487 554.692 177.832 550.912 178.508C548.929 178.862 546.885 178.437 544.978 177.789C542.773 177.038 540.67 175.986 538.747 174.67C537.727 173.972 536.715 173.144 536.268 171.991C535.959 171.198 535.95 170.323 535.962 169.471C535.99 167.365 536.13 165.223 536.864 163.249C537.793 160.751 539.611 158.689 541.539 156.849C542.314 156.109 543.136 155.38 544.132 154.983C545.761 154.334 547.616 154.667 549.272 155.245" fill="white"/>
<path fill-rule="evenodd" clip-rule="evenodd" d="M550.2 3.28755C562.754 16.2341 572.662 31.7152 579.149 48.5159C579.594 49.6698 580.026 50.9516 579.601 52.1132C576.329 61.0567 570.014 68.5128 563.822 75.7628C559.865 80.3954 555.909 85.0281 551.952 89.6608C548.175 94.0833 544.397 98.5066 540.492 102.818C520.611 124.769 497.119 143.964 469.911 155.774C468.884 156.22 467.783 156.664 466.677 156.486C465.571 156.308 464.535 155.239 464.825 154.161C468.188 141.634 471.574 128.538 468.875 115.852C468.223 112.792 467.498 108.94 470.036 107.099C490.584 92.1921 505.379 70.8848 519.557 49.867C523.123 44.5822 526.678 39.2827 529.833 33.745C535.435 23.9129 539.748 13.3539 542.631 2.41959C543.027 0.919115 544.928 0.243454 546.435 0.636673C547.941 1.02989 549.118 2.17176 550.2 3.28755" fill="white"/>
<path fill-rule="evenodd" clip-rule="evenodd" d="M158.694 53.5833C160.735 72.0349 166.415 90.0768 175.314 106.369C180.824 116.457 187.525 125.837 194.209 135.188C198.86 141.695 203.833 148.476 211.09 151.839C213.02 152.733 212.75 155.515 212.233 157.578C209.994 166.493 208.95 175.708 209.136 184.898C209.154 185.767 209.176 186.667 208.835 187.465C207.677 190.177 203.709 189.725 200.978 188.616C184.076 181.755 171.1 167.957 158.979 154.327C143.241 136.629 127.737 118.155 118.44 96.3727C117.807 94.8919 117.194 93.3335 117.3 91.7269C117.408 90.09 118.249 88.602 119.102 87.2008C127.53 73.3577 139.255 61.5371 153.029 52.997C153.999 52.3955 155.035 51.7927 156.176 51.7532C157.317 51.7138 158.568 52.4487 158.694 53.5833" fill="white"/>
<path fill-rule="evenodd" clip-rule="evenodd" d="M547.736 377.275C549.193 374.807 550.998 372.089 553.825 371.621C554.94 371.436 555.528 370.225 555.907 369.161C560.581 356.051 561.031 341.473 557.176 328.1C556.075 324.283 557.43 320.236 558.771 316.497C562.23 306.846 565.69 297.196 569.149 287.545C567.167 284.116 561.941 284.218 559.264 281.3C555.818 277.545 558.417 271.575 561.116 267.253C576.885 242 592.653 216.747 608.422 191.494C610.353 188.4 614.593 187.431 618.146 188.255C621.699 189.079 624.733 191.316 627.656 193.498C639.156 202.088 650.656 210.678 662.157 219.268C668.329 223.878 675.143 229.767 674.787 237.463C674.591 241.721 672.154 245.506 669.797 249.059C660.682 262.792 651.568 276.526 642.454 290.26C637.319 297.998 638.737 308.159 637.185 317.315C634.733 331.781 624.813 343.662 615.627 355.103C606.442 366.544 597.25 379.319 596.734 393.983C596.118 411.459 587.816 428.528 574.446 439.801C578.324 430.394 553.825 434.146 525.801 422.996C530.412 406.682 539.119 391.875 547.736 377.275Z" fill="white"/>
<path fill-rule="evenodd" clip-rule="evenodd" d="M240.01 418.189C238.263 416.76 237.706 414.347 237.397 412.104C233.828 386.155 249.156 360.542 246.425 334.49C245.018 321.064 238.85 308.537 231.087 297.519C225.726 289.911 225.426 279.718 227.426 270.615C229.426 261.512 233.46 253 236.181 244.087C248.282 204.453 233.558 162.113 219 123.322C248.008 109.295 281.859 112.012 313.995 113.912C346.131 115.813 380.693 115.947 407.478 98C411.149 136.825 403.054 175.693 395.005 213.845C435.846 209.866 476.688 205.887 517.529 201.908C518.7 201.794 519.981 201.706 520.954 202.371C522.252 203.258 522.452 205.067 522.526 206.643C524.435 247.02 525.593 287.432 525.998 327.853C526.008 328.866 525.973 329.997 525.262 330.716C524.653 331.331 523.724 331.46 522.865 331.556C465.645 337.932 408.425 344.309 351.205 350.685C346.257 351.237 339.209 349.948 339.498 344.953C340.79 322.682 340.036 300.291 337.248 278.158C322.042 277.583 306.732 279.902 292.369 284.956C289.111 286.102 285.193 289.185 286.95 292.171C298.577 311.929 284.146 341.627 299.937 358.212C305.366 363.915 304.991 372.886 303.915 380.704C301.609 397.462 297.69 413.996 292.232 430C294.871 411.579 241.623 428.068 240.01 418.189Z" fill="white"/>
<path fill-rule="evenodd" clip-rule="evenodd" d="M76.3457 0.0267332C76.3946 0.420072 76.1818 0.833096 75.8331 1.02156C75.5554 0.743733 75.2777 0.465903 75 0.188073C75.4163 0.00599201 75.8884 -0.0459425 76.3344 0.0412939L76.3457 0.0267332Z" fill="#00160A"/>
<path fill-rule="evenodd" clip-rule="evenodd" d="M343.397 381.269C344.372 381.574 345.334 381.952 346.183 382.52C347.776 383.587 348.86 385.244 349.9 386.854C350.646 388.009 351.403 389.186 351.775 390.51C352.178 391.943 352.106 393.473 351.836 394.937C350.995 399.499 348.18 403.661 344.26 406.139C340.34 408.618 335.373 409.376 330.891 408.181C330.019 407.948 329.141 407.631 328.47 407.027C327.906 406.519 327.526 405.843 327.178 405.169C325.353 401.63 324.122 397.698 324.263 393.719C324.403 389.739 326.039 385.712 329.138 383.211C333.026 380.072 338.629 379.772 343.397 381.269M337.933 404.962C340.371 404.592 342.516 403 343.917 400.971C345.318 398.942 346.036 396.509 346.381 394.068C346.579 392.674 346.597 391.077 345.612 390.07C345.023 389.467 344.182 389.198 343.375 388.957C340.344 388.05 336.885 387.279 334.17 388.903C332.194 390.086 331.091 392.278 330.092 394.353C328.923 396.784 329.212 399.852 330.815 402.021C332.418 404.19 335.266 405.367 337.933 404.962V404.962Z" fill="#00160A"/>
<path fill-rule="evenodd" clip-rule="evenodd" d="M454.739 271.788C454.782 271.271 454.844 270.716 455.186 270.326C455.521 269.945 456.047 269.808 456.541 269.693C469.275 266.728 482.428 265.568 495.484 266.258C497.147 266.346 499.286 266.909 499.396 268.57C500.026 278.096 500.657 287.622 501.288 297.148C501.32 297.63 501.336 298.164 501.027 298.536C500.776 298.839 500.37 298.956 499.99 299.056C486.41 302.596 472.096 303.294 458.236 301.091C457.879 301.035 457.504 300.968 457.227 300.736C456.892 300.455 456.774 299.999 456.679 299.573C454.635 290.48 453.979 281.076 454.739 271.788ZM457.742 287.59C457.992 291.187 458.746 294.749 459.976 298.139C461.203 298.315 462.417 298.57 463.639 298.777C474.172 300.56 484.944 298.766 495.475 296.974C496.223 296.847 497.042 296.678 497.503 296.077C497.974 295.462 497.912 294.606 497.827 293.837C497.464 290.554 497.101 287.272 496.738 283.99C496.709 283.725 496.672 283.441 496.493 283.244C496.275 283.005 495.919 282.966 495.597 282.945C488.113 282.452 480.605 283.011 473.126 283.569C468.992 283.877 464.858 284.186 460.724 284.494C459.752 284.567 458.649 284.711 458.09 285.509C457.678 286.097 457.692 286.874 457.742 287.59ZM457.858 273.861C457.204 275.959 457.087 278.222 457.52 280.376C457.598 280.763 457.708 281.172 458.001 281.435C458.437 281.826 459.101 281.762 459.68 281.677C466.723 280.645 473.843 280.133 480.961 280.145C481.965 280.146 482.273 278.795 482.262 277.79C482.246 276.319 482.23 274.848 482.214 273.377C482.205 272.525 482.162 271.587 481.579 270.967C480.879 270.221 479.709 270.244 478.688 270.322C476.33 270.502 473.972 270.682 471.614 270.863C470.486 270.949 467.493 271.715 466.118 271.806C463.724 272.188 461.33 272.57 458.936 272.952C458.681 272.992 458.411 273.039 458.215 273.207C458.023 273.37 457.933 273.621 457.858 273.861ZM489.435 280.261C491.306 280.285 493.18 280.098 495.01 279.704C495.446 279.611 495.904 279.491 496.214 279.172C496.67 278.703 496.666 277.968 496.633 277.315C496.536 275.418 496.439 273.521 496.342 271.624C496.308 270.947 496.232 270.185 495.703 269.761C495.238 269.389 494.581 269.411 493.986 269.452C491.905 269.593 489.824 269.735 487.743 269.876C487.414 269.899 487.067 269.927 486.792 270.109C486.288 270.442 486.212 271.14 486.198 271.744C486.152 273.754 486.234 275.768 486.444 277.768C486.505 278.347 486.589 278.957 486.947 279.416C487.506 280.131 488.528 280.25 489.435 280.261Z" fill="#FFB61D"/>
<path fill-rule="evenodd" clip-rule="evenodd" d="M487.329 230.159C490.111 228.956 493.524 229.359 495.949 231.178C498.374 232.997 499.716 236.161 499.338 239.169C501.043 238.247 503.204 237.34 504.795 238.446C506.591 239.696 506.181 242.387 505.911 244.558C505.44 248.352 506.051 252.274 507.655 255.744C508.317 257.177 508.886 259.352 507.417 259.931C507.168 260.028 506.898 260.051 506.632 260.072C489.403 261.461 472.173 262.849 454.943 264.238C454.471 264.276 453.941 264.296 453.584 263.985C453.219 263.667 453.174 263.127 453.154 262.643C452.989 258.591 452.824 254.538 452.658 250.485C452.614 249.398 452.593 248.226 453.207 247.328C454.223 245.841 456.351 245.846 458.129 245.561C459.907 245.276 461.976 243.776 461.291 242.111C460.529 240.254 463.129 238.897 465.113 238.595C467.098 238.293 469.73 237.11 469.129 235.195C468.472 233.103 471.351 231.804 473.525 231.516C475.059 231.312 476.663 231.115 478.118 231.641C479.573 232.167 480.802 233.665 480.475 235.177C480.1 236.909 482.208 238.522 483.871 237.91C485.533 237.299 486.207 235.026 485.365 233.468C484.678 232.195 486.001 230.734 487.329 230.159ZM496.226 256.866C495.582 255.671 495.577 254.249 495.571 252.891C495.544 246.517 495.153 240.144 494.399 233.815C494.361 233.495 494.301 233.138 494.039 232.951C493.814 232.79 493.511 232.809 493.234 232.835C491.888 232.96 490.293 233.258 489.761 234.501C489.535 235.031 489.561 235.63 489.592 236.206C489.933 242.595 490.275 248.983 490.616 255.372C490.648 255.967 490.727 256.65 491.222 256.983C491.491 257.164 491.83 257.198 492.154 257.215C493.519 257.29 494.894 257.172 496.226 256.866ZM473.052 247.043C472.885 248.108 472.651 249.164 472.588 250.24C472.484 252.037 472.862 253.824 473.239 255.585C473.48 256.714 474.939 257.269 476.009 256.834C477.078 256.399 477.724 255.258 477.901 254.117C478.079 252.976 477.871 251.816 477.689 250.676C476.975 246.197 476.666 241.654 476.767 237.119C476.792 235.972 475.673 234.936 474.531 235.049C473.389 235.162 472.495 236.398 472.746 237.518C473.443 240.637 473.547 243.886 473.052 247.043ZM484.384 240.925C483.712 240.045 482.173 240.514 481.648 241.489C481.124 242.464 481.284 243.646 481.414 244.746C481.754 247.616 481.786 250.523 481.511 253.401C481.43 254.249 481.34 255.176 481.808 255.888C482.529 256.983 484.109 256.973 485.413 256.841C485.822 256.799 486.292 256.72 486.498 256.364C486.641 256.116 486.607 255.809 486.569 255.525C485.968 251.06 485.366 246.596 484.765 242.131C484.708 241.708 484.643 241.264 484.384 240.925ZM499.308 242.844C498.802 243.534 498.695 244.432 498.652 245.287C498.501 248.218 498.889 251.146 499.276 254.055C499.429 255.201 499.953 256.674 501.107 256.596C502.276 256.517 502.581 254.953 502.554 253.781C502.482 250.679 502.41 247.576 502.338 244.473C502.319 243.658 502.233 242.713 501.556 242.257C500.846 241.78 499.815 242.154 499.308 242.844ZM463.992 242.111C463.992 242.111 464.505 246.16 464.684 248.223C464.909 250.813 465.195 253.398 465.543 255.974C465.594 256.349 465.661 256.754 465.937 257.011C466.416 257.458 468.262 257.161 468.602 256.602C468.942 256.043 468.923 255.345 468.893 254.691C468.8 252.623 468.706 250.554 468.612 248.486C468.512 246.269 467.985 241.489 467.985 241.489M457.295 256.773C457.443 257.236 457.617 257.722 457.992 258.032C458.724 258.638 459.911 258.263 460.488 257.508C461.065 256.754 461.195 255.76 461.305 254.816C461.44 253.658 461.571 252.455 461.196 251.351C460.822 250.248 459.784 249.276 458.623 249.379C457.555 249.473 456.728 250.449 456.478 251.492C456.229 252.535 456.439 253.628 456.699 254.668C456.875 255.376 457.074 256.078 457.295 256.773Z" fill="#E7EAEE"/>
<path fill-rule="evenodd" clip-rule="evenodd" d="M527.141 90.9614C525.749 93.0495 524.241 95.1647 522.089 96.454C519.936 97.7432 516.965 97.9944 515.031 96.3961C512.897 94.6326 512.765 91.4537 512.934 88.6907C512.999 87.6269 513.084 86.5547 513.389 85.5334C513.917 83.7622 515.072 82.2507 516.277 80.8491C517.739 79.1487 519.358 77.5085 521.386 76.5516C523.414 75.5947 525.934 75.4267 527.835 76.6173C530.109 78.0423 530.951 81.0737 530.52 83.723C530.089 86.3723 528.629 88.7276 527.141 90.9614M522.723 93.1706C524.477 91.3023 525.981 89.1998 527.184 86.9366C527.975 85.4472 528.648 83.8284 528.616 82.1422C528.585 80.4561 527.696 78.6936 526.129 78.0679C524.09 77.2529 521.85 78.5566 520.146 79.9418C518.932 80.9279 517.757 82.0097 516.979 83.3659C516.486 84.2234 516.166 85.167 515.85 86.1037C515.25 87.8757 514.642 89.722 514.87 91.5787C515.099 93.4353 516.427 95.2992 518.288 95.4916C520.01 95.6696 521.538 94.4328 522.723 93.1706Z" fill="#FFB61D"/>
<path fill-rule="evenodd" clip-rule="evenodd" d="M168.799 114.562C170.978 116.77 172.777 119.352 174.093 122.16C175.416 124.983 174.082 128.612 171.487 130.339C168.892 132.066 165.383 132.043 162.537 130.77C159.691 129.497 157.455 127.122 155.808 124.475C154.566 122.48 153.603 120.243 153.5 117.895C153.396 115.547 154.261 113.076 156.118 111.636C157.997 110.18 160.639 109.972 162.911 110.671C165.183 111.37 167.129 112.871 168.799 114.562M160.296 113.22C158.411 113.026 156.736 114.756 156.412 116.624C156.089 118.492 156.801 120.387 157.722 122.044C159.72 125.636 163.285 128.827 167.39 128.628C169.501 128.526 171.814 127.064 171.777 124.951C171.761 124.038 171.31 123.195 170.86 122.4C169.664 120.287 168.372 118.197 166.647 116.489C164.922 114.781 162.711 113.469 160.296 113.22Z" fill="#FFB61D"/>
<path fill-rule="evenodd" clip-rule="evenodd" d="M333.573 392.453C335.087 391.303 336.969 390.559 338.866 390.681C340.764 390.803 342.641 391.892 343.435 393.619C344.287 395.473 343.756 397.777 342.427 399.325C341.098 400.873 339.096 401.728 337.075 402.011C335.696 402.203 334.052 402.03 333.297 400.86C332.933 400.296 332.85 399.6 332.777 398.932C332.645 397.734 332.514 396.535 332.382 395.336C332.327 394.828 332.273 394.301 332.436 393.816C332.628 393.247 333.094 392.817 333.573 392.453M339.561 395.902C339.781 395.733 340.012 395.55 340.108 395.289C340.415 394.455 339.21 393.9 338.321 393.92C337.03 393.949 335.375 394.818 335.77 396.047C335.999 396.758 336.875 397.088 337.61 396.957C338.345 396.826 338.969 396.357 339.561 395.902H339.561Z" fill="#00160A"/>
<path fill-rule="evenodd" clip-rule="evenodd" d="M547.99 9.13033C559.784 21.3397 569.093 35.9392 575.186 51.7832C575.605 52.8714 576.011 54.0801 575.612 55.1756C572.537 63.6098 566.605 70.6414 560.787 77.4785L549.635 90.5851C546.087 94.7558 542.538 98.9272 538.869 102.993C520.191 123.694 498.12 141.796 472.559 152.934C471.595 153.354 470.56 153.773 469.521 153.605C468.482 153.437 467.509 152.429 467.781 151.412C470.941 139.599 474.121 127.248 471.585 115.285C470.974 112.4 470.292 108.766 472.676 107.03C491.981 92.9722 505.881 72.8783 519.201 53.0574C522.551 48.0734 525.891 43.0757 528.855 37.8534C534.118 28.5812 538.171 18.6235 540.879 8.31179C541.251 6.89676 543.037 6.25958 544.452 6.63041C545.868 7.00123 546.973 8.07808 547.99 9.13033ZM539.735 24.2922C538.537 23.7966 537.432 25.1372 536.821 26.2814C536.16 27.5201 535.5 28.7607 534.839 30.0023C522.619 52.9555 510.212 76.2609 491.59 94.3398C489.83 96.048 487.864 98.1115 488.188 100.542C489.227 108.334 485.068 116.562 478.177 120.345C475.049 122.062 475.086 126.493 475.544 130.032C475.728 131.449 476.263 133.225 477.687 133.345C481.863 133.697 485.87 135.753 488.592 138.939C489.451 139.945 491.078 139.316 492.198 138.613C520.369 120.902 542.015 94.7428 563.149 69.0403C563.878 68.1536 564.654 67.0364 564.274 65.9532C561.076 56.8429 561.588 46.4895 565.671 37.7397C563.262 32.9466 560.391 28.3859 557.111 24.1412C551.653 26.5106 545.234 26.5664 539.735 24.2922ZM472.916 148.255C474.027 148.837 475.372 148.284 476.484 147.703C479.406 146.178 482.22 144.447 484.899 142.527C485.607 142.02 485.818 141.006 485.568 140.172C485.317 139.338 484.691 138.665 483.997 138.139C481.831 136.495 478.803 136.062 476.263 137.034C475.794 137.214 475.328 137.448 475.004 137.833C474.626 138.283 474.487 138.882 474.366 139.458C473.752 142.367 473.268 145.303 472.916 148.255ZM552.028 18.2259C550.114 14.4831 547.162 11.2779 543.589 9.06303C542.346 10.1587 542.104 11.8235 541.858 13.5208C541.689 14.6854 541.518 15.8653 541.019 16.8871C540.857 17.2195 540.659 17.5376 540.461 17.8549L540.46 17.8551L540.46 17.8554L540.46 17.8557C540.083 18.4604 539.707 19.0624 539.586 19.7568C539.401 20.8159 540.298 22.1446 541.315 21.7942C542.141 21.5092 543.007 21.6923 543.881 21.8768C544.342 21.9743 544.805 22.0721 545.265 22.1018C547.948 22.275 550.174 20.1731 552.028 18.2259ZM567.199 40.6586C565.149 44.7374 565.473 49.5548 565.846 54.1047L566.381 60.6299C566.439 61.3475 566.83 62.3159 567.522 62.1171C567.951 60.9152 568.769 59.9236 569.589 58.9294C570.307 58.0598 571.026 57.1882 571.488 56.1719C573.054 52.7305 571.316 48.7642 569.604 45.3933L567.199 40.6586ZM475.408 113.082C475.494 114.358 476.819 115.313 478.098 115.278C479.377 115.242 480.528 114.414 481.275 113.376C482.022 112.338 482.432 111.101 482.832 109.885L484.15 105.872C484.517 104.753 484.54 103.043 483.37 102.911C482.947 102.863 482.544 103.087 482.198 103.333C480.886 104.266 479.931 105.605 479.001 106.919L476.468 110.497C475.919 111.273 475.344 112.133 475.408 113.082ZM173.314 102.369C164.415 86.0768 158.735 68.0349 156.694 49.5833C156.568 48.4487 155.317 47.7138 154.176 47.7532C153.035 47.7927 151.999 48.3955 151.029 48.997C137.255 57.5371 125.53 69.3577 117.102 83.2008C116.249 84.602 115.408 86.09 115.3 87.727C115.194 89.3335 115.807 90.8919 116.44 92.3727C125.737 114.155 141.241 132.629 156.979 150.327C169.1 163.957 182.076 177.755 198.978 184.616C201.709 185.725 205.677 186.177 206.835 183.465C207.172 182.677 207.154 181.789 207.137 180.931L207.136 180.898C206.95 171.708 207.994 162.493 210.233 153.578C210.75 151.515 211.02 148.733 209.09 147.839C201.833 144.476 196.86 137.695 192.209 131.188C185.525 121.837 178.824 112.457 173.314 102.369ZM189.023 173.587C188.023 173.853 187.025 173.223 186.19 172.611C170.808 161.341 158.887 146.087 147.175 131.038L126.505 104.481C129.994 102.259 130.437 97.4311 130.513 93.2955C130.612 87.9197 130.684 82.385 128.742 77.3713C128.311 76.2569 128.873 75.022 129.474 73.9895C132.055 69.5613 135.634 65.7187 139.868 62.8303C140.278 62.5507 140.712 62.2729 141.203 62.2035C142.5 62.0203 143.495 63.2813 144.187 64.3924C146.924 68.7807 150.685 73.7434 155.844 73.3821C157.808 73.2446 158.898 75.5584 159.471 77.4423C166.597 100.87 179.977 122.001 195.667 140.802C197.706 143.245 198.218 146.542 198.725 149.809C199.29 153.453 199.85 157.059 202.515 159.402C204.791 161.402 204.369 164.994 203.754 167.961C203.629 168.568 203.479 169.218 203.018 169.633C202.675 169.94 202.213 170.069 201.768 170.187L189.023 173.587ZM152.556 67.9552C149.734 65.9835 147.296 63.464 145.419 60.5784C145.013 59.9543 144.619 59.2547 144.69 58.5135C144.767 57.7076 145.374 57.0627 145.977 56.5227C147.467 55.1893 149.151 54.0731 150.959 53.22C151.621 52.9076 152.476 52.6538 153.026 53.137C153.35 53.4215 153.452 53.876 153.537 54.2988L156.143 67.3339C156.297 68.1045 155.489 68.7985 154.704 68.8209C153.918 68.8433 153.2 68.4053 152.556 67.9552ZM126.763 93.1673C126.708 95.6192 126.521 98.3708 124.683 99.995C124.299 100.041 124.043 99.6187 123.893 99.262C122.569 96.1281 121.226 92.9186 121.018 89.5229C120.81 86.1272 121.948 82.4501 124.722 80.4818C125.098 80.2154 125.649 79.9955 125.98 80.315C126.113 80.4434 126.17 80.6298 126.219 80.8083C126.973 83.5799 126.914 86.4988 126.849 89.3705L126.763 93.1673ZM201.644 174.723C202.089 175.087 202.137 175.74 202.149 176.315L202.281 182.617C199.696 181.184 197.219 179.555 194.879 177.749C194.436 177.407 193.948 176.853 194.22 176.362C194.355 176.119 194.635 176.002 194.895 175.906C196.568 175.289 198.298 174.827 200.055 174.526C200.598 174.433 201.217 174.374 201.644 174.723ZM201.793 149.898C201.769 149.614 201.769 149.303 201.938 149.073C202.384 148.467 203.353 149.016 203.763 149.648C204.749 151.171 204.967 153.166 204.332 154.866C202.884 153.625 201.951 151.799 201.793 149.898ZM586.87 102.045C589.446 98.7999 594.143 98.333 598.286 98.4341C599.254 98.4577 600.25 98.5046 601.131 98.9061C603.582 100.023 604.102 103.225 604.185 105.917C604.26 108.367 604.246 110.848 603.651 113.225C603.055 115.602 601.824 117.893 599.855 119.351C598.97 120.007 597.943 120.485 596.857 120.667C595.178 120.948 593.46 120.517 591.865 119.923C589.739 119.132 587.723 118.046 585.893 116.705C584.999 116.05 584.076 115.192 584.047 114.084C583.981 111.529 584.267 108.966 584.895 106.489C585.296 104.905 585.854 103.324 586.87 102.045ZM593.552 118.207C596.86 119.157 600.379 116.597 601.632 113.391C602.886 110.186 602.422 106.585 601.733 103.213C601.468 101.919 600.085 101.195 598.81 100.849C596.835 100.313 594.736 100.242 592.73 100.643C591.733 100.843 590.715 101.184 590.016 101.922C589.634 102.324 589.371 102.82 589.112 103.31L587.173 106.973C586.833 107.617 586.489 108.267 586.289 108.968C585.689 111.064 586.482 113.391 587.945 115.007C589.409 116.622 591.456 117.605 593.552 118.207ZM549.272 155.245C552.306 156.303 555.056 158.165 557.165 160.589C558.978 162.673 560.359 165.377 559.978 168.113C559.838 169.117 559.468 170.074 559.045 170.996C557.445 174.487 554.692 177.832 550.912 178.508C548.93 178.862 546.885 178.437 544.978 177.789C542.773 177.038 540.67 175.986 538.747 174.67C537.727 173.972 536.715 173.144 536.268 171.992C535.959 171.198 535.95 170.323 535.962 169.472C535.99 167.365 536.13 165.224 536.864 163.249C537.793 160.751 539.611 158.689 541.539 156.849C542.314 156.109 543.136 155.38 544.132 154.983C545.761 154.334 547.616 154.667 549.272 155.245ZM552.374 173.603C554.566 171.434 555.842 168.289 555.495 165.224C555.147 162.159 553.073 159.283 550.172 158.237C548.966 157.802 547.629 157.681 546.394 158.022C545.727 158.207 545.102 158.521 544.519 158.892C542.021 160.48 540.268 163.19 539.842 166.119C539.417 169.047 540.326 172.144 542.268 174.378C543.511 175.808 545.54 176.421 547.421 176.184C549.301 175.946 551.026 174.936 552.374 173.603ZM275.485 137.178C275.383 135.733 273.451 135.354 272.003 135.396C264.401 135.62 256.808 136.189 249.258 137.103C248.017 137.253 247.917 139.252 248.912 140.008C249.908 140.763 251.294 140.623 252.531 140.447L275.485 137.178ZM251.182 146.949C251.247 146.205 252.183 145.936 252.925 145.852L297.703 140.781C298.513 140.689 299.376 140.606 300.105 140.971C300.833 141.336 301.303 142.333 300.827 142.995C300.476 143.483 299.803 143.582 299.205 143.64L253.406 148.084C252.453 148.176 251.098 147.903 251.182 146.949ZM351.567 154.492C349.062 155.042 346.491 154.138 344.088 153.24C336.32 150.337 328.581 147.353 320.874 144.29C317.763 143.054 314.349 144.905 311.551 146.744C303.453 152.063 295.656 157.841 288.211 164.041C286.299 165.634 283.356 164.516 281.427 162.944C281.019 162.611 280.618 162.256 280.215 161.9C278.713 160.573 277.191 159.228 275.248 158.952C272.261 158.529 269.634 160.793 267.469 162.894L253.512 176.449C251.635 178.272 249.659 181.192 251.33 183.206C252.432 184.534 254.456 184.467 256.171 184.268C265.125 183.23 274.034 181.775 282.941 180.32L282.942 180.32L282.942 180.32C297.663 177.915 312.375 175.512 327.264 174.997C330.563 174.883 333.865 174.862 337.166 174.841C339.234 174.827 341.301 174.814 343.368 174.778C352.691 174.616 362.005 173.988 371.266 172.897C371.713 172.844 372.223 172.752 372.456 172.365C372.631 172.073 372.587 171.705 372.538 171.368L368.615 144.68C368.416 143.324 368.068 141.756 366.829 141.17C365.577 140.579 364.102 141.342 363.074 142.27C361.466 143.723 360.227 145.652 359.005 147.555C357 150.677 355.04 153.729 351.567 154.492ZM287.869 169.095C296.246 162.207 304.981 155.755 314.027 149.771C315.884 148.543 318.142 147.285 320.218 148.092L342.152 156.615C345.813 158.038 349.817 159.479 353.575 158.338C357.944 157.012 360.555 152.665 362.756 148.665C363.183 147.887 364.428 147.976 365.045 148.616C365.661 149.255 365.817 150.196 365.944 151.075L367.549 162.204C367.796 163.913 368.038 165.687 367.544 167.341C367.05 168.996 365.599 170.498 363.873 170.465C335.639 169.92 307.35 172.248 279.584 177.402C278.725 177.562 277.865 177.724 277.005 177.886L277.004 177.887C270.371 179.139 263.713 180.396 256.972 180.418C260.227 175.808 264.352 171.892 268.447 168.009C270.696 165.877 273.508 163.578 276.527 164.275C278.157 164.652 279.408 165.823 280.652 166.989L280.652 166.989L280.652 166.989L280.653 166.989L280.653 166.989L280.653 166.99L280.653 166.99L280.653 166.99L280.653 166.99L280.653 166.99L280.653 166.99L280.654 166.99L280.654 166.991C281.052 167.364 281.45 167.736 281.859 168.082C283.548 169.507 286.162 170.499 287.869 169.095ZM650.094 246.734C649.345 247.013 648.509 246.822 647.747 246.582C642.584 244.959 638.391 241.329 634.27 237.762C633.712 237.279 633.155 236.797 632.597 236.321C625.769 230.497 618.359 225.355 610.513 220.998C609.715 220.555 608.878 220.088 608.389 219.317C607.9 218.546 607.915 217.372 608.669 216.857C612.187 214.455 614.469 210.333 614.636 206.076C614.681 204.941 615.963 204.185 617.094 204.276C618.226 204.367 619.212 205.047 620.138 205.704L655.989 231.153C656.687 231.648 657.439 232.223 657.61 233.061C657.749 233.746 657.463 234.438 657.174 235.074C655.628 238.486 653.85 241.793 651.856 244.964C651.404 245.682 650.889 246.437 650.094 246.734ZM614.227 216.544C613.805 217.287 613.44 218.362 614.123 218.876L643.379 240.904C644.981 242.11 647.471 243.241 648.732 241.682C650.181 239.891 651.534 238.024 652.784 236.09C653.126 235.56 653.474 234.956 653.351 234.338C653.239 233.773 652.764 233.364 652.318 233.002C641.581 224.296 630.213 216.369 618.333 209.303L614.227 216.544ZM599.667 230.014C600.139 229.204 600.713 228.317 601.629 228.118C602.331 227.966 603.044 228.266 603.69 228.58C607.213 230.291 610.439 232.609 613.184 235.403C613.844 236.075 613.926 237.157 613.632 238.052C613.338 238.947 612.732 239.701 612.138 240.432C611.184 241.608 610.167 242.831 608.759 243.389C607.239 243.991 605.471 243.701 604.031 242.926C602.592 242.151 601.437 240.939 600.419 239.66C599.091 237.991 597.902 235.99 598.108 233.868C598.243 232.477 598.963 231.221 599.667 230.014ZM605.828 239.354C608.044 240.216 609.461 239.533 609.519 238.08C609.556 237.163 608.756 236.457 608.029 235.898L605.828 234.205C605.101 233.646 604.299 233.06 603.381 233.066C602.464 233.071 601.53 234.018 601.905 234.855C601.849 235.259 603.613 238.493 605.828 239.354ZM597.083 257.24C597.624 257.536 598.196 257.826 598.812 257.838C599.428 257.851 600.096 257.503 600.247 256.906C600.602 255.504 601.53 254.342 602.437 253.205C602.536 253.08 602.635 252.956 602.733 252.833C603.727 251.574 604.687 250.149 604.713 248.545C604.74 246.942 603.412 245.233 601.823 245.451C600.572 245.624 599.407 244.803 598.498 243.926C598.353 243.786 598.209 243.642 598.065 243.498C597.304 242.739 596.531 241.968 595.521 241.639C594.319 241.248 592.683 241.87 592.588 243.13C592.396 245.668 590.287 247.579 588.331 249.206C587.745 249.693 588.274 250.628 588.822 251.158C591.288 253.541 594.075 255.593 597.083 257.24ZM597.474 252.405L593.621 249.798C592.641 249.136 592.72 247.512 593.593 246.714C594.467 245.917 595.825 245.856 596.938 246.255C598.051 246.654 598.978 247.437 599.878 248.205C600.473 248.714 600.556 249.639 600.283 250.373C600.01 251.107 599.456 251.695 598.915 252.261C598.73 252.455 598.523 252.661 598.257 252.695C597.975 252.731 597.71 252.565 597.474 252.405ZM628.022 252.577L629.906 248.573C630.483 247.348 631.042 245.831 630.263 244.722C629.993 244.337 629.594 244.066 629.204 243.803L622.349 239.184C621.61 238.685 620.808 238.168 619.917 238.182C618.861 238.199 617.975 238.953 617.225 239.696C616.102 240.81 615.051 241.998 614.083 243.249C613.346 244.201 612.741 245.768 613.748 246.429L624.237 253.311C625.065 253.854 626.116 254.412 626.985 253.94C627.496 253.662 627.774 253.102 628.022 252.577ZM625.697 249.743C625.257 249.844 624.797 249.732 624.364 249.602C621.716 248.804 619.292 247.275 617.43 245.23C616.811 244.55 617.161 243.349 617.948 242.872C618.735 242.395 619.758 242.504 620.606 242.861C621.154 243.091 621.655 243.411 622.157 243.732C622.432 243.908 622.707 244.084 622.99 244.245C623.295 244.418 623.612 244.577 623.93 244.737C624.831 245.188 625.734 245.641 626.349 246.423C627.18 247.48 627.008 249.441 625.697 249.743ZM629.24 254.214C630.449 253.927 630.818 252.694 631.202 251.413C631.519 250.354 631.847 249.262 632.666 248.643C634.076 247.577 636.074 248.468 637.593 249.372L642.425 252.246C643.195 252.705 643.983 253.179 644.536 253.884C645.088 254.59 645.359 255.589 644.973 256.397C644.715 256.937 644.228 257.295 643.736 257.655C643.334 257.951 642.929 258.248 642.646 258.649C642.283 259.164 642.148 259.809 642.014 260.446C641.846 261.246 641.681 262.034 641.071 262.537C639.959 263.453 638.305 262.719 637.075 261.968L630.267 257.808C629.581 257.388 628.856 256.927 628.519 256.197C628.182 255.466 628.457 254.4 629.24 254.214ZM638.165 258.345C639.139 258.012 639.923 257.289 640.675 256.585C641.22 256.075 640.491 255.236 639.84 254.87L635.67 252.521C635.234 252.276 634.629 252.053 634.292 252.421C633.205 253.606 633.048 255.541 633.927 256.887C634.807 258.233 636.643 258.864 638.165 258.345ZM590.311 258.199C589.378 257.936 588.427 257.668 587.665 257.148C586.48 256.34 584.832 256.536 583.589 257.25C582.346 257.964 581.419 259.108 580.522 260.226C580.025 260.846 579.513 261.493 579.323 262.266C579.133 263.038 579.36 263.974 580.055 264.361L587.328 268.415C587.878 268.722 588.494 269.04 589.109 268.903C589.722 268.767 590.145 268.223 590.514 267.715L592.385 265.14C593.427 263.707 594.515 261.88 593.754 260.28C593.143 258.998 591.747 258.604 590.311 258.199ZM588.009 264.869C587.629 264.97 587.238 264.786 586.887 264.608L581.932 262.086C582.885 260.738 584.697 260.22 586.34 260.384C587.983 260.547 589.508 261.277 590.994 261.996L588.717 264.361C588.513 264.573 588.294 264.794 588.009 264.869ZM553.683 164.036C554.45 165.206 554.21 166.769 553.701 168.072C553.03 169.789 551.896 171.381 550.295 172.294C548.694 173.208 546.59 173.341 545.03 172.359C543.469 171.377 542.686 169.194 543.522 167.551C543.715 167.171 543.979 166.834 544.243 166.497C544.496 166.175 544.748 165.853 544.939 165.492C545.065 165.255 545.163 165.003 545.261 164.752C545.402 164.389 545.542 164.027 545.766 163.711C546.56 162.586 548.125 162.365 549.501 162.385C551.063 162.407 552.826 162.73 553.683 164.036ZM550.197 164.779C548.06 164.752 546.056 166.544 545.845 168.67C545.758 169.539 546.127 170.619 546.992 170.739C547.64 170.829 548.209 170.328 548.644 169.84C549.566 168.807 550.357 167.658 550.994 166.429C551.208 166.017 551.397 165.488 551.116 165.118C550.911 164.848 550.535 164.783 550.197 164.779ZM601.296 109.055C601.132 107.099 599.823 105.175 597.922 104.685C595.507 104.062 593.166 105.762 591.249 107.358C590.682 107.829 590.09 108.337 589.85 109.034C589.442 110.218 590.175 111.465 590.897 112.488C591.724 113.658 592.608 114.836 593.814 115.609C595.021 116.383 596.63 116.684 597.896 116.011C598.541 115.669 599.043 115.109 599.48 114.522C600.652 112.947 601.461 111.012 601.296 109.055ZM595.941 114.071C595.122 114.194 594.273 113.863 593.671 113.296C592.768 112.446 592.41 111.079 592.726 109.88C593.058 108.618 594.117 107.575 595.385 107.264C596.653 106.952 598.075 107.385 598.954 108.35C598.921 108.613 598.894 108.878 598.866 109.143L598.866 109.143C598.773 110.043 598.679 110.944 598.368 111.789C597.965 112.883 597.094 113.898 595.941 114.071ZM530.938 419.234C535.39 403.482 543.797 389.186 552.117 375.089C553.523 372.706 555.266 370.082 557.996 369.63C559.072 369.452 559.64 368.283 560.006 367.255C564.518 354.598 564.953 340.522 561.231 327.61C560.169 323.925 561.477 320.018 562.771 316.407L572.792 288.453C571.75 286.651 569.779 285.859 567.783 285.056C566.113 284.385 564.424 283.707 563.247 282.424C559.92 278.798 562.43 273.034 565.036 268.86L610.71 195.714C612.575 192.727 616.668 191.79 620.099 192.586C623.53 193.382 626.46 195.542 629.281 197.649L662.593 222.53C668.552 226.981 675.131 232.667 674.788 240.097C674.598 244.209 672.245 247.864 669.969 251.294L643.569 291.075C640.155 296.219 639.741 302.473 639.325 308.755V308.756C639.137 311.597 638.949 314.444 638.482 317.197C636.206 330.628 627.261 341.751 618.691 352.408C618.349 352.834 618.008 353.258 617.667 353.682C608.798 364.728 599.924 377.063 599.425 391.221C598.831 408.096 590.814 424.576 577.906 435.46L589.139 408.21C591.81 401.729 594.284 393.667 589.813 388.268C587.791 385.825 584.733 384.533 581.799 383.329L564.354 376.171C563.151 375.678 561.911 375.177 560.611 375.169C556.558 375.144 554.147 379.539 552.504 383.244C546.819 396.06 539.558 408.177 530.938 419.234ZM588.301 382.227C591.292 383.334 595.503 384.007 596.921 381.15C603.781 367.321 610.83 353.226 621.75 342.314C628.043 336.025 631.902 327.633 634.085 319.007C636.268 310.382 636.886 301.448 637.495 292.572C634.845 293.536 634.615 297.112 634.626 299.932C634.651 306.149 633.564 312.369 631.432 318.208C630.986 319.431 630.387 320.751 629.192 321.267C627.998 321.783 626.238 320.747 626.639 319.509C629.721 310.01 630.869 299.888 629.994 289.94C629.723 286.855 629.148 283.556 626.956 281.37C627.194 286.24 627.431 291.132 626.938 295.983C626.084 304.376 623.075 312.378 620.092 320.269C619.705 321.294 619.236 322.411 618.253 322.892C617.269 323.374 615.742 322.611 615.999 321.546L620.466 303.082C622.922 292.93 625.337 282.009 621.535 272.28C619.62 272.152 619.169 274.89 619.34 276.802C620.511 289.894 616.892 302.889 613.308 315.536C612.89 317.012 611.409 318.858 610.259 317.843C609.763 317.405 609.74 316.65 609.78 315.99C610.006 312.271 611.026 308.67 612.044 305.074C612.36 303.957 612.676 302.842 612.968 301.723C615.661 291.408 616.348 280.575 614.979 270.003C612.619 273.027 611.619 276.863 610.674 280.581L605.068 302.648C602.533 312.624 599.295 323.591 590.507 328.95C589.807 329.377 588.996 329.774 588.198 329.585C587.206 329.35 586.645 328.325 586.231 327.394C580.623 314.761 579.922 300.023 584.307 286.916C584.573 286.12 583.764 285.289 582.928 285.223C582.091 285.157 581.309 285.613 580.623 286.096C573.428 291.173 570.672 300.37 568.383 308.874L565.34 320.18C564.895 321.832 564.448 323.498 564.356 325.206C564.214 327.801 564.892 330.341 565.567 332.867C565.723 333.453 565.879 334.037 566.025 334.622C568.952 346.369 567.629 359.127 562.355 370.024C561.578 371.631 563.631 373.092 565.304 373.712L588.301 382.227ZM599.668 274.318C598.468 273.491 597.183 272.548 596.812 271.139C596.243 268.979 598.301 266.808 600.516 266.518C602.731 266.227 604.898 267.296 606.734 268.57C609.319 270.363 612.592 267.628 614.528 265.147C611.916 263.585 609.425 261.16 609.322 258.118C609.219 255.076 612.917 252.179 615.378 253.969C616.333 254.664 617.489 255.089 618.631 255.509C620.343 256.139 622.026 256.758 622.965 258.257C624.033 259.962 623.653 262.268 622.566 263.961C621.479 265.654 619.806 266.869 618.172 268.043C620.517 268.275 622.8 269.111 624.74 270.448L626.855 264.286C627.019 263.808 627.197 263.309 627.573 262.971C628.298 262.321 629.426 262.522 630.354 262.816C632.789 263.589 635.177 264.796 636.784 266.781C638.391 268.767 639.061 271.652 637.938 273.946C636.815 276.241 633.646 277.465 631.498 276.081C631.052 275.794 630.605 275.41 630.157 275.027C628.96 274.001 627.763 272.975 626.607 273.796C630.136 276.544 632.559 280.672 633.239 285.092C644.347 268.172 655.336 251.174 666.204 234.099C667.242 232.469 668.079 229.9 666.389 228.963C659.171 224.959 652.792 219.596 646.427 214.246C638.394 207.493 630.385 200.761 620.745 196.808C620.133 196.557 619.464 196.314 618.825 196.482C618.154 196.659 617.683 197.242 617.261 197.792C599.31 221.222 583.2 246.061 569.127 272.005C567.164 275.625 569.792 279.94 572.305 283.201C573.561 284.831 575.986 286.552 577.356 285.017C579.082 283.082 581.912 281.976 584.357 282.84C586.802 283.704 588.323 286.883 586.993 289.11C586.032 290.72 587.914 292.509 589.559 293.41C592.846 295.211 596.217 296.856 599.658 298.34C600.136 298.546 600.693 298.748 601.159 298.515C601.602 298.293 601.782 297.765 601.921 297.288L605.733 284.172C606.359 282.015 606.779 279.215 604.929 277.941L599.668 274.318ZM667.86 237.549C667.354 237.376 666.892 237.882 666.594 238.327L638.052 281.053C637.284 282.202 636.497 283.397 636.273 284.761C636.049 286.125 636.551 287.711 637.792 288.318C639.848 289.324 641.998 287.211 643.317 285.341L669.836 247.755C671.806 244.965 670.139 241.149 668.454 238.179C668.308 237.922 668.139 237.645 667.86 237.549ZM587.499 294.603C586.996 294.237 586.245 294.455 585.824 294.913C585.404 295.37 585.232 295.997 585.073 296.598C584.683 298.077 584.291 299.572 584.233 301.1C584.175 302.629 584.453 304.149 584.73 305.654L587.463 320.511C587.578 321.134 587.712 321.796 588.154 322.25C588.595 322.703 589.456 322.802 589.813 322.279C593.859 316.363 597.962 310.331 600.078 303.483C600.341 302.631 600.417 301.434 599.583 301.121C595.287 299.504 591.21 297.305 587.499 294.603ZM619.063 257.945C617.693 256.64 615.882 255.806 614 255.614C612.284 255.439 611.294 257.85 612.077 259.386C612.861 260.923 614.591 261.684 616.192 262.326C617.322 262.779 618.693 263.206 619.678 262.491C621.094 261.463 620.33 259.152 619.063 257.945ZM607.795 275.161C608.353 274.764 608.426 273.952 608.27 273.284C607.68 270.769 604.923 269.485 602.447 268.748C601.49 268.463 600.298 268.264 599.623 269.001C599.06 269.616 599.18 270.635 599.666 271.313C600.152 271.991 600.912 272.409 601.647 272.804L605.471 274.864C606.197 275.255 607.122 275.64 607.795 275.161ZM629.553 266.097C628.743 267.181 628.826 268.758 629.501 269.93C630.177 271.102 631.347 271.916 632.581 272.471C633.004 272.661 633.468 272.828 633.923 272.737C634.315 272.66 634.65 272.396 634.889 272.076C635.772 270.896 635.343 269.118 634.331 268.046C633.319 266.973 631.879 266.436 630.493 265.934C630.254 265.847 629.975 265.763 629.757 265.894C629.737 265.906 629.718 265.92 629.7 265.935C629.644 265.981 629.597 266.039 629.553 266.097ZM246.045 364.363C246.575 360.45 247.317 356.144 250.391 353.666C252.842 351.691 256.208 351.375 259.356 351.315C269.668 351.117 280.013 352.791 289.737 356.233C292.813 357.321 296.032 358.755 297.714 361.551C299.534 364.578 299.09 368.396 298.587 371.892L290.778 426.144C296.163 410.433 300.029 394.201 302.304 377.749C303.366 370.074 303.736 361.267 298.379 355.668C290.017 346.929 290.245 334.481 290.477 321.823C290.677 310.899 290.88 299.82 285.566 290.835C283.832 287.903 287.698 284.876 290.913 283.751C305.083 278.789 320.188 276.512 335.191 277.077C337.942 298.806 338.686 320.787 337.411 342.652C337.125 347.555 344.08 348.821 348.962 348.279L518.325 329.499C519.172 329.405 520.089 329.279 520.689 328.674C521.391 327.969 521.425 326.859 521.415 325.864C521.016 286.182 519.874 246.508 517.99 206.87C517.917 205.322 517.72 203.546 516.439 202.675C515.479 202.022 514.216 202.108 513.06 202.221L392.175 213.939C400.117 176.485 408.103 138.327 404.481 100.211C378.055 117.831 343.956 117.699 312.249 115.833C310.932 115.755 309.611 115.676 308.288 115.597C277.775 113.774 245.956 111.872 218.525 125.071C232.888 163.152 247.415 204.719 235.476 243.629C234.42 247.071 233.163 250.453 231.907 253.833C229.97 259.044 228.035 264.251 226.838 269.672C224.865 278.609 225.161 288.616 230.45 296.085C238.109 306.901 244.195 319.199 245.584 332.38C246.901 344.887 243.957 357.291 241.017 369.682C237.945 382.628 234.877 395.559 236.676 408.576C236.981 410.778 237.53 413.146 239.254 414.55L246.045 364.363ZM258.028 207.192C261.231 207.306 262.504 211.327 262.913 214.505L266.156 239.674C259.825 236.392 250.918 241.963 251.099 249.093C245.764 238.795 244.954 226.993 244.151 215.311C243.977 212.77 243.803 210.234 243.582 207.721C241.227 180.843 233.127 154.846 225.077 129.095C223.929 125.423 228.887 123.042 232.693 122.484C257.673 118.821 282.954 119.327 308.247 119.833C319.712 120.062 331.179 120.292 342.621 120.133C362.953 119.851 384.466 117.927 400.959 106.033C404.666 130.745 399.627 155.677 394.653 180.296C393.98 183.626 393.308 186.95 392.659 190.268C387.214 218.109 383.508 247.785 393.926 274.172C394.365 275.284 392.868 276.122 391.698 276.366C383.129 278.153 374.27 278.538 365.578 277.501C361.85 277.056 358.161 276.353 354.471 275.649C351.692 275.12 348.913 274.59 346.117 274.17C325.064 271.011 303.09 274.29 283.876 283.457C283.106 283.824 282.19 283.652 281.384 283.373C277.493 282.026 274.717 278.431 273.332 274.553C271.947 270.675 271.749 266.49 271.564 262.376L270.789 245.123C270.761 244.504 270.923 243.662 271.544 243.642C305.201 242.591 338.82 240.322 372.313 236.841C370.897 228.917 370.757 220.766 371.899 212.797C372.62 207.767 367.889 203.18 362.852 202.507C357.815 201.834 352.834 204.115 348.651 207.002C347.087 208.082 345.584 209.255 344.083 210.427C341.57 212.389 339.061 214.348 336.266 215.867C334.437 216.861 332.237 217.662 330.316 216.86C327.966 215.877 327.177 213.081 326.474 210.585C326.43 210.428 326.386 210.272 326.342 210.118C325.425 206.903 323.912 203.703 321.249 201.681C318.587 199.66 314.57 199.156 311.942 201.222C309.695 202.989 308.985 206.049 308.608 208.882C308.575 209.134 308.542 209.388 308.51 209.642C308.176 212.247 307.831 214.939 306.276 217.028C304.57 219.321 300.762 220.304 298.89 218.144C295.189 213.872 288.694 212.976 283.244 214.475C277.793 215.974 273.13 219.437 268.608 222.829C265.88 218.56 265.654 212.812 268.039 208.342L268.079 208.268C268.527 207.429 269.043 206.465 268.646 205.611C268.401 205.081 267.859 204.757 267.323 204.527C264.116 203.151 260.019 204.327 258.028 207.192ZM354.399 279.34C356.192 279.697 358.396 280.497 358.507 282.322C359.564 299.728 373.397 315.369 390.404 319.222C407.411 323.074 426.259 315.284 436.176 300.94C446.092 286.596 446.869 266.67 438.737 251.244C430.017 234.7 408.825 225.915 390.957 231.436C390.128 227.78 390.221 223.919 391.226 220.307C391.413 219.637 391.656 218.936 392.197 218.498C392.726 218.07 393.441 217.973 394.116 217.891L444.448 211.829C448.873 211.296 453.309 210.762 457.766 210.726C476.932 210.568 496.083 208.657 514.902 205.024C517.826 244.29 519.202 283.671 519.026 323.045C519.017 324.913 518.449 327.395 516.582 327.449C484.905 328.372 453.478 332.539 422.038 336.707C400.915 339.508 379.787 342.309 358.573 344.128C353.845 344.533 349.085 344.89 344.36 344.44C343.504 344.358 342.538 344.183 342.073 343.46C341.792 343.023 341.76 342.478 341.737 341.959L338.913 278.981C338.876 278.167 338.925 277.186 339.63 276.778C340.097 276.507 340.682 276.604 341.211 276.71L354.399 279.34ZM267.735 264.759C267.234 268.03 266.671 271.71 268.814 274.185C276.807 283.416 285.111 293.278 287.235 305.303C288.227 310.918 287.801 316.697 287.377 322.452C286.842 329.702 286.31 336.915 288.619 343.716C288.679 343.893 288.741 344.071 288.804 344.249C289.228 345.462 289.66 346.698 289.523 347.963C289.365 349.415 288.105 350.876 286.665 350.628L269.956 347.746C264.422 346.792 258.576 345.863 253.319 347.838C252.303 348.22 251.133 347.55 250.589 346.611C250.044 345.672 249.973 344.541 249.925 343.456C249.868 342.147 249.826 340.828 249.783 339.506C249.513 331.187 249.238 322.713 245.387 315.424L233.103 292.169C231.289 288.736 229.433 285.15 229.308 281.27C229.224 278.678 229.924 276.133 230.617 273.634L236.746 251.559C238.036 246.911 239.401 242.116 242.457 238.383C249.88 250.977 250.612 267.269 244.349 280.478C243.77 281.7 245.54 282.958 246.802 282.471C248.063 281.984 248.704 280.602 249.148 279.325C250.93 274.21 251.555 268.817 252.18 263.416C252.686 259.047 253.193 254.672 254.314 250.435C255 247.839 255.99 245.19 257.995 243.403C259.999 241.617 263.268 241.005 265.368 242.678C266.975 243.958 267.498 246.145 267.804 248.177C268.61 253.538 268.607 259.019 267.793 264.379C267.774 264.505 267.754 264.632 267.735 264.759ZM296.567 221.177C299.03 223.062 301.442 224.908 304.398 224.566C308.154 224.132 310.495 220.265 311.586 216.644C311.824 215.852 312.037 215.041 312.25 214.228C313.01 211.327 313.775 208.404 315.766 206.221C316.344 205.587 317.177 204.996 317.999 205.245C318.664 205.446 319.052 206.121 319.361 206.743C319.799 207.626 320.214 208.524 320.628 209.421C321.797 211.954 322.967 214.487 324.665 216.687C326.964 219.668 330.543 222.012 334.285 221.602C337.631 221.235 340.246 218.866 342.794 216.556C343.316 216.083 343.836 215.612 344.359 215.161C350.497 209.868 358.491 206.771 366.593 206.548C365.5 209.279 366.229 212.258 366.944 215.182C367.116 215.886 367.287 216.586 367.432 217.279C368.576 222.747 367.998 228.563 365.8 233.698L311.686 237.864C299.053 238.837 286.388 239.81 273.726 239.365C272.926 239.337 272.105 239.298 271.37 238.984C269.98 238.389 269.154 236.906 268.855 235.424C268.184 232.101 269.716 228.641 272.036 226.17C274.357 223.698 277.387 222.034 280.363 220.412C283.46 218.723 286.898 216.978 290.351 217.699C292.649 218.178 294.624 219.69 296.567 221.177ZM399.038 300.004C390.84 299.835 383.737 293.147 381.303 285.317C380.806 283.718 381.84 281.964 383.265 281.087C384.691 280.209 386.416 280.001 388.08 279.815L400.091 278.465C396.439 271.365 393.837 263.725 392.397 255.871C392.267 255.159 392.148 254.411 392.373 253.722C392.768 252.513 394.071 251.877 395.276 251.472C405.036 248.192 416.754 252.174 422.493 260.722C428.232 269.27 427.48 281.626 420.744 289.413C417.828 292.784 414.006 295.272 409.981 297.187C406.548 298.82 402.839 300.082 399.038 300.004ZM437.94 257.803C439.399 262.62 439.82 267.686 440.021 272.715C436.745 272.219 433.437 271.937 430.124 271.873C429.476 263.414 423.847 255.772 416.445 251.626C409.044 247.48 400.11 246.585 391.746 248.004C391.676 246.812 391.458 245.568 391.241 244.323C390.667 241.04 390.094 237.757 392.217 235.426C393.499 234.018 395.452 233.455 397.324 233.107C405.851 231.518 414.943 233.182 422.354 237.689C429.765 242.195 435.427 249.501 437.94 257.803ZM377.815 284.463C377.802 284.619 377.788 284.773 377.782 284.92C377.726 286.089 378.271 287.161 378.81 288.222C378.955 288.506 379.099 288.79 379.231 289.074C379.856 290.421 380.158 292.194 379.114 293.248C376.587 295.799 374.354 298.64 372.473 301.699C372.008 302.455 370.863 302.517 370.098 302.066C369.333 301.615 368.859 300.81 368.417 300.04C365.621 295.165 362.755 290.066 362.406 284.457C362.363 283.76 362.44 282.915 363.058 282.59C363.331 282.447 363.652 282.443 363.96 282.442L376.464 282.404C376.763 282.403 377.078 282.406 377.337 282.554C377.951 282.902 377.881 283.712 377.815 284.463Z" fill="#00160A"/>
</svg>
