<svg width="1440" height="252" viewBox="0 0 1440 252" fill="none" xmlns="http://www.w3.org/2000/svg">
<g clip-path="url(#clip0_2460_10787)" filter="url(#filter0_b_2460_10787)">
<rect width="1440" height="252" fill="#F2FFFE" fill-opacity="0.7"/>
<g clip-path="url(#clip1_2460_10787)">
<g filter="url(#filter1_b_2460_10787)">
<path d="M0 -448H1440V363.601L0 619V-448Z" fill="white" fill-opacity="0.75"/>
</g>
<path d="M1260 146.005L1680 93.4878V157.488L1260 210.005V146.005Z" fill="#FDE255"/>
<path d="M828 136.808L1440 60V124L828 200.808V136.808Z" fill="#20E595"/>
<path d="M988 52.517L1408 0V64L988 116.517V52.517Z" fill="#EDE9FE"/>
<path d="M0 104.517L420 52V116L0 168.517V104.517Z" fill="#FDE255"/>
<path d="M-152 187.506L268 134.989V198.989L-152 251.506V187.506Z" fill="#EDE9FE"/>
</g>
<g clip-path="url(#clip2_2460_10787)">
<path d="M656.713 145.253L681.645 155.612C682.898 161.254 686.742 166.203 692.413 168.584C701.69 172.488 712.388 168.039 716.247 158.692C717.252 156.248 717.72 153.686 717.652 151.129L740.668 134.566C740.854 134.571 741.046 134.577 741.232 134.577C755.005 134.577 766.2 123.27 766.2 109.384C766.2 95.497 755.005 84.2 741.232 84.2C727.465 84.2 716.264 95.497 716.264 109.384C716.264 109.495 716.264 109.607 716.27 109.711L700.185 133.242C697.579 133.122 694.964 133.583 692.485 134.611C691.392 135.06 690.368 135.611 689.407 136.248L654.086 121.605C654.086 121.605 654.083 121.653 654.078 121.747C654.052 121.703 654.026 121.659 654 121.615C656.263 87.2096 684.914 60 719.929 60C756.418 60 786 89.5493 786 126C786 162.45 756.418 192 719.929 192C690.143 192 664.961 172.313 656.713 145.253Z" fill="black"/>
<path d="M712.405 157.067C709.418 164.289 701.177 167.715 694.013 164.709C690.708 163.323 688.213 160.783 686.774 157.754L694.902 161.146C700.185 163.362 706.246 160.839 708.442 155.521C710.645 150.197 708.146 144.083 702.865 141.867L694.463 138.361C697.705 137.123 701.391 137.077 704.835 138.52C708.306 139.975 711 142.714 712.428 146.214C713.855 149.714 713.849 153.578 712.405 157.067Z" fill="black"/>
<path fill-rule="evenodd" clip-rule="evenodd" d="M724.598 109.384C724.598 118.639 732.063 126.168 741.232 126.168C750.407 126.168 757.872 118.639 757.872 109.384C757.872 100.137 750.407 92.6057 741.232 92.6057C732.063 92.6057 724.598 100.137 724.598 109.384ZM741.261 121.963C734.365 121.963 728.768 116.321 728.768 109.359C728.768 102.396 734.365 96.7494 741.261 96.7494C748.161 96.7494 753.758 102.396 753.758 109.359C753.758 116.321 748.161 121.963 741.261 121.963Z" fill="black"/>
</g>
</g>
<defs>
<filter id="filter0_b_2460_10787" x="-100" y="-100" width="1640" height="452" filterUnits="userSpaceOnUse" color-interpolation-filters="sRGB">
<feFlood flood-opacity="0" result="BackgroundImageFix"/>
<feGaussianBlur in="BackgroundImageFix" stdDeviation="50"/>
<feComposite in2="SourceAlpha" operator="in" result="effect1_backgroundBlur_2460_10787"/>
<feBlend mode="normal" in="SourceGraphic" in2="effect1_backgroundBlur_2460_10787" result="shape"/>
</filter>
<filter id="filter1_b_2460_10787" x="-100" y="-548" width="1640" height="1267" filterUnits="userSpaceOnUse" color-interpolation-filters="sRGB">
<feFlood flood-opacity="0" result="BackgroundImageFix"/>
<feGaussianBlur in="BackgroundImageFix" stdDeviation="50"/>
<feComposite in2="SourceAlpha" operator="in" result="effect1_backgroundBlur_2460_10787"/>
<feBlend mode="normal" in="SourceGraphic" in2="effect1_backgroundBlur_2460_10787" result="shape"/>
</filter>
<clipPath id="clip0_2460_10787">
<rect width="1440" height="252" fill="white"/>
</clipPath>
<clipPath id="clip1_2460_10787">
<rect width="1440" height="752" fill="white" transform="translate(0 -448)"/>
</clipPath>
<clipPath id="clip2_2460_10787">
<rect width="132" height="132" fill="white" transform="translate(654 60)"/>
</clipPath>
</defs>
</svg>
