<svg width="1440" height="252" viewBox="0 0 1440 252" fill="none" xmlns="http://www.w3.org/2000/svg">
<g clip-path="url(#clip0_2471_10745)" filter="url(#filter0_b_2471_10745)">
<rect width="1440" height="252" fill="#F2FFFE" fill-opacity="0.7"/>
<g clip-path="url(#clip1_2471_10745)">
<g filter="url(#filter1_b_2471_10745)">
<path d="M0 -448H1440V363.601L0 619V-448Z" fill="white" fill-opacity="0.75"/>
</g>
<path d="M1260 146.005L1680 93.4878V157.488L1260 210.005V146.005Z" fill="#FDE255"/>
<path d="M828 136.808L1440 60V124L828 200.808V136.808Z" fill="#20E595"/>
<path d="M988 52.517L1408 0V64L988 116.517V52.517Z" fill="#EDE9FE"/>
<path d="M0 104.517L420 52V116L0 168.517V104.517Z" fill="#FDE255"/>
<path d="M-152 187.506L268 134.989V198.989L-152 251.506V187.506Z" fill="#EDE9FE"/>
</g>
<g clip-path="url(#clip2_2471_10745)">
<path fill-rule="evenodd" clip-rule="evenodd" d="M720 70.0752C698.659 70.0752 681.628 87.5331 681.628 108.726C681.628 121.605 686.668 132.712 695.659 139.63C697.64 141.154 699.335 143.428 699.985 146.313C700.518 148.68 701.127 151.565 701.731 154.622H715.395V147.668C715.395 146.751 715.645 145.854 716.115 145.08L721.039 136.989L709.993 127.912C708.132 126.381 707.681 123.624 708.953 121.534L716.115 109.761C717.481 107.516 720.328 106.855 722.473 108.284C724.618 109.713 725.25 112.692 723.884 114.937L718.961 123.028L730.007 132.105C731.868 133.635 732.318 136.393 731.047 138.482L724.605 149.072V154.622H738.268C738.872 151.565 739.482 148.68 740.015 146.313C740.664 143.428 742.359 141.154 744.341 139.63C753.332 132.712 758.372 121.605 758.372 108.726C758.372 87.5331 741.341 70.0752 720 70.0752ZM736.507 164.259H703.492C704.17 168.356 704.702 172.235 704.863 175.02C705.033 177.952 707.127 180.58 710.215 181.278L711.418 181.551C717.069 182.828 722.931 182.828 728.582 181.551L729.785 181.278C732.873 180.58 734.967 177.952 735.137 175.02C735.298 172.235 735.829 168.356 736.507 164.259ZM672.418 108.726C672.418 81.9043 693.87 60.438 720 60.438C746.13 60.438 767.581 81.9043 767.581 108.726C767.581 124.299 761.42 138.452 749.796 147.394C749.266 147.802 749.044 148.231 748.979 148.522C748.252 151.751 747.367 156.026 746.559 160.362C745.437 166.39 744.524 172.237 744.329 175.602C743.899 183.043 738.668 189.13 731.73 190.699L730.527 190.97C723.594 192.538 716.406 192.538 709.473 190.97L708.27 190.699C701.332 189.13 696.101 183.043 695.671 175.602C695.476 172.237 694.562 166.39 693.44 160.362C692.633 156.026 691.748 151.751 691.021 148.522C690.955 148.231 690.734 147.802 690.204 147.394C678.58 138.452 672.418 124.299 672.418 108.726Z" fill="black"/>
</g>
</g>
<defs>
<filter id="filter0_b_2471_10745" x="-100" y="-100" width="1640" height="452" filterUnits="userSpaceOnUse" color-interpolation-filters="sRGB">
<feFlood flood-opacity="0" result="BackgroundImageFix"/>
<feGaussianBlur in="BackgroundImageFix" stdDeviation="50"/>
<feComposite in2="SourceAlpha" operator="in" result="effect1_backgroundBlur_2471_10745"/>
<feBlend mode="normal" in="SourceGraphic" in2="effect1_backgroundBlur_2471_10745" result="shape"/>
</filter>
<filter id="filter1_b_2471_10745" x="-100" y="-548" width="1640" height="1267" filterUnits="userSpaceOnUse" color-interpolation-filters="sRGB">
<feFlood flood-opacity="0" result="BackgroundImageFix"/>
<feGaussianBlur in="BackgroundImageFix" stdDeviation="50"/>
<feComposite in2="SourceAlpha" operator="in" result="effect1_backgroundBlur_2471_10745"/>
<feBlend mode="normal" in="SourceGraphic" in2="effect1_backgroundBlur_2471_10745" result="shape"/>
</filter>
<clipPath id="clip0_2471_10745">
<rect width="1440" height="252" fill="white"/>
</clipPath>
<clipPath id="clip1_2471_10745">
<rect width="1440" height="752" fill="white" transform="translate(0 -448)"/>
</clipPath>
<clipPath id="clip2_2471_10745">
<rect width="96" height="132" fill="white" transform="translate(672 60)"/>
</clipPath>
</defs>
</svg>
