<svg width="1690" height="530" viewBox="0 0 1690 530" fill="none" xmlns="http://www.w3.org/2000/svg">
<g clip-path="url(#clip0_510_407)">
<g filter="url(#filter0_f_510_407)">
<circle cx="989.5" cy="426.5" r="238.5" fill="url(#paint0_linear_510_407)" fill-opacity="0.3"/>
</g>
<g filter="url(#filter1_f_510_407)">
<circle cx="295.5" cy="286.5" r="238.5" fill="url(#paint1_linear_510_407)" fill-opacity="0.3"/>
</g>
<g clip-path="url(#clip1_510_407)">
<mask id="mask0_510_407" style="mask-type:luminance" maskUnits="userSpaceOnUse" x="418" y="-59" width="1086" height="724">
<path d="M1504 -59H418V665H1504V-59Z" fill="white"/>
</mask>
<g mask="url(#mask0_510_407)">
<path d="M797.593 379.252L765.187 387.201L667.997 356.141L700.418 348.192L797.593 379.252Z" fill="url(#paint2_linear_510_407)"/>
<path d="M700.418 348.192L667.997 356.142L636.749 245.63L669.17 237.695L700.418 348.192Z" fill="url(#paint3_linear_510_407)"/>
<path d="M669.17 237.695L636.749 245.63L702.677 166.164L735.097 158.229L669.17 237.695Z" fill="url(#paint4_linear_510_407)"/>
<path d="M735.098 158.229L832.258 189.274L863.521 299.8L797.593 379.252L700.418 348.192L669.17 237.695L735.098 158.229Z" fill="url(#paint5_linear_510_407)"/>
<path d="M735.098 158.229L832.258 189.274L863.521 299.8L797.593 379.252L700.418 348.192L669.17 237.695L735.098 158.229Z" fill="url(#paint6_linear_510_407)"/>
<path d="M989.395 137.638L932.272 136.422L893.726 61.5171L950.849 62.7189L989.395 137.638Z" fill="url(#paint7_linear_510_407)"/>
<path d="M950.849 62.719L893.726 61.5171L958.032 15.9341L1015.16 17.1504L950.849 62.719Z" fill="url(#paint8_linear_510_407)"/>
<path d="M1015.16 17.1504L1053.69 92.0554L989.395 137.638L950.85 62.7189L1015.16 17.1504Z" fill="url(#paint9_linear_510_407)"/>
<path d="M1017.41 211.602L1028.45 200.887L1022.29 179.066L1011.27 189.781L1017.41 211.602Z" fill="url(#paint10_linear_510_407)"/>
<path d="M1011.27 189.781L1022.29 179.066L1001.27 181.875L990.25 192.59L1011.27 189.781Z" fill="url(#paint11_linear_510_407)"/>
<path d="M990.25 192.59L996.389 214.411L1017.41 211.602L1011.27 189.781L990.25 192.59Z" fill="url(#paint12_linear_510_407)"/>
<g filter="url(#filter2_d_510_407)">
<mask id="mask1_510_407" style="mask-type:luminance" maskUnits="userSpaceOnUse" x="1076" y="-59" width="376" height="375">
<path d="M1197.91 -59L1451.89 194.979L1330.88 315.989L1260.66 241.851L1151.05 132.237L1076.9 62.0094L1197.91 -59Z" fill="white"/>
</mask>
<g mask="url(#mask1_510_407)">
<path d="M1091.12 301.784C1113.68 324.35 1142.43 339.718 1173.73 345.945C1205.03 352.172 1237.47 348.977 1266.96 336.765C1296.44 324.553 1321.64 303.873 1339.37 277.339C1357.1 250.804 1366.56 219.608 1366.56 187.696C1366.56 155.783 1357.1 124.587 1339.37 98.0528C1321.64 71.5186 1296.44 50.8379 1266.96 38.626C1237.47 26.4141 1205.03 23.2195 1173.73 29.4462C1142.43 35.6729 1113.68 51.0413 1091.12 73.6078C1076.13 88.5894 1064.25 106.376 1056.14 125.951C1048.03 145.526 1043.86 166.507 1043.86 187.696C1043.86 208.884 1048.03 229.865 1056.14 249.44C1064.25 269.016 1076.13 286.802 1091.12 301.784ZM1260.03 132.874C1270.87 143.719 1278.26 157.535 1281.25 172.576C1284.24 187.618 1282.7 203.209 1276.84 217.377C1270.97 231.546 1261.03 243.657 1248.28 252.177C1235.53 260.697 1220.53 265.245 1205.2 265.245C1189.86 265.245 1174.87 260.697 1162.12 252.177C1149.37 243.657 1139.43 231.546 1133.56 217.377C1127.69 203.209 1126.16 187.618 1129.15 172.576C1132.14 157.535 1139.52 143.719 1150.37 132.874C1157.57 125.673 1166.12 119.96 1175.52 116.062C1184.93 112.164 1195.01 110.158 1205.2 110.158C1215.38 110.158 1225.46 112.164 1234.87 116.062C1244.28 119.96 1252.83 125.673 1260.03 132.874Z" fill="url(#paint13_radial_510_407)"/>
</g>
<path d="M1319.92 301.115C1329.06 291.983 1323.19 271.313 1306.83 254.948C1290.46 238.583 1269.79 232.72 1260.66 241.852C1251.53 250.985 1257.39 271.655 1273.76 288.02C1290.12 304.385 1310.79 310.248 1319.92 301.115Z" fill="url(#paint14_linear_510_407)"/>
<path d="M1151.04 132.235C1160.18 123.103 1154.31 102.433 1137.95 86.0678C1121.58 69.7028 1100.91 63.8397 1091.78 72.9722C1082.65 82.1047 1088.51 102.774 1104.88 119.139C1121.24 135.504 1141.91 141.367 1151.04 132.235Z" fill="url(#paint15_linear_510_407)"/>
<mask id="mask2_510_407" style="mask-type:luminance" maskUnits="userSpaceOnUse" x="660" y="482" width="269" height="183">
<path d="M895.13 664.45L660.004 594.946L693.12 482.914L759.395 504.475L860.885 534.477L928.246 552.418L895.13 664.45Z" fill="white"/>
</mask>
<g mask="url(#mask2_510_407)">
<path d="M841.54 413.251C820.648 407.073 798.394 407.23 777.591 413.701C756.788 420.171 738.371 432.666 724.669 449.603C710.967 466.541 702.596 487.162 700.614 508.857C698.632 530.553 703.128 552.349 713.533 571.49C723.939 590.63 739.787 606.255 759.073 616.388C778.358 626.522 800.216 630.708 821.882 628.419C843.547 626.129 864.047 617.467 880.789 603.526C897.531 589.586 909.763 570.994 915.938 550.101C924.218 522.088 921.032 491.933 907.08 466.269C893.127 440.605 869.552 421.534 841.54 413.251ZM795.305 569.635C785.265 566.665 776.331 560.784 769.633 552.737C762.935 544.69 758.774 534.837 757.676 524.424C756.577 514.012 758.591 503.508 763.463 494.24C768.334 484.972 775.844 477.357 785.044 472.357C794.243 467.358 804.718 465.198 815.145 466.152C825.571 467.106 835.481 471.13 843.621 477.715C851.76 484.301 857.764 493.153 860.873 503.15C863.983 513.148 864.057 523.844 861.088 533.884C859.116 540.551 855.851 546.764 851.478 552.169C847.105 557.574 841.71 562.064 835.601 565.384C829.493 568.704 822.79 570.788 815.876 571.518C808.962 572.247 801.972 571.607 795.305 569.635Z" fill="url(#paint16_radial_510_407)"/>
</g>
<path d="M759.399 504.5C761.898 496.049 751.639 485.566 736.485 481.086C721.331 476.606 707.021 479.825 704.523 488.276C702.024 496.727 712.283 507.21 727.437 511.69C742.591 516.17 756.901 512.951 759.399 504.5Z" fill="url(#paint17_linear_510_407)"/>
<path d="M915.746 550.721C918.245 542.269 907.986 531.787 892.832 527.306C877.678 522.826 863.368 526.045 860.869 534.497C858.371 542.948 868.63 553.431 883.784 557.911C898.937 562.391 913.248 559.172 915.746 550.721Z" fill="url(#paint18_linear_510_407)"/>
</g>
<path d="M1128.98 512.41L1259.77 478.02L1306.35 351.059L1128.98 512.41Z" fill="url(#paint19_linear_510_407)"/>
<path d="M1259.77 478.02L1357.39 585.345L1128.98 512.41L1259.77 478.02Z" fill="url(#paint20_linear_510_407)"/>
<path d="M1259.77 478.02L1357.39 585.345L1306.35 351.059L1259.77 478.02Z" fill="url(#paint21_linear_510_407)"/>
<path d="M1035.86 373.141L1052.47 395.02L1008.67 382.249L992.06 360.384L1035.86 373.141Z" fill="url(#paint22_linear_510_407)"/>
<path d="M1105.06 304.404L1121.67 326.284L1101.57 370.694L1084.96 348.814L1105.06 304.404Z" fill="url(#paint23_linear_510_407)"/>
<path d="M1069.51 382.958L1086.12 404.823L1066.01 449.248L1049.41 427.369L1069.51 382.958Z" fill="url(#paint24_linear_510_407)"/>
<path d="M1049.41 427.369L1066.01 449.248L1032.36 439.445L1015.75 417.566L1049.41 427.369Z" fill="url(#paint25_linear_510_407)"/>
<path d="M1113.3 395.715L1129.91 417.58L1086.12 404.823L1069.51 382.958L1113.3 395.715Z" fill="url(#paint26_linear_510_407)"/>
<path d="M1128.75 361.586L1145.36 383.451L1129.91 417.58L1113.3 395.715L1128.75 361.586Z" fill="url(#paint27_linear_510_407)"/>
<path d="M1015.75 417.566L1035.86 373.141L992.06 360.384L1007.51 326.255L1051.31 339.012L1071.41 294.602L1105.06 304.405L1084.96 348.815L1128.75 361.586L1113.3 395.715L1069.51 382.959L1049.41 427.369L1015.75 417.566Z" fill="url(#paint28_linear_510_407)"/>
<path d="M641.846 445.121L631.059 453.317L637.357 431.727L648.145 423.531L641.846 445.121Z" fill="url(#paint29_linear_510_407)"/>
<path d="M675.744 479.251L664.956 487.446L643.062 477.527L653.836 469.346L675.744 479.251Z" fill="url(#paint30_linear_510_407)"/>
<path d="M637.01 461.729L626.222 469.911L604.329 459.992L615.102 451.811L637.01 461.729Z" fill="url(#paint31_linear_510_407)"/>
<path d="M615.102 451.811L604.329 459.992L609.165 443.398L619.938 435.217L615.102 451.811Z" fill="url(#paint32_linear_510_407)"/>
<path d="M630.726 483.319L619.938 491.5L626.222 469.911L637.01 461.729L630.726 483.319Z" fill="url(#paint33_linear_510_407)"/>
<path d="M647.551 490.936L636.764 499.117L619.938 491.501L630.726 483.319L647.551 490.936Z" fill="url(#paint34_linear_510_407)"/>
<path d="M619.938 435.217L641.846 445.121L648.145 423.531L664.971 431.148L658.672 452.752L680.58 462.656L675.744 479.25L653.836 469.346L647.551 490.936L630.726 483.319L637.01 461.729L615.102 451.811L619.938 435.217Z" fill="url(#paint35_linear_510_407)"/>
<mask id="mask3_510_407" style="mask-type:luminance" maskUnits="userSpaceOnUse" x="615" y="423" width="66" height="68">
<path d="M619.938 435.217L641.846 445.121L648.145 423.531L664.971 431.148L658.672 452.752L680.58 462.656L675.744 479.25L653.836 469.346L647.551 490.936L630.726 483.319L637.01 461.729L615.102 451.811L619.938 435.217Z" fill="white"/>
</mask>
<g mask="url(#mask3_510_407)">
<path style="mix-blend-mode:overlay" opacity="0.6" d="M673.398 483.305C693.111 483.305 709.091 467.324 709.091 447.612C709.091 427.899 693.111 411.918 673.398 411.918C653.685 411.918 637.705 427.899 637.705 447.612C637.705 467.324 653.685 483.305 673.398 483.305Z" fill="url(#paint36_radial_510_407)"/>
</g>
<path d="M953.195 285.175L948.634 279.224L960.609 282.655L965.185 288.607L953.195 285.175Z" fill="url(#paint37_linear_510_407)"/>
<path d="M934.386 304.057L929.81 298.106L935.24 285.942L939.816 291.894L934.386 304.057Z" fill="url(#paint38_linear_510_407)"/>
<path d="M943.986 282.554L939.425 276.588L944.855 264.425L949.416 270.377L943.986 282.554Z" fill="url(#paint39_linear_510_407)"/>
<path d="M949.416 270.377L944.855 264.425L954.064 267.061L958.625 273.012L949.416 270.377Z" fill="url(#paint40_linear_510_407)"/>
<path d="M932.011 279.123L927.435 273.171L939.425 276.589L943.986 282.554L932.011 279.123Z" fill="url(#paint41_linear_510_407)"/>
<path d="M927.826 288.477L923.265 282.525L927.435 273.171L932.011 279.123L927.826 288.477Z" fill="url(#paint42_linear_510_407)"/>
<path d="M958.625 273.012L953.195 285.175L965.185 288.607L961.015 297.961L949.025 294.529L943.595 306.692L934.386 304.057L939.816 291.894L927.826 288.476L932.011 279.122L943.986 282.554L949.416 270.376L958.625 273.012Z" fill="url(#paint43_linear_510_407)"/>
<g filter="url(#filter3_d_510_407)">
<path d="M801.836 408.791C825.667 408.791 844.986 389.471 844.986 365.64C844.986 341.809 825.667 322.49 801.836 322.49C778.005 322.49 758.686 341.809 758.686 365.64C758.686 389.471 778.005 408.791 801.836 408.791Z" fill="url(#paint44_radial_510_407)"/>
<mask id="mask4_510_407" style="mask-type:luminance" maskUnits="userSpaceOnUse" x="758" y="322" width="87" height="87">
<path d="M801.836 408.791C825.667 408.791 844.986 389.471 844.986 365.64C844.986 341.809 825.667 322.49 801.836 322.49C778.005 322.49 758.686 341.809 758.686 365.64C758.686 389.471 778.005 408.791 801.836 408.791Z" fill="white"/>
</mask>
<g mask="url(#mask4_510_407)">
<path style="mix-blend-mode:overlay" opacity="0.6" d="M785.039 378.643C802.305 378.643 816.302 364.647 816.302 347.381C816.302 330.115 802.305 316.119 785.039 316.119C767.773 316.119 753.777 330.115 753.777 347.381C753.777 364.647 767.773 378.643 785.039 378.643Z" fill="url(#paint45_radial_510_407)"/>
<path style="mix-blend-mode:overlay" opacity="0.6" d="M830.246 426.08C847.511 426.08 861.508 412.083 861.508 394.817C861.508 377.552 847.511 363.555 830.246 363.555C812.98 363.555 798.983 377.552 798.983 394.817C798.983 412.083 812.98 426.08 830.246 426.08Z" fill="url(#paint46_radial_510_407)"/>
</g>
<path d="M887.094 413.917C898.97 413.917 908.597 404.29 908.597 392.414C908.597 380.538 898.97 370.911 887.094 370.911C875.218 370.911 865.591 380.538 865.591 392.414C865.591 404.29 875.218 413.917 887.094 413.917Z" fill="url(#paint47_radial_510_407)"/>
<mask id="mask5_510_407" style="mask-type:luminance" maskUnits="userSpaceOnUse" x="865" y="370" width="44" height="44">
<path d="M887.094 413.917C898.97 413.917 908.597 404.29 908.597 392.414C908.597 380.538 898.97 370.911 887.094 370.911C875.218 370.911 865.591 380.538 865.591 392.414C865.591 404.29 875.218 413.917 887.094 413.917Z" fill="white"/>
</mask>
<g mask="url(#mask5_510_407)">
<path style="mix-blend-mode:overlay" opacity="0.6" d="M878.725 398.886C887.322 398.886 894.291 391.917 894.291 383.32C894.291 374.724 887.322 367.754 878.725 367.754C870.128 367.754 863.159 374.724 863.159 383.32C863.159 391.917 870.128 398.886 878.725 398.886Z" fill="url(#paint48_radial_510_407)"/>
<path style="mix-blend-mode:overlay" opacity="0.6" d="M901.241 422.518C909.838 422.518 916.807 415.549 916.807 406.952C916.807 398.355 909.838 391.386 901.241 391.386C892.644 391.386 885.675 398.355 885.675 406.952C885.675 415.549 892.644 422.518 901.241 422.518Z" fill="url(#paint49_radial_510_407)"/>
</g>
<path d="M828.074 465.364C835.759 465.364 841.989 459.134 841.989 451.449C841.989 443.764 835.759 437.534 828.074 437.534C820.389 437.534 814.158 443.764 814.158 451.449C814.158 459.134 820.389 465.364 828.074 465.364Z" fill="url(#paint50_radial_510_407)"/>
<mask id="mask6_510_407" style="mask-type:luminance" maskUnits="userSpaceOnUse" x="814" y="437" width="28" height="29">
<path d="M828.074 465.364C835.759 465.364 841.989 459.134 841.989 451.449C841.989 443.764 835.759 437.534 828.074 437.534C820.389 437.534 814.158 443.764 814.158 451.449C814.158 459.134 820.389 465.364 828.074 465.364Z" fill="white"/>
</mask>
<g mask="url(#mask6_510_407)">
<path style="mix-blend-mode:overlay" opacity="0.6" d="M822.658 455.648C828.224 455.648 832.736 451.136 832.736 445.57C832.736 440.004 828.224 435.492 822.658 435.492C817.092 435.492 812.58 440.004 812.58 445.57C812.58 451.136 817.092 455.648 822.658 455.648Z" fill="url(#paint51_radial_510_407)"/>
<path style="mix-blend-mode:overlay" opacity="0.6" d="M837.225 470.939C842.791 470.939 847.303 466.427 847.303 460.861C847.303 455.295 842.791 450.783 837.225 450.783C831.659 450.783 827.147 455.295 827.147 460.861C827.147 466.427 831.659 470.939 837.225 470.939Z" fill="url(#paint52_radial_510_407)"/>
</g>
<path d="M1304.7 78.3572C1316.57 78.3572 1326.2 68.73 1326.2 56.8544C1326.2 44.9787 1316.57 35.3516 1304.7 35.3516C1292.82 35.3516 1283.19 44.9787 1283.19 56.8544C1283.19 68.73 1292.82 78.3572 1304.7 78.3572Z" fill="url(#paint53_radial_510_407)"/>
<mask id="mask7_510_407" style="mask-type:luminance" maskUnits="userSpaceOnUse" x="1283" y="35" width="44" height="44">
<path d="M1304.7 78.3572C1316.57 78.3572 1326.2 68.73 1326.2 56.8544C1326.2 44.9787 1316.57 35.3516 1304.7 35.3516C1292.82 35.3516 1283.19 44.9787 1283.19 56.8544C1283.19 68.73 1292.82 78.3572 1304.7 78.3572Z" fill="white"/>
</mask>
<g mask="url(#mask7_510_407)">
<path style="mix-blend-mode:overlay" opacity="0.6" d="M1296.33 63.3268C1304.92 63.3268 1311.89 56.3577 1311.89 47.7608C1311.89 39.164 1304.92 32.1948 1296.33 32.1948C1287.73 32.1948 1280.76 39.164 1280.76 47.7608C1280.76 56.3577 1287.73 63.3268 1296.33 63.3268Z" fill="url(#paint54_radial_510_407)"/>
<path style="mix-blend-mode:overlay" opacity="0.6" d="M1318.84 86.9582C1327.44 86.9582 1334.41 79.989 1334.41 71.3922C1334.41 62.7953 1327.44 55.8262 1318.84 55.8262C1310.25 55.8262 1303.28 62.7953 1303.28 71.3922C1303.28 79.989 1310.25 86.9582 1318.84 86.9582Z" fill="url(#paint55_radial_510_407)"/>
</g>
</g>
<path d="M722.717 75.4467C731.872 84.6034 743.536 90.8395 756.236 93.3666C768.935 95.8936 782.098 94.598 794.061 89.6436C806.024 84.6892 816.248 76.2985 823.442 65.5327C830.636 54.7669 834.476 42.1095 834.476 29.1614C834.476 16.2132 830.636 3.55588 823.442 -7.20992C816.248 -17.9757 806.024 -26.3664 794.061 -31.3208C782.098 -36.2753 768.935 -37.5709 756.236 -35.0438C743.536 -32.5168 731.872 -26.2806 722.717 -17.1239C710.443 -4.84744 703.548 11.8016 703.548 29.1614C703.548 46.5212 710.443 63.1702 722.717 75.4467ZM791.251 6.91285C795.654 11.3124 798.653 16.9189 799.868 23.0232C801.084 29.1274 800.463 35.4551 798.082 41.2059C795.701 46.9566 791.668 51.8721 786.493 55.3305C781.318 58.7889 775.234 60.6349 769.01 60.6349C762.785 60.6349 756.701 58.7889 751.526 55.3305C746.351 51.8721 742.318 46.9566 739.938 41.2059C737.557 35.4551 736.935 29.1274 738.151 23.0232C739.367 16.9189 742.366 11.3124 746.768 6.91285C749.689 3.99169 753.156 1.67445 756.972 0.0934944C760.789 -1.48746 764.879 -2.30118 769.01 -2.30118C773.14 -2.30118 777.231 -1.48746 781.047 0.0934944C784.863 1.67445 788.33 3.99169 791.251 6.91285Z" fill="url(#paint56_radial_510_407)"/>
</g>
</g>
<g clip-path="url(#clip2_510_407)">
<g filter="url(#filter4_b_510_407)">
<rect x="1200" y="147" width="963.955" height="896.702" rx="21.5553" fill="white" fill-opacity="0.6"/>
</g>
</g>
<g filter="url(#filter5_f_510_407)">
<rect width="215.486" height="204.818" rx="12.6562" transform="matrix(1 0 0 -1 1368.54 327.958)" fill="#202095" fill-opacity="0.08"/>
</g>
<g filter="url(#filter6_b_510_407)">
<rect x="1347" y="77" width="195" height="206" rx="21.3352" fill="white"/>
</g>
<g clip-path="url(#clip3_510_407)">
<path d="M1444.75 133.594C1433.69 133.594 1424.74 142.553 1424.74 153.604C1424.74 164.656 1433.69 173.615 1444.75 173.615C1455.8 173.615 1464.76 164.656 1464.76 153.604C1464.76 142.553 1455.8 133.594 1444.75 133.594ZM1431.8 153.604C1431.8 146.453 1437.6 140.656 1444.75 140.656C1451.9 140.656 1457.69 146.453 1457.69 153.604C1457.69 160.755 1451.9 166.552 1444.75 166.552C1437.6 166.552 1431.8 160.755 1431.8 153.604ZM1457.14 185.385C1462.29 185.385 1466.36 185.385 1469.65 185.654C1473 185.928 1475.85 186.501 1478.44 187.823C1482.65 189.967 1486.07 193.389 1488.22 197.597C1489.54 200.192 1490.11 203.034 1490.38 206.393C1490.65 209.677 1490.65 213.752 1490.65 218.895V221.875C1490.65 223.825 1489.07 225.406 1487.12 225.406H1402.37C1400.42 225.406 1398.84 223.825 1398.84 221.875V218.895C1398.84 213.752 1398.84 209.677 1399.11 206.393C1399.38 203.034 1399.96 200.192 1401.28 197.597C1403.42 193.389 1406.84 189.967 1411.05 187.823C1413.65 186.501 1416.49 185.928 1419.85 185.654C1423.13 185.385 1427.21 185.385 1432.35 185.385H1457.14ZM1407.57 200.803C1406.84 202.237 1406.39 204.046 1406.15 206.968C1405.92 209.799 1405.9 213.381 1405.9 218.344H1483.59C1483.59 213.381 1483.58 209.799 1483.35 206.968C1483.11 204.046 1482.65 202.237 1481.92 200.803C1480.46 197.924 1478.11 195.583 1475.24 194.116C1473.8 193.385 1471.99 192.931 1469.07 192.693C1466.11 192.451 1462.32 192.448 1456.99 192.448H1432.5C1427.17 192.448 1423.39 192.451 1420.42 192.693C1417.5 192.931 1415.69 193.385 1414.26 194.116C1411.38 195.583 1409.04 197.924 1407.57 200.803Z" fill="#1C1B1F"/>
</g>
</g>
<defs>
<filter id="filter0_f_510_407" x="551" y="-12" width="877" height="877" filterUnits="userSpaceOnUse" color-interpolation-filters="sRGB">
<feFlood flood-opacity="0" result="BackgroundImageFix"/>
<feBlend mode="normal" in="SourceGraphic" in2="BackgroundImageFix" result="shape"/>
<feGaussianBlur stdDeviation="100" result="effect1_foregroundBlur_510_407"/>
</filter>
<filter id="filter1_f_510_407" x="-143" y="-152" width="877" height="877" filterUnits="userSpaceOnUse" color-interpolation-filters="sRGB">
<feFlood flood-opacity="0" result="BackgroundImageFix"/>
<feBlend mode="normal" in="SourceGraphic" in2="BackgroundImageFix" result="shape"/>
<feGaussianBlur stdDeviation="100" result="effect1_foregroundBlur_510_407"/>
</filter>
<filter id="filter2_d_510_407" x="690.157" y="24.345" width="706.407" height="642.684" filterUnits="userSpaceOnUse" color-interpolation-filters="sRGB">
<feFlood flood-opacity="0" result="BackgroundImageFix"/>
<feColorMatrix in="SourceAlpha" type="matrix" values="0 0 0 0 0 0 0 0 0 0 0 0 0 0 0 0 0 0 127 0" result="hardAlpha"/>
<feOffset dx="10" dy="18"/>
<feGaussianBlur stdDeviation="10"/>
<feColorMatrix type="matrix" values="0 0 0 0 0 0 0 0 0 0 0 0 0 0 0 0 0 0 0.25 0"/>
<feBlend mode="normal" in2="BackgroundImageFix" result="effect1_dropShadow_510_407"/>
<feBlend mode="normal" in="SourceGraphic" in2="effect1_dropShadow_510_407" result="shape"/>
</filter>
<filter id="filter3_d_510_407" x="748.686" y="33.3516" width="607.515" height="470.013" filterUnits="userSpaceOnUse" color-interpolation-filters="sRGB">
<feFlood flood-opacity="0" result="BackgroundImageFix"/>
<feColorMatrix in="SourceAlpha" type="matrix" values="0 0 0 0 0 0 0 0 0 0 0 0 0 0 0 0 0 0 127 0" result="hardAlpha"/>
<feOffset dx="10" dy="18"/>
<feGaussianBlur stdDeviation="10"/>
<feColorMatrix type="matrix" values="0 0 0 0 0 0 0 0 0 0 0 0 0 0 0 0 0 0 0.25 0"/>
<feBlend mode="normal" in2="BackgroundImageFix" result="effect1_dropShadow_510_407"/>
<feBlend mode="normal" in="SourceGraphic" in2="effect1_dropShadow_510_407" result="shape"/>
</filter>
<filter id="filter4_b_510_407" x="1171.9" y="118.904" width="1020.15" height="952.894" filterUnits="userSpaceOnUse" color-interpolation-filters="sRGB">
<feFlood flood-opacity="0" result="BackgroundImageFix"/>
<feGaussianBlur in="BackgroundImageFix" stdDeviation="14.0479"/>
<feComposite in2="SourceAlpha" operator="in" result="effect1_backgroundBlur_510_407"/>
<feBlend mode="normal" in="SourceGraphic" in2="effect1_backgroundBlur_510_407" result="shape"/>
</filter>
<filter id="filter5_f_510_407" x="1334.4" y="89.0028" width="283.759" height="273.091" filterUnits="userSpaceOnUse" color-interpolation-filters="sRGB">
<feFlood flood-opacity="0" result="BackgroundImageFix"/>
<feBlend mode="normal" in="SourceGraphic" in2="BackgroundImageFix" result="shape"/>
<feGaussianBlur stdDeviation="17.0682" result="effect1_foregroundBlur_510_407"/>
</filter>
<filter id="filter6_b_510_407" x="1332.99" y="62.9943" width="223.011" height="234.011" filterUnits="userSpaceOnUse" color-interpolation-filters="sRGB">
<feFlood flood-opacity="0" result="BackgroundImageFix"/>
<feGaussianBlur in="BackgroundImageFix" stdDeviation="7.00283"/>
<feComposite in2="SourceAlpha" operator="in" result="effect1_backgroundBlur_510_407"/>
<feBlend mode="normal" in="SourceGraphic" in2="effect1_backgroundBlur_510_407" result="shape"/>
</filter>
<linearGradient id="paint0_linear_510_407" x1="989.5" y1="188" x2="989.5" y2="665" gradientUnits="userSpaceOnUse">
<stop stop-color="#0284C7"/>
<stop offset="1" stop-color="#B3B3FC"/>
</linearGradient>
<linearGradient id="paint1_linear_510_407" x1="295.5" y1="48" x2="295.5" y2="525" gradientUnits="userSpaceOnUse">
<stop stop-color="#0284C7"/>
<stop offset="1" stop-color="#B3B3FC"/>
</linearGradient>
<linearGradient id="paint2_linear_510_407" x1="677.549" y1="212.956" x2="735.346" y2="380.683" gradientUnits="userSpaceOnUse">
<stop offset="0.13" stop-color="#276A61"/>
<stop offset="0.52" stop-color="#164F4E"/>
<stop offset="1" stop-color="#0F3D3B"/>
</linearGradient>
<linearGradient id="paint3_linear_510_407" x1="719.83" y1="157.974" x2="662.908" y2="309.504" gradientUnits="userSpaceOnUse">
<stop offset="0.13" stop-color="#7DC6A6"/>
<stop offset="1" stop-color="#276A61"/>
</linearGradient>
<linearGradient id="paint4_linear_510_407" x1="758.059" y1="188.833" x2="422.596" y2="253.097" gradientUnits="userSpaceOnUse">
<stop offset="0.13" stop-color="#7DC6A6"/>
<stop offset="1" stop-color="#276A61"/>
</linearGradient>
<linearGradient id="paint5_linear_510_407" x1="827.237" y1="190.94" x2="641.74" y2="427.952" gradientUnits="userSpaceOnUse">
<stop stop-color="#18EDED"/>
<stop offset="0.39" stop-color="#6044EA"/>
<stop offset="0.55" stop-color="#5D3EE4"/>
<stop offset="0.77" stop-color="#552ED3"/>
<stop offset="0.92" stop-color="#4D1DC2"/>
</linearGradient>
<linearGradient id="paint6_linear_510_407" x1="881.317" y1="108.765" x2="486.259" y2="658.484" gradientUnits="userSpaceOnUse">
<stop stop-color="#7DC6A6"/>
<stop offset="0.07" stop-color="#74BD9F"/>
<stop offset="0.17" stop-color="#5DA48C"/>
<stop offset="0.31" stop-color="#377B6E"/>
<stop offset="0.36" stop-color="#276A61"/>
<stop offset="0.39" stop-color="#23635C"/>
<stop offset="0.49" stop-color="#1B5854"/>
<stop offset="0.63" stop-color="#17514F"/>
<stop offset="1" stop-color="#164F4E"/>
</linearGradient>
<linearGradient id="paint7_linear_510_407" x1="926.161" y1="54.0744" x2="966.039" y2="171.869" gradientUnits="userSpaceOnUse">
<stop offset="0.05" stop-color="#5D92C5"/>
<stop offset="1" stop-color="#112D4C"/>
</linearGradient>
<linearGradient id="paint8_linear_510_407" x1="998.553" y1="-11.4431" x2="836.424" y2="175.108" gradientUnits="userSpaceOnUse">
<stop stop-color="#C5E5F5"/>
<stop offset="0.49" stop-color="#9BBFE0"/>
<stop offset="1" stop-color="#5D92C5"/>
</linearGradient>
<linearGradient id="paint9_linear_510_407" x1="959.624" y1="14.8191" x2="1135.76" y2="273.215" gradientUnits="userSpaceOnUse">
<stop stop-color="#9BBFE0"/>
<stop offset="0.26" stop-color="#5D92C5"/>
<stop offset="0.51" stop-color="#375986"/>
</linearGradient>
<linearGradient id="paint10_linear_510_407" x1="1015.26" y1="173.054" x2="1026.3" y2="209.91" gradientUnits="userSpaceOnUse">
<stop offset="0.05" stop-color="#E4C7C5"/>
<stop offset="1" stop-color="#AA8080"/>
</linearGradient>
<linearGradient id="paint11_linear_510_407" x1="988.28" y1="183.917" x2="1054.42" y2="190.925" gradientUnits="userSpaceOnUse">
<stop stop-color="#FAF0F1"/>
<stop offset="0.49" stop-color="#E4C7C5"/>
<stop offset="1" stop-color="#AA8080"/>
</linearGradient>
<linearGradient id="paint12_linear_510_407" x1="990.177" y1="167.786" x2="1013.62" y2="226.69" gradientUnits="userSpaceOnUse">
<stop stop-color="#FAF0F1"/>
<stop offset="0.47" stop-color="#E4C7C5"/>
<stop offset="1" stop-color="#AA8080"/>
</linearGradient>
<radialGradient id="paint13_radial_510_407" cx="0" cy="0" r="1" gradientUnits="userSpaceOnUse" gradientTransform="translate(1205.2 187.706) rotate(-135) scale(161.351)">
<stop offset="0.44" stop-color="#AA8080"/>
<stop offset="0.5" stop-color="#BE9897"/>
<stop offset="0.6" stop-color="#E4C7C5"/>
<stop offset="0.76" stop-color="#FAF0F1"/>
<stop offset="0.93" stop-color="#D8B3B2"/>
</radialGradient>
<linearGradient id="paint14_linear_510_407" x1="1333.33" y1="323.078" x2="1227.05" y2="195.665" gradientUnits="userSpaceOnUse">
<stop offset="0.44" stop-color="#AA8080"/>
<stop offset="0.53" stop-color="#BE9897"/>
<stop offset="0.66" stop-color="#E4C7C5"/>
<stop offset="0.83" stop-color="#FAF0F1"/>
<stop offset="1" stop-color="#E4C7C5"/>
</linearGradient>
<linearGradient id="paint15_linear_510_407" x1="1167.97" y1="201.378" x2="1081.26" y2="17.4262" gradientUnits="userSpaceOnUse">
<stop offset="0.44" stop-color="#AA8080"/>
<stop offset="0.53" stop-color="#BE9897"/>
<stop offset="0.66" stop-color="#E4C7C5"/>
<stop offset="0.83" stop-color="#FAF0F1"/>
<stop offset="1" stop-color="#E4C7C5"/>
</linearGradient>
<radialGradient id="paint16_radial_510_407" cx="0" cy="0" r="1" gradientUnits="userSpaceOnUse" gradientTransform="translate(810.974 515.844) rotate(16.2602) scale(110.135 110.135)">
<stop offset="0.44" stop-color="#7F4813"/>
<stop offset="0.49" stop-color="#975F1C"/>
<stop offset="0.58" stop-color="#D59932"/>
<stop offset="0.6" stop-color="#E7AA39"/>
<stop offset="0.76" stop-color="#FFFFAB"/>
<stop offset="0.93" stop-color="#E7AA39"/>
</radialGradient>
<linearGradient id="paint17_linear_510_407" x1="689.339" y1="479.469" x2="794.62" y2="521.224" gradientUnits="userSpaceOnUse">
<stop offset="0.44" stop-color="#7F4813"/>
<stop offset="0.5" stop-color="#975F1C"/>
<stop offset="0.63" stop-color="#D59932"/>
<stop offset="0.66" stop-color="#E7AA39"/>
<stop offset="0.83" stop-color="#FFFFAB"/>
<stop offset="1" stop-color="#E7AA39"/>
</linearGradient>
<linearGradient id="paint18_linear_510_407" x1="828.192" y1="498.547" x2="940.161" y2="580.603" gradientUnits="userSpaceOnUse">
<stop offset="0.44" stop-color="#7F4813"/>
<stop offset="0.5" stop-color="#975F1C"/>
<stop offset="0.63" stop-color="#D59932"/>
<stop offset="0.66" stop-color="#E7AA39"/>
<stop offset="0.83" stop-color="#FFFFAB"/>
<stop offset="1" stop-color="#E7AA39"/>
</linearGradient>
<linearGradient id="paint19_linear_510_407" x1="1181.37" y1="387.48" x2="1295.38" y2="526.49" gradientUnits="userSpaceOnUse">
<stop stop-color="#7DC6A6"/>
<stop offset="0.41" stop-color="#5AA889"/>
<stop offset="1" stop-color="#276A61"/>
</linearGradient>
<linearGradient id="paint20_linear_510_407" x1="1057.1" y1="401.975" x2="1247.29" y2="531.163" gradientUnits="userSpaceOnUse">
<stop stop-color="#276A61"/>
<stop offset="0.52" stop-color="#1D5A55"/>
<stop offset="1" stop-color="#164F4E"/>
</linearGradient>
<linearGradient id="paint21_linear_510_407" x1="1314.24" y1="353.075" x2="1307.13" y2="577.426" gradientUnits="userSpaceOnUse">
<stop stop-color="#5AA889"/>
<stop offset="0.4" stop-color="#276A61"/>
<stop offset="1" stop-color="#276A61"/>
</linearGradient>
<linearGradient id="paint22_linear_510_407" x1="943.954" y1="356.397" x2="1035.56" y2="381.353" gradientUnits="userSpaceOnUse">
<stop offset="0.05" stop-color="#487EAA"/>
<stop offset="1" stop-color="#112D4C"/>
</linearGradient>
<linearGradient id="paint23_linear_510_407" x1="1126.34" y1="284.156" x2="1092.61" y2="362.312" gradientUnits="userSpaceOnUse">
<stop offset="0.05" stop-color="#487EAA"/>
<stop offset="1" stop-color="#112D4C"/>
</linearGradient>
<linearGradient id="paint24_linear_510_407" x1="1096.57" y1="351.601" x2="1056.65" y2="440.896" gradientUnits="userSpaceOnUse">
<stop offset="0.05" stop-color="#487EAA"/>
<stop offset="1" stop-color="#112D4C"/>
</linearGradient>
<linearGradient id="paint25_linear_510_407" x1="952.137" y1="411.491" x2="1051.32" y2="436.017" gradientUnits="userSpaceOnUse">
<stop offset="0.05" stop-color="#487EAA"/>
<stop offset="1" stop-color="#112D4C"/>
</linearGradient>
<linearGradient id="paint26_linear_510_407" x1="1018.07" y1="381.081" x2="1085.6" y2="396.984" gradientUnits="userSpaceOnUse">
<stop offset="0.05" stop-color="#487EAA"/>
<stop offset="1" stop-color="#112D4C"/>
</linearGradient>
<linearGradient id="paint27_linear_510_407" x1="1149.05" y1="345.306" x2="1117.79" y2="415.391" gradientUnits="userSpaceOnUse">
<stop offset="0.05" stop-color="#487EAA"/>
<stop offset="1" stop-color="#112D4C"/>
</linearGradient>
<linearGradient id="paint28_linear_510_407" x1="1050.79" y1="292.894" x2="1076.09" y2="472.903" gradientUnits="userSpaceOnUse">
<stop stop-color="#9BBFE0"/>
<stop offset="0.49" stop-color="#5D92C5"/>
<stop offset="1" stop-color="#375986"/>
</linearGradient>
<linearGradient id="paint29_linear_510_407" x1="650.083" y1="399.788" x2="637.78" y2="444.939" gradientUnits="userSpaceOnUse">
<stop offset="0.05" stop-color="#E4C7C5"/>
<stop offset="1" stop-color="#AA8080"/>
</linearGradient>
<linearGradient id="paint30_linear_510_407" x1="685.701" y1="489.697" x2="647.167" y2="473.069" gradientUnits="userSpaceOnUse">
<stop offset="0.05" stop-color="#E4C7C5"/>
<stop offset="1" stop-color="#AA8080"/>
</linearGradient>
<linearGradient id="paint31_linear_510_407" x1="652.444" y1="475.033" x2="608.414" y2="455.342" gradientUnits="userSpaceOnUse">
<stop offset="0.05" stop-color="#E4C7C5"/>
<stop offset="1" stop-color="#AA8080"/>
</linearGradient>
<linearGradient id="paint32_linear_510_407" x1="622.922" y1="403.815" x2="610.816" y2="452.724" gradientUnits="userSpaceOnUse">
<stop offset="0.05" stop-color="#E4C7C5"/>
<stop offset="1" stop-color="#AA8080"/>
</linearGradient>
<linearGradient id="paint33_linear_510_407" x1="637.911" y1="436.327" x2="630.08" y2="469.612" gradientUnits="userSpaceOnUse">
<stop offset="0.05" stop-color="#E4C7C5"/>
<stop offset="1" stop-color="#AA8080"/>
</linearGradient>
<linearGradient id="paint34_linear_510_407" x1="655.558" y1="500.909" x2="621.007" y2="485.488" gradientUnits="userSpaceOnUse">
<stop offset="0.05" stop-color="#E4C7C5"/>
<stop offset="1" stop-color="#AA8080"/>
</linearGradient>
<linearGradient id="paint35_linear_510_407" x1="681.402" y1="452.456" x2="592.645" y2="464.93" gradientUnits="userSpaceOnUse">
<stop stop-color="#FAF0F1"/>
<stop offset="0.49" stop-color="#E4C7C5"/>
<stop offset="1" stop-color="#AA8080"/>
</linearGradient>
<radialGradient id="paint36_radial_510_407" cx="0" cy="0" r="1" gradientUnits="userSpaceOnUse" gradientTransform="translate(712.03 463.162) rotate(-131.348) scale(35.6593 35.6593)">
<stop stop-color="white"/>
<stop offset="0.12" stop-color="white" stop-opacity="0.86"/>
<stop offset="0.45" stop-color="white" stop-opacity="0.49"/>
<stop offset="0.71" stop-color="white" stop-opacity="0.23"/>
<stop offset="0.9" stop-color="white" stop-opacity="0.06"/>
<stop offset="1" stop-color="white" stop-opacity="0"/>
</radialGradient>
<linearGradient id="paint37_linear_510_407" x1="976.783" y1="288.229" x2="951.811" y2="281.416" gradientUnits="userSpaceOnUse">
<stop offset="0.05" stop-color="#5AA889"/>
<stop offset="1" stop-color="#164F4E"/>
</linearGradient>
<linearGradient id="paint38_linear_510_407" x1="927.045" y1="307.921" x2="936.25" y2="286.611" gradientUnits="userSpaceOnUse">
<stop offset="0.05" stop-color="#5AA889"/>
<stop offset="1" stop-color="#164F4E"/>
</linearGradient>
<linearGradient id="paint39_linear_510_407" x1="935.172" y1="289.533" x2="946.052" y2="265.173" gradientUnits="userSpaceOnUse">
<stop offset="0.05" stop-color="#5AA889"/>
<stop offset="1" stop-color="#164F4E"/>
</linearGradient>
<linearGradient id="paint40_linear_510_407" x1="974.566" y1="273.201" x2="947.51" y2="266.512" gradientUnits="userSpaceOnUse">
<stop stop-color="#5AA889"/>
<stop offset="0.95" stop-color="#7DC6A6"/>
</linearGradient>
<linearGradient id="paint41_linear_510_407" x1="956.581" y1="281.489" x2="938.165" y2="277.155" gradientUnits="userSpaceOnUse">
<stop offset="0.05" stop-color="#27594B"/>
<stop offset="1" stop-color="#164F4E"/>
</linearGradient>
<linearGradient id="paint42_linear_510_407" x1="920.848" y1="291.244" x2="929.379" y2="272.134" gradientUnits="userSpaceOnUse">
<stop offset="0.05" stop-color="#5AA889"/>
<stop offset="1" stop-color="#164F4E"/>
</linearGradient>
<linearGradient id="paint43_linear_510_407" x1="937.065" y1="264.266" x2="957.481" y2="316.756" gradientUnits="userSpaceOnUse">
<stop stop-color="#7DC6A6"/>
<stop offset="0.49" stop-color="#5AA889"/>
<stop offset="1" stop-color="#276A61"/>
</linearGradient>
<radialGradient id="paint44_radial_510_407" cx="0" cy="0" r="1" gradientUnits="userSpaceOnUse" gradientTransform="translate(792.873 351.29) scale(56.1534)">
<stop stop-color="#FFFFAB"/>
<stop offset="0.35" stop-color="#E7AA39"/>
<stop offset="0.41" stop-color="#D59932"/>
<stop offset="0.65" stop-color="#975F1C"/>
<stop offset="0.76" stop-color="#7F4813"/>
</radialGradient>
<radialGradient id="paint45_radial_510_407" cx="0" cy="0" r="1" gradientUnits="userSpaceOnUse" gradientTransform="translate(800.324 309.645) rotate(138.652) scale(31.2326 31.2326)">
<stop stop-color="white"/>
<stop offset="0.12" stop-color="white" stop-opacity="0.86"/>
<stop offset="0.45" stop-color="white" stop-opacity="0.49"/>
<stop offset="0.71" stop-color="white" stop-opacity="0.23"/>
<stop offset="0.9" stop-color="white" stop-opacity="0.06"/>
<stop offset="1" stop-color="white" stop-opacity="0"/>
</radialGradient>
<radialGradient id="paint46_radial_510_407" cx="0" cy="0" r="1" gradientUnits="userSpaceOnUse" gradientTransform="translate(845.592 356.948) rotate(138.652) scale(31.2326 31.2326)">
<stop stop-color="white"/>
<stop offset="0.12" stop-color="white" stop-opacity="0.86"/>
<stop offset="0.45" stop-color="white" stop-opacity="0.49"/>
<stop offset="0.71" stop-color="white" stop-opacity="0.23"/>
<stop offset="0.9" stop-color="white" stop-opacity="0.06"/>
<stop offset="1" stop-color="white" stop-opacity="0"/>
</radialGradient>
<radialGradient id="paint47_radial_510_407" cx="0" cy="0" r="1" gradientUnits="userSpaceOnUse" gradientTransform="translate(882.62 385.261) scale(27.9754)">
<stop stop-color="#FAF0F1"/>
<stop offset="0.35" stop-color="#E4C7C5"/>
<stop offset="0.6" stop-color="#BE9897"/>
<stop offset="0.76" stop-color="#AA8080"/>
</radialGradient>
<radialGradient id="paint48_radial_510_407" cx="0" cy="0" r="1" gradientUnits="userSpaceOnUse" gradientTransform="translate(894.005 345.35) rotate(138.652) scale(15.5512)">
<stop stop-color="white"/>
<stop offset="0.12" stop-color="white" stop-opacity="0.86"/>
<stop offset="0.45" stop-color="white" stop-opacity="0.49"/>
<stop offset="0.71" stop-color="white" stop-opacity="0.23"/>
<stop offset="0.9" stop-color="white" stop-opacity="0.06"/>
<stop offset="1" stop-color="white" stop-opacity="0"/>
</radialGradient>
<radialGradient id="paint49_radial_510_407" cx="0" cy="0" r="1" gradientUnits="userSpaceOnUse" gradientTransform="translate(916.559 368.899) rotate(138.652) scale(15.5512)">
<stop stop-color="white"/>
<stop offset="0.12" stop-color="white" stop-opacity="0.86"/>
<stop offset="0.45" stop-color="white" stop-opacity="0.49"/>
<stop offset="0.71" stop-color="white" stop-opacity="0.23"/>
<stop offset="0.9" stop-color="white" stop-opacity="0.06"/>
<stop offset="1" stop-color="white" stop-opacity="0"/>
</radialGradient>
<radialGradient id="paint50_radial_510_407" cx="0" cy="0" r="1" gradientUnits="userSpaceOnUse" gradientTransform="translate(825.178 446.83) scale(18.1)">
<stop stop-color="#C5E5F5"/>
<stop offset="0.37" stop-color="#5D92C5"/>
<stop offset="0.76" stop-color="#375986"/>
</radialGradient>
<radialGradient id="paint51_radial_510_407" cx="0" cy="0" r="1" gradientUnits="userSpaceOnUse" gradientTransform="translate(838.132 407.66) rotate(138.652) scale(10.0685)">
<stop stop-color="white"/>
<stop offset="0.12" stop-color="white" stop-opacity="0.86"/>
<stop offset="0.45" stop-color="white" stop-opacity="0.49"/>
<stop offset="0.71" stop-color="white" stop-opacity="0.23"/>
<stop offset="0.9" stop-color="white" stop-opacity="0.06"/>
<stop offset="1" stop-color="white" stop-opacity="0"/>
</radialGradient>
<radialGradient id="paint52_radial_510_407" cx="0" cy="0" r="1" gradientUnits="userSpaceOnUse" gradientTransform="translate(852.719 422.901) rotate(138.652) scale(10.0685)">
<stop stop-color="white"/>
<stop offset="0.12" stop-color="white" stop-opacity="0.86"/>
<stop offset="0.45" stop-color="white" stop-opacity="0.49"/>
<stop offset="0.71" stop-color="white" stop-opacity="0.23"/>
<stop offset="0.9" stop-color="white" stop-opacity="0.06"/>
<stop offset="1" stop-color="white" stop-opacity="0"/>
</radialGradient>
<radialGradient id="paint53_radial_510_407" cx="0" cy="0" r="1" gradientUnits="userSpaceOnUse" gradientTransform="translate(1300.22 49.7157) scale(27.9754 27.9754)">
<stop stop-color="#7DC6A6"/>
<stop offset="0.35" stop-color="#5AA889"/>
<stop offset="0.61" stop-color="#37715E"/>
<stop offset="0.76" stop-color="#27594B"/>
</radialGradient>
<radialGradient id="paint54_radial_510_407" cx="0" cy="0" r="1" gradientUnits="userSpaceOnUse" gradientTransform="translate(1310.46 9.16409) rotate(138.652) scale(15.5512)">
<stop stop-color="white"/>
<stop offset="0.12" stop-color="white" stop-opacity="0.86"/>
<stop offset="0.45" stop-color="white" stop-opacity="0.49"/>
<stop offset="0.71" stop-color="white" stop-opacity="0.23"/>
<stop offset="0.9" stop-color="white" stop-opacity="0.06"/>
<stop offset="1" stop-color="white" stop-opacity="0"/>
</radialGradient>
<radialGradient id="paint55_radial_510_407" cx="0" cy="0" r="1" gradientUnits="userSpaceOnUse" gradientTransform="translate(1333.01 32.7333) rotate(138.652) scale(15.5512)">
<stop stop-color="white"/>
<stop offset="0.12" stop-color="white" stop-opacity="0.86"/>
<stop offset="0.45" stop-color="white" stop-opacity="0.49"/>
<stop offset="0.71" stop-color="white" stop-opacity="0.23"/>
<stop offset="0.9" stop-color="white" stop-opacity="0.06"/>
<stop offset="1" stop-color="white" stop-opacity="0"/>
</radialGradient>
<radialGradient id="paint56_radial_510_407" cx="0" cy="0" r="1" gradientUnits="userSpaceOnUse" gradientTransform="translate(769.024 29.167) rotate(-135) scale(65.4641)">
<stop offset="0.44" stop-color="#605C59"/>
<stop offset="0.58" stop-color="#757271"/>
<stop offset="0.6" stop-color="#787675"/>
<stop offset="0.76" stop-color="#B1B0B5"/>
<stop offset="0.93" stop-color="#787675"/>
</radialGradient>
<clipPath id="clip0_510_407">
<rect width="1690" height="530" fill="white"/>
</clipPath>
<clipPath id="clip1_510_407">
<rect width="1086" height="724" fill="white" transform="translate(418 -59)"/>
</clipPath>
<clipPath id="clip2_510_407">
<rect width="490" height="456" fill="white" transform="translate(1200 147)"/>
</clipPath>
<clipPath id="clip3_510_407">
<rect width="114" height="114" fill="white" transform="translate(1387.25 123)"/>
</clipPath>
</defs>
</svg>
