<svg width="1440" height="252" viewBox="0 0 1440 252" fill="none" xmlns="http://www.w3.org/2000/svg">
<g clip-path="url(#clip0_2460_10787)" filter="url(#filter0_b_2460_10787)">
<rect width="1440" height="252" fill="#F2FFFE" fill-opacity="0.7"/>
<g clip-path="url(#clip1_2460_10787)">
<g filter="url(#filter1_b_2460_10787)">
<path d="M0 -448H1440V363.601L0 619V-448Z" fill="white" fill-opacity="0.75"/>
</g>
<path d="M1260 146.005L1680 93.4878V157.488L1260 210.005V146.005Z" fill="#FDE255"/>
<path d="M828 136.808L1440 60V124L828 200.808V136.808Z" fill="#20E595"/>
<path d="M988 52.517L1408 0V64L988 116.517V52.517Z" fill="#EDE9FE"/>
<path d="M0 104.517L420 52V116L0 168.517V104.517Z" fill="#FDE255"/>
<path d="M-152 187.506L268 134.989V198.989L-152 251.506V187.506Z" fill="#EDE9FE"/>
</g>
<path d="M695.511 179.257C745.323 179.257 772.568 137.988 772.568 102.201C772.568 101.028 772.568 99.8615 772.489 98.6999C777.788 94.8661 782.364 90.1193 786 84.6815C781.058 86.8727 775.814 88.309 770.445 88.9425C776.099 85.5583 780.331 80.2348 782.351 73.9631C777.036 77.118 771.219 79.3412 765.154 80.5367C761.071 76.1949 755.671 73.3198 749.789 72.3565C743.907 71.3931 737.872 72.3951 732.617 75.2075C727.362 78.0199 723.18 82.4857 720.719 87.9141C718.258 93.3425 717.654 99.4306 719.002 105.237C708.235 104.696 697.702 101.898 688.086 97.0235C678.47 92.1489 669.987 85.3066 663.187 76.941C659.724 82.903 658.663 89.9608 660.221 96.6773C661.779 103.394 665.838 109.264 671.572 113.093C667.262 112.967 663.046 111.804 659.28 109.703V110.047C659.282 116.299 661.446 122.359 665.406 127.198C669.366 132.037 674.878 135.356 681.007 136.594C677.02 137.682 672.837 137.841 668.779 137.059C670.51 142.44 673.879 147.145 678.416 150.517C682.952 153.889 688.429 155.76 694.08 155.866C688.465 160.28 682.035 163.543 675.158 165.469C668.28 167.396 661.091 167.947 654 167.092C666.385 175.039 680.796 179.255 695.511 179.236" fill="#1DA1F2"/>
</g>
<defs>
<filter id="filter0_b_2460_10787" x="-100" y="-100" width="1640" height="452" filterUnits="userSpaceOnUse" color-interpolation-filters="sRGB">
<feFlood flood-opacity="0" result="BackgroundImageFix"/>
<feGaussianBlur in="BackgroundImageFix" stdDeviation="50"/>
<feComposite in2="SourceAlpha" operator="in" result="effect1_backgroundBlur_2460_10787"/>
<feBlend mode="normal" in="SourceGraphic" in2="effect1_backgroundBlur_2460_10787" result="shape"/>
</filter>
<filter id="filter1_b_2460_10787" x="-100" y="-548" width="1640" height="1267" filterUnits="userSpaceOnUse" color-interpolation-filters="sRGB">
<feFlood flood-opacity="0" result="BackgroundImageFix"/>
<feGaussianBlur in="BackgroundImageFix" stdDeviation="50"/>
<feComposite in2="SourceAlpha" operator="in" result="effect1_backgroundBlur_2460_10787"/>
<feBlend mode="normal" in="SourceGraphic" in2="effect1_backgroundBlur_2460_10787" result="shape"/>
</filter>
<clipPath id="clip0_2460_10787">
<rect width="1440" height="252" fill="white"/>
</clipPath>
<clipPath id="clip1_2460_10787">
<rect width="1440" height="752" fill="white" transform="translate(0 -448)"/>
</clipPath>
</defs>
</svg>
