<svg width="1440" height="252" viewBox="0 0 1440 252" fill="none" xmlns="http://www.w3.org/2000/svg">
<g clip-path="url(#clip0_2471_10728)" filter="url(#filter0_b_2471_10728)">
<rect width="1440" height="252" fill="#F2FFFE" fill-opacity="0.7"/>
<g clip-path="url(#clip1_2471_10728)">
<g filter="url(#filter1_b_2471_10728)">
<path d="M0 -448H1440V363.601L0 619V-448Z" fill="white" fill-opacity="0.75"/>
</g>
<path d="M1260 146.005L1680 93.4878V157.488L1260 210.005V146.005Z" fill="#FDE255"/>
<path d="M828 136.808L1440 60V124L828 200.808V136.808Z" fill="#20E595"/>
<path d="M988 52.517L1408 0V64L988 116.517V52.517Z" fill="#EDE9FE"/>
<path d="M0 104.517L420 52V116L0 168.517V104.517Z" fill="#FDE255"/>
<path d="M-152 187.506L268 134.989V198.989L-152 251.506V187.506Z" fill="#EDE9FE"/>
</g>
<g clip-path="url(#clip2_2471_10728)">
<path d="M671.707 107.655C671.707 81.0654 693.433 59.7 720 59.7C746.567 59.7 768.293 81.0654 768.293 107.655C768.293 123.191 762.027 137.208 750.296 146.048C749.487 146.659 748.997 147.415 748.826 148.158C748.448 149.804 748.029 151.711 747.6 153.757C747.473 154.366 746.947 154.803 746.339 154.803H726.117C725.406 154.803 724.829 154.212 724.829 153.483V149.101L731.586 138.224C732.919 136.077 732.447 133.244 730.495 131.672L718.91 122.347L724.074 114.035C725.506 111.729 724.843 108.669 722.594 107.201C720.344 105.733 717.359 106.412 715.926 108.718L708.414 120.812C707.081 122.959 707.553 125.792 709.505 127.364L721.089 136.688L715.926 145C715.433 145.795 715.171 146.717 715.171 147.659V153.483C715.171 154.212 714.594 154.803 713.883 154.803H693.661C693.053 154.803 692.527 154.366 692.4 153.757C691.971 151.711 691.552 149.805 691.174 148.158C691.003 147.415 690.513 146.659 689.704 146.048C677.973 137.208 671.707 123.191 671.707 107.655Z" fill="black"/>
<path d="M696.053 164.703C695.251 164.703 694.645 165.447 694.781 166.257C695.452 170.243 695.947 173.83 696.091 176.255C696.496 183.127 701.434 188.788 708.038 190.25L709.3 190.53C716.346 192.09 723.653 192.09 730.7 190.53L731.962 190.25C738.566 188.788 743.504 183.127 743.909 176.255C744.052 173.83 744.548 170.244 745.219 166.257C745.356 165.447 744.749 164.703 743.947 164.703H696.053Z" fill="black"/>
</g>
</g>
<defs>
<filter id="filter0_b_2471_10728" x="-100" y="-100" width="1640" height="452" filterUnits="userSpaceOnUse" color-interpolation-filters="sRGB">
<feFlood flood-opacity="0" result="BackgroundImageFix"/>
<feGaussianBlur in="BackgroundImageFix" stdDeviation="50"/>
<feComposite in2="SourceAlpha" operator="in" result="effect1_backgroundBlur_2471_10728"/>
<feBlend mode="normal" in="SourceGraphic" in2="effect1_backgroundBlur_2471_10728" result="shape"/>
</filter>
<filter id="filter1_b_2471_10728" x="-100" y="-548" width="1640" height="1267" filterUnits="userSpaceOnUse" color-interpolation-filters="sRGB">
<feFlood flood-opacity="0" result="BackgroundImageFix"/>
<feGaussianBlur in="BackgroundImageFix" stdDeviation="50"/>
<feComposite in2="SourceAlpha" operator="in" result="effect1_backgroundBlur_2471_10728"/>
<feBlend mode="normal" in="SourceGraphic" in2="effect1_backgroundBlur_2471_10728" result="shape"/>
</filter>
<clipPath id="clip0_2471_10728">
<rect width="1440" height="252" fill="white"/>
</clipPath>
<clipPath id="clip1_2471_10728">
<rect width="1440" height="752" fill="white" transform="translate(0 -448)"/>
</clipPath>
<clipPath id="clip2_2471_10728">
<rect width="96" height="132" fill="white" transform="translate(672 60)"/>
</clipPath>
</defs>
</svg>
